<?xml version="1.0" encoding="utf-8"?>
<!-- Generator: Adobe Illustrator 22.1.0, SVG Export Plug-In . SVG Version: 6.00 Build 0)  -->
<svg version="1.1" id="Layer_1" xmlns="http://www.w3.org/2000/svg" xmlns:xlink="http://www.w3.org/1999/xlink" x="0px" y="0px"
	 viewBox="0 0 1000 1000" style="enable-background:new 0 0 1000 1000;" xml:space="preserve">
<style type="text/css">
	.st0{fill:#B80E0C;}
	.st1{fill:#3C3C3B;}
	.st2{fill:#003854;}
	.st3{fill:#FFFFFF;}
	.st4{fill:#F8B133;}
	.st5{fill:#D9D9D9;}
	.st6{fill:none;}
	.st7{fill:#0069B3;}
  
  .part, #group {
    transform-box:fill-box;
    -moz-transform-box:fill-box;
    -o-transform-box:fill-box;
    -webkit-transform-box:fill-box;
  }
  
 #group {
     -moz-transform-origin: 50% 50%;
    -ms-transform-origin: 50% 50%;
    -o-transform-origin: 50% 50%;
    -webkit-transform-origin: 50% 50%;
    transform-origin: 50% 50%;
    
    -moz-animation: rotateCounterClockwise 30s linear infinite;
    -o-animation: rotateCounterClockwise 30s linear infinite;
    -webkit-animation: rotateCounterClockwise 30s linear infinite;
    animation: rotateCounterClockwise 30s linear infinite;
}

.part {
    -moz-transform-origin: center center;
    -ms-transform-origin: center center;
    -o-transform-origin: center center;
    -webkit-transform-origin: center center;
    transform-origin: center center;
 
    -moz-animation: rotateClockwise 30s linear infinite;
    -o-animation: rotateClockwise 30s linear infinite;
    -webkit-animation: rotateClockwise 30s linear infinite;
    animation: rotateClockwise 30s linear infinite;
}

@keyframes rotateClockwise {
    from {
        
    }

    to {
        -moz-transform: rotate(360deg);
        -ms-transform: rotate(360deg);
        -o-transform: rotate(360deg);
        -webkit-transform: rotate(360deg);
        transform: rotate(360deg);
    }
}

@-moz-keyframes rotateClockwise {
    from {
    }

    to {
        -moz-transform: rotate(360deg);
        -ms-transform: rotate(360deg);
        -o-transform: rotate(360deg);
        -webkit-transform: rotate(360deg);
        transform: rotate(360deg);
    }
}

@-webkit-keyframes rotateClockwise {
    from {
    }

    to {
        -moz-transform: rotate(360deg);
        -ms-transform: rotate(360deg);
        -o-transform: rotate(360deg);
        -webkit-transform: rotate(360deg);
        transform: rotate(360deg);
    }
}


@keyframes rotateCounterClockwise {
    from {
    }

    to {
        -moz-transform: rotate(-360deg);
        -ms-transform: rotate(-360deg);
        -o-transform: rotate(-360deg);
        -webkit-transform: rotate(-360deg);
        transform: rotate(-360deg);
    }
}


@-moz-keyframes rotateCounterClockwise {
    from {
    }

    to {
        -moz-transform: rotate(-360deg);
        -ms-transform: rotate(-360deg);
        -o-transform: rotate(-360deg);
        -webkit-transform: rotate(-360deg);
        transform: rotate(-360deg);
    }
}

@-webkit-keyframes rotateCounterClockwise {
    from {
    }

    to {
        -moz-transform: rotate(-360deg);
        -ms-transform: rotate(-360deg);
        -o-transform: rotate(-360deg);
        -webkit-transform: rotate(-360deg);
        transform: rotate(-360deg);
    }
}
</style>
	<g id="XMLID_3_">
		<path id="XMLID_10_" fill="#B80E0C" d="M379.2,451.3c0,0,1.8-23.6-5.4-24.3c-5.1-0.4-22.3-0.3-32,1.3c-4,0.7-6.4,3.6-5.4,6.5
			c1.3,3.7,3.9,10.8,8.4,12C353,449,379.2,451.3,379.2,451.3z"/>
		<polygon id="XMLID_13_" fill="#3C3C3B" points="369.8,450 376.9,458.9 379.3,451.3 		"/>
		<path id="XMLID_22_" fill="#B80E0C" d="M629.7,451.3c0,0-1.8-23.6,5.3-24.3c5-0.4,21.8-0.3,31.3,1.3c3.9,0.7,6.3,3.6,5.3,6.5
			c-1.3,3.7-3.8,10.8-8.2,12C655.4,449,629.7,451.3,629.7,451.3z"/>
		<polygon id="XMLID_21_" fill="#3C3C3B" points="639.1,450 632,458.9 629.6,451.3 		"/>
		<path id="XMLID_12_" fill="#003854" d="M385.7,615.1h-32.1c-4.6,0-8.3-3.7-8.3-8.3v-31.2H394v31.2
			C394,611.4,390.3,615.1,385.7,615.1z"/>
		<path id="XMLID_20_" fill="#003854" d="M623.2,615.1h32.1c4.6,0,8.3-3.7,8.3-8.3v-31.2h-48.7v31.2
			C614.9,611.4,618.7,615.1,623.2,615.1z"/>
		<path id="XMLID_9_" fill="#B80E0C" d="M663.2,490.8c-5.4-20.8-14-29.9-20.6-31.1c-6.6-1.2-10.7-2.9-15.7-13.2
			c-4.9-10.3-26.8-59.4-49.5-61.9c-22.7-2.5-73-2.5-73-2.5s-50.3,0-73,2.5c-22.7,2.5-44.5,51.6-49.5,61.9
			c-4.9,10.3-9.1,12-15.7,13.2c-6.6,1.2-15.3,10.3-20.6,31.1c-5.4,20.8-2.5,83.1,1.6,95.5c4.1,12.4,26.8,13.2,34.6,13.2
			s12.5-7.6,21.4-6.2c18.3,2.8,183.8,2.8,202.1,0c9-1.4,13.6,6.2,21.4,6.2c7.8,0,30.5-0.8,34.6-13.2
			C665.7,573.9,668.6,511.6,663.2,490.8z"/>
		<path id="XMLID_7_" fill="#FFFFFF" d="M406.8,500.4l-46.7-18.7c-3.2-1.3-6.7,0.6-7.5,3.9c-1.6,7-2.6,17.9,5.1,21.4
			c11.5,5.4,37.5,8.7,43.7,7.8c2.4-0.3,4.9-2,7.2-4C412,507.8,411.1,502.2,406.8,500.4z"/>
		<path id="XMLID_8_" fill="#003854" d="M390.9,555.8c3.2,1,4.4,4.9,2.3,7.5c-4.1,5.2-10.7,12.3-15.8,12.3c-5,0-13.2-1.5-18.7-2.6
			c-2.9-0.6-4.6-3.8-3.4-6.5l2.4-5.6c2.9-6.8,10.2-10.6,17.5-9.1C379.9,552.8,385.5,554.1,390.9,555.8z"/>
		
			<ellipse id="XMLID_2_" transform="matrix(0.2181 -0.9759 0.9759 0.2181 -201.8911 739.7816)" fill="#F8B133" cx="360.8" cy="495.9" rx="7.1" ry="7.1"/>
		<path id="XMLID_11_" fill="#003854" d="M579.7,499.2c-1.1-0.4-2.3-0.8-3.7-1.1c-10.3-2.5-71.5-2.2-71.5-2.2s-61.2-0.3-71.5,2.2
			c-1.4,0.3-2.6,0.7-3.7,1.1c-5.2,1.9-7.4,8-4.7,12.8l6.6,11.9c4.2,7.5,10.9,13.4,19,16c0.5,0.2,1,0.3,1.5,0.5
			c15.4,4.3,42.3,5.9,52.7,5.9c10.3,0,37.3-1.6,52.7-5.9c0.5-0.1,1-0.3,1.5-0.5c8.2-2.7,14.9-8.6,19-16l6.6-11.9
			C587,507.1,584.9,501,579.7,499.2z"/>
		<path id="XMLID_17_" fill="#FFFFFF" d="M602.2,500.4l46.7-18.7c3.2-1.3,6.7,0.6,7.5,3.9c1.6,7,2.6,17.9-5.1,21.4
			c-11.5,5.4-37.5,8.7-43.7,7.8c-2.4-0.3-4.9-2-7.2-4C596.9,507.8,597.9,502.2,602.2,500.4z"/>
		<path id="XMLID_23_" fill="#003854" d="M601.7,578.5c-5.8-5.8-10.8-10.2-14.7-13.4c-4.7-3.9-10.8-5.8-16.9-5.4
			c-17.1,1.2-114.2,1.2-131.2,0c-6.1-0.4-12.2,1.5-16.9,5.4c-3.9,3.2-8.9,7.6-14.7,13.4c-2.6,2.7-1.1,7.2,2.6,7.7
			c27.3,3.8,162,3.8,189.3,0C602.8,585.7,604.4,581.1,601.7,578.5z"/>
		<path id="XMLID_15_" fill="#003854" d="M618,555.8c-3.2,1-4.4,4.9-2.3,7.5c4.1,5.2,10.7,12.3,15.8,12.3c5,0,13.2-1.5,18.7-2.6
			c2.9-0.6,4.6-3.8,3.4-6.5l-2.4-5.6c-2.9-6.8-10.2-10.6-17.5-9.1C629.1,552.8,623.5,554.1,618,555.8z"/>
		<path id="XMLID_5_" fill="#003854" d="M617.7,440.2c-3.4-7.4-13-25.1-23.8-39.7c-2.8-3.7-6.9-6.1-11.5-6.7
			c-25.9-3.3-78-3.8-78-3.8s-52.1,0.5-78,3.8c-4.6,0.6-8.8,3-11.5,6.7c-10.8,14.6-20.4,32.3-23.8,39.7c-0.8,1.7,0.5,3.5,2.3,3.5
			c19.4-0.3,105.3-1.8,111-1.8c5.7,0,91.5,1.5,111,1.8C617.3,443.7,618.5,441.8,617.7,440.2z"/>
		
			<ellipse id="XMLID_6_" transform="matrix(0.7071 -0.7071 0.7071 0.7071 -160.8026 603.5726)" fill="#F8B133" cx="648.2" cy="495.9" rx="7.1" ry="7.1"/>
	</g>
	<path id="XMLID_26_" fill="#D9D9D9" d="M432.7,625.2H325.6v-10.2h107.1c2,0,3.5,1.6,3.5,3.5v3.1
		C436.2,623.7,434.7,625.2,432.7,625.2z"/>
	<path id="XMLID_31_" fill="#D9D9D9" d="M574.8,625.2h107.1v-10.2H574.8c-2,0-3.5,1.6-3.5,3.5v3.1
		C571.3,623.7,572.8,625.2,574.8,625.2z"/>
<g id="group">
	<g id="part9" class="part">
		<path id="XMLID_4_" fill="#003854" d="M455.3,216.6H299.1c-1.9,0-3.5-1.6-3.5-3.5V103.2h163.3v109.9
			C458.8,215,457.3,216.6,455.3,216.6z"/>
		<rect id="XMLID_16_" x="288.7" y="88.4" fill="#B80E0C" width="176.9" height="14.7"/>
		<rect id="XMLID_14_" x="306.4" y="71.4" fill="#B80E0C" width="23.8" height="17"/>
		<rect id="XMLID_24_" x="424.2" y="71.4" fill="#0069B3" width="23.8" height="17"/>
		<rect id="XMLID_27_" x="424.2" y="122" fill="#FFFFFF" width="23.8" height="6.1"/>
		<polygon id="XMLID_28_" fill="#FFFFFF" points="330.2,122 321.4,122 321.4,113.2 315.3,113.2 315.3,122 306.5,122 306.5,128.1 
			315.3,128.1 315.3,137 321.4,137 321.4,128.1 330.2,128.1 		"/>
	</g>
	<g id="part8" class="part">
		<polygon id="XMLID_43_" fill="#003854" points="180.9,275.3 109.8,275.3 170.7,334.5 180.9,334.5 191.1,334.5 252,275.3 		"/>
		<polygon id="XMLID_39_" fill="#B80E0C" points="180.9,334.5 170.7,334.5 174.9,388.3 180.9,388.3 186.9,388.3 191.1,334.5 		"/>
	</g>
	<g id="part7" class="part" >
		<g id="XMLID_48_">
			<path id="XMLID_50_" fill="#B80E0C" d="M202.7,633.1H81c-6.4,0-12.4-3.5-15.6-9c-3.2-5.6-3.2-12.5,0-18l0,0l60.9-105.4
				c3.2-5.6,9.2-9,15.6-9h0c6.4,0,12.4,3.5,15.6,9l60.9,105.4c3.2,5.6,3.2,12.5,0,18C215.1,629.6,209.2,633.1,202.7,633.1z
				 M89,610.5h105.8l-52.9-91.6L89,610.5z"/>
		</g>
		<g id="XMLID_53_">
			<rect id="XMLID_49_" x="77.4" y="636.5" fill="#003854" width="38.5" height="7.1"/>
			<rect id="XMLID_54_" x="167.8" y="636.5" fill="#003854" width="38.5" height="7.1"/>
		</g>
	</g>
	<g id="part6" class="part">
		<polygon id="XMLID_59_" fill="#003854" points="203.5,710.9 201.2,713.1 198.9,715.2 208.1,728.8 212.6,730.5 267.4,790.2 
			269.9,787.8 272.4,785.5 217.7,725.9 216.3,721.3 		"/>
		
			<rect id="XMLID_34_" x="257.9" y="787.2" transform="matrix(0.7364 -0.6766 0.6766 0.7364 -462.6875 391.9566)" fill="#003854" width="27.4" height="5.1"/>
		<path id="XMLID_83_" fill="#003854" d="M288,787.3l44.6,48.6c1.9,2.1,2.4,5.2,1.1,7.7c-3,5.9-7.6,10.1-13.7,12.6
			c-2.6,1.1-5.7,0.3-7.6-1.8l-44.6-48.6c1.4-1.3,1.5-3.4,0.2-4.8c-1.3-1.4-3.4-1.5-4.8-0.2l20.2-18.5c-1.4,1.3-1.5,3.4-0.2,4.8
			C284.5,788.4,286.6,788.5,288,787.3z"/>
		<g id="XMLID_58_">
			<path id="XMLID_36_" fill="#B80E0C" d="M321,842l-1.4,1.3c-1.4,1.3-3.6,1.2-4.8-0.2l-36.4-39.6c-1.3-1.4-1.2-3.6,0.2-4.8l1.4-1.3
				c1.4-1.3,3.6-1.2,4.8,0.2l36.4,39.6C322.5,838.5,322.4,840.7,321,842z"/>
			<path id="XMLID_71_" fill="#B80E0C" d="M289.3,788.7l41.1,44.7c-1.8,1.7-4.6,1.5-6.2-0.3L289,794.9
				C287.4,793.1,287.5,790.3,289.3,788.7z"/>
			<path id="XMLID_69_" fill="#B80E0C" d="M275.2,807.6l35.1,38.2c1.6,1.8,1.5,4.5-0.2,6.1l-41-44.7c0.9-0.8,2-1.1,3.1-1.1
				C273.3,806.2,274.4,806.7,275.2,807.6z"/>
		</g>
	</g>
	<g id="part5" class="part">
		<path id="XMLID_76_" fill="#003854" d="M542.8,835l-31.8-22.7c-2.5-1.8-5.6-2.8-8.7-2.8h-11.4c-3.8,0-7.5,1.5-10.3,4.1l-5.2,5
			h-16.2c-1,0-1.9,0.8-1.9,1.9v109c0,3.7,3,6.8,6.8,6.8h78.2c3.8,0,6.8-3,6.8-6.8v-82.3C549,842.3,546.7,837.8,542.8,835z
			 M499.8,819.7c1-1.4,2.7-2.2,4.3-2.2c1.1,0,2.2,0.3,3.1,1l30.6,22c2.4,1.7,2.9,5,1.2,7.4c-1,1.4-2.7,2.2-4.3,2.2
			c-1.1,0-2.2-0.3-3.1-1l-30.6-22C498.6,825.4,498,822,499.8,819.7z M535.4,911.6C535.4,911.6,535.4,911.6,535.4,911.6
			c-2.9,0-5.3-2.4-5.3-5.3l-0.1-41c0-2.9,2.4-5.3,5.3-5.3c0,0,0,0,0,0c2.9,0,5.3,2.4,5.3,5.3l0.1,41
			C540.8,909.2,538.4,911.6,535.4,911.6z"/>
		<rect id="XMLID_30_" x="459.7" y="816.6" fill="#003854" width="13.8" height="2"/>
		<path id="XMLID_33_" fill="#B80E0C" d="M460.2,803.7h12.6c1.7,0,3,1.3,3,3v6.8c0,1.7-1.3,3-3,3h-12.6c-1.7,0-3-1.3-3-3v-6.8
			C457.2,805.1,458.6,803.7,460.2,803.7z"/>
		<path id="XMLID_40_" fill="#B80E0C" d="M503.1,879.7L503.1,879.7l-9.9-16.2l-9.9,16.1l0,0c-1.5,2-2.3,4.5-2.3,7.2
			c0,6.8,5.5,12.2,12.2,12.2s12.2-5.5,12.2-12.2C505.4,884.2,504.5,881.7,503.1,879.7z"/>
		<circle id="XMLID_38_" fill="#FFFFFF" cx="487.5" cy="891.2" r="2.5"/>
	</g>
	<g id="part4" class="part">
		<path id="XMLID_106_" fill="#B80E0C" d="M728.7,776.2c1.9-3.3,6-4.5,9.3-2.9c0.9-2.4,1.5-4.9,2-7.4c-3.7-0.3-6.6-3.4-6.6-7.1
			c0-3.8,2.9-6.9,6.6-7.1c-0.4-2.5-1.1-5-2-7.4c-3.3,1.6-7.4,0.4-9.3-2.9c-1.9-3.2-0.9-7.4,2.1-9.5c-1.6-1.9-3.4-3.7-5.4-5.4
			c-2.1,3-6.2,4-9.5,2.1c-3.2-1.9-4.5-5.9-2.9-9.2c-2.4-0.9-4.9-1.6-7.4-2c-0.3,3.7-3.4,6.6-7.1,6.6c-3.8,0-6.8-2.9-7.1-6.6
			c-2.5,0.4-5,1.1-7.4,2c1.6,3.3,0.4,7.4-2.9,9.3c-3.3,1.9-7.4,0.9-9.5-2.2c-1.9,1.6-3.8,3.4-5.4,5.4c3.1,2.1,4.1,6.2,2.2,9.5
			c-1.9,3.3-6,4.5-9.4,2.8c-0.9,2.4-1.6,4.9-2,7.4c3.7,0.2,6.7,3.4,6.7,7.2s-3,6.9-6.7,7.1c0.4,2.5,1.1,5,2,7.4
			c3.4-1.7,7.5-0.5,9.4,2.8c1.9,3.3,0.9,7.5-2.3,9.6c1.6,2,3.4,3.8,5.4,5.4c2.1-3.2,6.3-4.2,9.6-2.3c3.3,1.9,4.5,6.1,2.8,9.4
			c2.4,0.9,4.9,1.6,7.4,2c0.2-3.8,3.3-6.8,7.1-6.8c3.8,0,6.9,3,7.1,6.7c2.5-0.4,5-1.1,7.4-2c-1.7-3.4-0.5-7.5,2.8-9.4
			c3.3-1.9,7.5-0.9,9.5,2.2c1.9-1.6,3.8-3.4,5.4-5.4C727.8,783.6,726.8,779.5,728.7,776.2z M686.3,780.1
			c-11.7-6.8-15.7-21.7-8.9-33.4c6.8-11.7,21.7-15.7,33.4-8.9c11.7,6.8,15.7,21.7,8.9,33.4C713,782.8,698,786.8,686.3,780.1z"/>
		<path id="XMLID_61_" fill="#003854" d="M809.9,765c1.9-3.3,6-4.5,9.3-2.9c0.9-2.4,1.5-4.9,2-7.4c-3.7-0.3-6.6-3.4-6.6-7.1
			c0-3.8,2.9-6.9,6.6-7.1c-0.4-2.5-1.1-5-2-7.4c-3.3,1.6-7.4,0.4-9.3-2.9c-1.9-3.2-0.9-7.4,2.1-9.5c-1.6-1.9-3.4-3.7-5.4-5.4
			c-2.1,3-6.2,4-9.5,2.1c-3.2-1.9-4.5-5.9-2.9-9.2c-2.4-0.9-4.9-1.6-7.4-2c-0.3,3.7-3.4,6.6-7.1,6.6c-3.8,0-6.8-2.9-7.1-6.6
			c-2.5,0.4-5,1.1-7.4,2c1.6,3.3,0.4,7.4-2.9,9.3c-3.3,1.9-7.4,0.9-9.5-2.2c-1.9,1.6-3.8,3.4-5.4,5.4c3.1,2.1,4.1,6.2,2.2,9.5
			c-1.9,3.3-6,4.5-9.4,2.8c-0.9,2.4-1.6,4.9-2,7.4c3.7,0.2,6.7,3.4,6.7,7.2c0,3.8-3,6.9-6.7,7.1c0.4,2.5,1.1,5,2,7.4
			c3.4-1.7,7.5-0.5,9.4,2.8c1.9,3.3,0.9,7.5-2.3,9.6c1.6,2,3.4,3.8,5.4,5.4c2.1-3.2,6.3-4.2,9.6-2.3c3.3,1.9,4.5,6.1,2.8,9.4
			c2.4,0.9,4.9,1.6,7.4,2c0.2-3.8,3.3-6.8,7.1-6.8c3.8,0,6.9,3,7.1,6.7c2.5-0.4,5-1.1,7.4-2c-1.7-3.4-0.5-7.5,2.8-9.4
			c3.3-1.9,7.5-0.9,9.5,2.2c1.9-1.6,3.8-3.4,5.4-5.4C809,772.4,808,768.2,809.9,765z M767.5,768.8c-11.7-6.8-15.7-21.7-8.9-33.4
			c6.8-11.7,21.7-15.7,33.4-8.9c11.7,6.8,15.7,21.7,8.9,33.4C794.2,771.6,779.2,775.6,767.5,768.8z"/>
		<path id="XMLID_66_" fill="#003854" d="M777.9,839c1.9-3.3,6-4.5,9.3-2.9c0.9-2.4,1.5-4.9,2-7.4c-3.7-0.3-6.6-3.4-6.6-7.1
			c0-3.8,2.9-6.9,6.6-7.1c-0.4-2.5-1.1-5-2-7.4c-3.3,1.6-7.4,0.4-9.3-2.9c-1.9-3.2-0.9-7.4,2.1-9.5c-1.6-1.9-3.4-3.7-5.4-5.4
			c-2.1,3-6.2,4-9.5,2.1c-3.2-1.9-4.5-5.9-2.9-9.2c-2.4-0.9-4.9-1.6-7.4-2c-0.3,3.7-3.4,6.6-7.1,6.6c-3.8,0-6.8-2.9-7.1-6.6
			c-2.5,0.4-5,1.1-7.4,2c1.6,3.3,0.4,7.4-2.9,9.3c-3.3,1.9-7.4,0.9-9.5-2.2c-1.9,1.6-3.8,3.4-5.4,5.4c3.1,2.1,4.1,6.2,2.2,9.5
			c-1.9,3.3-6,4.5-9.4,2.8c-0.9,2.4-1.6,4.9-2,7.4c3.7,0.2,6.7,3.4,6.7,7.2c0,3.8-3,6.9-6.7,7.1c0.4,2.5,1.1,5,2,7.4
			c3.4-1.7,7.5-0.5,9.4,2.8c1.9,3.3,0.9,7.5-2.3,9.6c1.6,2,3.4,3.8,5.4,5.4c2.1-3.2,6.3-4.2,9.6-2.3c3.3,1.9,4.5,6.1,2.8,9.4
			c2.4,0.9,4.9,1.6,7.4,2c0.2-3.8,3.3-6.8,7.1-6.8c3.8,0,6.9,3,7.1,6.7c2.5-0.4,5-1.1,7.4-2c-1.7-3.4-0.5-7.5,2.8-9.4
			c3.3-1.9,7.5-0.9,9.5,2.2c1.9-1.6,3.8-3.4,5.4-5.4C777,846.5,776,842.3,777.9,839z M735.5,842.9c-11.7-6.8-15.7-21.7-8.9-33.4
			c6.8-11.7,21.7-15.7,33.4-8.9c11.7,6.8,15.7,21.7,8.9,33.4C762.1,845.7,747.2,849.7,735.5,842.9z"/>
	</g>
	<g id="part3" class="part">
		<path id="XMLID_72_" fill="#003854" d="M902,626.3h-76.2l10.4-42.6l10.4-42.6l8.7-35.3c1.2-4.8,4.9-7.3,8.6-7.3
			c3.7,0,7.4,2.4,8.6,7.3l8.7,35.3l10.4,42.6L902,626.3z"/>
		<rect id="XMLID_57_" x="811.5" y="626.3" fill="#003854" width="104.8" height="9.5"/>
		<path id="XMLID_63_" fill="#B80E0C" d="M881.1,541.1h-34.4l8.7-35.3c1.2-4.8,4.9-7.3,8.6-7.3c3.7,0,7.4,2.4,8.6,7.3L881.1,541.1z"
			/>
		<polygon id="XMLID_65_" fill="#B80E0C" points="902,626.3 825.8,626.3 836.3,583.7 891.6,583.7 		"/>
	</g>
	<g id="part2" class="part">
		<path id="XMLID_47_" fill="#003854" d="M952.5,298.4l-2.8-8.8c-0.8-2.4-2.5-4.4-4.8-5.6c-2.3-1.1-4.9-1.3-7.3-0.5l-28.7,10H868
			v-7.9h20.5v-8.3h-49.3v8.3h20.5v7.9h-43.1c-1.3,0-2.6-0.2-3.9-0.5l-90-19.9l-3.2,7.6l85.5,36.4c5.8,2.5,9.7,8.2,9.7,14.5v16
			c0,4.8,3.9,8.7,8.7,8.7h79.1c4.8,0,8.7-3.9,8.7-8.7v-16.2l37.3-22C952.2,307.2,953.9,302.7,952.5,298.4z M911,316v-10.1
			c0-1.7,1.1-3.2,2.7-3.7l23.9-8.3c1.6-0.6,3.3,0.3,3.9,1.9l1,3.2c0.4,1.3-0.1,2.8-1.3,3.5l-26.5,15.6C913,319,911,317.9,911,316z"
			/>
		<g id="XMLID_35_">
			<path id="XMLID_41_" fill="#B80E0C" d="M728.4,296.3L728.4,296.3l-8.9-14.5l-8.9,14.5l0,0c-1.3,1.8-2.1,4-2.1,6.5
				c0,6.1,4.9,11,11,11c6.1,0,11-4.9,11-11C730.5,300.3,729.7,298.1,728.4,296.3z"/>
			<path id="XMLID_45_" fill="#FFFFFF" d="M717.5,305.6c0,1.4-1.2,2.6-2.6,2.6s-2.6-1.2-2.6-2.6c0-1.4,1.2-2.6,2.6-2.6
				S717.5,304.2,717.5,305.6z"/>
		</g>
	</g>
	<path id="part1" class="part" fill="#003854" d="M604,209.4c0-0.5,0-0.9,0-1.3c0-5.9,2.2-11.5,6.3-15.6l50.2-50.2c4.1-4.1,9.8-6.3,15.6-6.3
		c0,0,0.1,0,0.1,0c9.2,0,17.3-5.1,21.4-12.6h-20.5l-6.9-11.9l6.9-11.9l20.5,0c-4.4-7.9-13-13.1-22.8-12.6
		c-12.4,0.7-22.5,10.8-23.2,23.3c0,0.5,0,0.9,0,1.3c0,5.9-2.2,11.5-6.3,15.6l-50.2,50.2c-4.1,4.1-9.8,6.3-15.6,6.3c0,0-0.1,0-0.1,0
		c-9.2,0-17.3,5.1-21.4,12.6h20.5l6.9,11.9l-6.9,11.9h-20.5c4.4,7.9,13,13.1,22.8,12.6C593.3,232,603.4,221.8,604,209.4z"/>
</g>
</svg>
