<?xml version="1.0" standalone="no"?>
<!DOCTYPE svg PUBLIC "-//W3C//DTD SVG 20010904//EN"
 "http://www.w3.org/TR/2001/REC-SVG-20010904/DTD/svg10.dtd">
<svg version="1.0" xmlns="http://www.w3.org/2000/svg"
 width="512.000000pt" height="512.000000pt" viewBox="0 0 512.000000 512.000000"
 preserveAspectRatio="xMidYMid meet">
<metadata>
Created by potrace 1.15, written by Peter Selinger 2001-2017
</metadata>
<g transform="translate(0.000000,512.000000) scale(0.100000,-0.100000)"
fill="#000000" stroke="none">
<path d="M2272 4299 c-46 -4 -172 -19 -280 -34 -108 -14 -219 -28 -247 -31
-85 -11 -215 -53 -309 -102 -182 -93 -286 -233 -356 -475 -28 -102 -95 -291
-170 -486 -18 -46 -46 -98 -61 -116 -28 -31 -33 -33 -112 -37 -134 -6 -201
-54 -268 -192 -32 -66 -39 -91 -39 -141 l0 -60 114 -29 113 -29 -3 -151 c-9
-348 -11 -1121 -4 -1242 8 -139 35 -247 69 -278 10 -9 50 -20 92 -26 143 -18
505 -9 605 16 31 8 50 57 84 221 16 81 32 158 35 171 l5 22 1025 0 c781 0
1026 -3 1031 -12 4 -6 10 -75 13 -152 11 -260 34 -272 493 -264 257 4 278 9
311 65 45 78 47 102 47 773 0 513 -3 652 -15 725 -21 127 -24 118 50 137 36
10 90 25 120 33 l55 16 0 70 c0 59 -5 79 -34 137 -64 127 -142 181 -272 186
-121 5 -113 -9 -315 546 -49 135 -99 271 -111 304 -47 127 -160 234 -292 275
-69 21 -492 112 -631 135 -204 34 -534 45 -743 25z m743 -389 c441 -18 489
-27 581 -112 62 -57 86 -108 149 -321 30 -100 81 -261 113 -359 l60 -176 -142
-27 c-187 -36 -429 -70 -640 -92 -136 -14 -260 -18 -601 -18 -377 1 -455 3
-634 23 -229 25 -399 50 -604 89 -118 22 -137 28 -132 42 4 9 53 145 110 302
129 354 178 482 199 514 36 55 142 95 361 136 90 17 139 18 510 14 226 -2 527
-9 670 -15z m-1810 -1570 c235 -88 407 -167 437 -202 65 -75 49 -130 -50 -175
-50 -23 -73 -27 -187 -31 -138 -4 -327 15 -422 43 -110 33 -149 119 -121 264
18 90 39 128 83 148 46 21 107 10 260 -47z m2972 28 c36 -30 53 -90 53 -193 0
-161 -26 -190 -200 -222 -121 -22 -439 -25 -518 -4 -70 18 -112 59 -112 110 0
26 7 44 23 59 29 27 286 136 507 214 168 59 212 65 247 36z"/>
</g>
</svg>
