<svg xmlns="http://www.w3.org/2000/svg" viewBox="0 0 300.33 360.85"><title>mechanic-with-wrench-logo-1</title><g id="Layer_2" data-name="Layer 2"><g id="Capa_1" data-name="Capa 1"><path d="M150.16,197.2c24.13,0,80.85-29,80.85-98.6,0-9.7-.24-19.08-1-27.93C228.66,53.24,225.09,37.79,216.2,26,204.8,9.84,184.85,0,150.16,0s-54.63,9.83-66,25.94C75.24,37.78,71.67,53.23,70.35,70.67c-.8,8.86-1,18.23-1,27.93C69.32,168.17,126,197.2,150.16,197.2ZM176.55,36.12c-2.35,6-3.53,8.93-5.89,14.88-15.21-4.3-25.79-4.3-41,0-2.35-6-3.53-8.93-5.89-14.88C142.79,30.36,157.53,30.37,176.55,36.12ZM81.34,83.52c.94,2,4.89,9.87,11,10.6,7,.85,18.73-24.93,57.8-25S200.93,95,208,94.12c6.12-.73,10.08-8.57,11-10.6.19,5,.26,10,.26,15.08,0,34-15,55.08-27.61,66.76-15.87,14.73-33.49,20.08-41.47,20.08s-25.59-5.35-41.46-20.08C96.1,153.68,81.09,132.61,81.09,98.6,81.09,93.56,81.16,88.51,81.34,83.52Z"/><path d="M300.26,298.33c-4.13-25.67-12.63-58.73-29.67-70.48-11.64-8-52.25-29.72-69.59-39l-.29-.16a5.68,5.68,0,0,0-6.17.54A73.67,73.67,0,0,1,165,203.54a5.64,5.64,0,0,0-4.06,3.52l-10.74,28.29-10.73-28.29a5.66,5.66,0,0,0-4.07-3.52,73.57,73.57,0,0,1-29.57-14.29,5.68,5.68,0,0,0-6.17-.54c-17.13,9.16-58.24,31.3-69.83,39.11C10.17,241,1.59,288.87.07,298.33a5.74,5.74,0,0,0,.25,2.79c.42,1.18,6.91,18,39.36,31.5a16.12,16.12,0,0,1,7.17-5.16,16,16,0,0,1-8.73-22.76A47.43,47.43,0,0,1,119.18,301h61.93A47.53,47.53,0,0,1,220.48,280h0a47.5,47.5,0,0,1,41.63,24.61,16,16,0,0,1-8.66,22.78,16.09,16.09,0,0,1,7.27,5.23c32.37-13.51,38.85-30.29,39.26-31.46A5.65,5.65,0,0,0,300.26,298.33Z"/><path d="M248.15,340.43h0l-29.84,0c-.53-1.25-1.55-4.74-1.56-13.06s1-11.82,1.52-13.08l29.83,0a2,2,0,0,0,1.73-1,2,2,0,0,0,0-2A33.44,33.44,0,0,0,189.48,315H110.81a33.41,33.41,0,0,0-60.4-3.61,2,2,0,0,0,1.77,3h0l29.84,0c.53,1.25,1.54,4.74,1.55,13.06s-1,11.82-1.52,13.08l-29.83,0a2,2,0,0,0-1.76,3,33.49,33.49,0,0,0,29.32,17.34h0a33.43,33.43,0,0,0,31-21.06h78.66a33.5,33.5,0,0,0,31,21.06h0a33.48,33.48,0,0,0,29.32-17.44,2,2,0,0,0-1.77-3Z"/></g></g></svg>