<?xml version="1.0" encoding="utf-8"?>
<!-- Generator: Adobe Illustrator 22.1.0, SVG Export Plug-In . SVG Version: 6.00 Build 0)  -->
<svg version="1.1" id="Layer_1" xmlns="http://www.w3.org/2000/svg" xmlns:xlink="http://www.w3.org/1999/xlink" x="0px" y="0px"
	 viewBox="0 0 300.3 360.9" style="enable-background:new 0 0 300.3 360.9;" xml:space="preserve">
<style type="text/css">
	.st0{fill:#FFFFFF;}
</style>
<title>mechanic-with-wrench-logo-1</title>
<g id="Layer_2_1_">
	<g id="Capa_1">
		<path class="st0" d="M150.2,197.2c24.1,0,80.9-29,80.9-98.6c0-9.7-0.2-19.1-1-27.9c-1.4-17.4-4.9-32.9-13.8-44.7
			c-11.4-16.2-31.3-26-66-26s-54.6,9.8-66,25.9c-8.9,11.8-12.5,27.3-13.8,44.7c-0.8,8.9-1,18.2-1,27.9
			C69.3,168.2,126,197.2,150.2,197.2z M176.6,36.1c-2.4,6-3.5,8.9-5.9,14.9c-15.2-4.3-25.8-4.3-41,0c-2.3-6-3.5-8.9-5.9-14.9
			C142.8,30.4,157.5,30.4,176.6,36.1z M81.3,83.5c0.9,2,4.9,9.9,11,10.6c7,0.8,18.7-24.9,57.8-25s50.8,25.9,57.9,25
			c6.1-0.7,10.1-8.6,11-10.6c0.2,5,0.3,10,0.3,15.1c0,34-15,55.1-27.6,66.8c-15.9,14.7-33.5,20.1-41.5,20.1s-25.6-5.4-41.5-20.1
			c-12.6-11.7-27.6-32.8-27.6-66.8C81.1,93.6,81.2,88.5,81.3,83.5z"/>
		<path class="st0" d="M300.3,298.3c-4.1-25.7-12.6-58.7-29.7-70.5c-11.6-8-52.3-29.7-69.6-39l-0.3-0.2c-2-1.1-4.4-0.8-6.2,0.5
			c-8.6,6.9-18.7,11.8-29.5,14.3c-1.9,0.4-3.4,1.7-4.1,3.5l-10.7,28.3l-10.7-28.3c-0.7-1.8-2.2-3.1-4.1-3.5
			c-10.8-2.5-20.9-7.4-29.6-14.3c-1.8-1.4-4.2-1.6-6.2-0.5c-17.1,9.2-58.2,31.3-69.8,39.1c-19.7,13.2-28.2,61-29.8,70.5
			c-0.1,0.9-0.1,1.9,0.3,2.8c0.4,1.2,6.9,18,39.4,31.5c1.9-2.4,4.3-4.1,7.2-5.2c-8.3-2.9-12.7-12.1-9.8-20.4c0.3-0.8,0.6-1.6,1-2.4
			c12.5-23,41.3-31.5,64.3-19c6.7,3.7,12.5,8.9,16.7,15.3h61.9c8.8-13.1,23.6-21,39.4-21l0,0c17.3,0,33.3,9.4,41.6,24.6
			c4.3,7.7,1.4,17.5-6.3,21.7c-0.8,0.4-1.5,0.8-2.3,1.1c2.9,1,5.4,2.8,7.3,5.2c32.4-13.5,38.9-30.3,39.3-31.5
			C300.3,300.3,300.4,299.3,300.3,298.3z"/>
		<path class="st0" d="M248.1,340.4L248.1,340.4h-29.8c-0.5-1.3-1.6-4.7-1.6-13.1s1-11.8,1.5-13.1h29.8c0.7,0,1.4-0.4,1.7-1
			c0.4-0.6,0.4-1.4,0-2c-8.9-16.2-29.2-22.1-45.4-13.2c-6.8,3.7-12.1,9.7-14.9,16.9h-78.7c-6.8-17.1-26.2-25.5-43.4-18.7
			c-7.3,2.9-13.3,8.2-17,15.1c-0.6,1-0.2,2.2,0.7,2.7c0.3,0.2,0.7,0.3,1,0.3l0,0H82c0.5,1.3,1.5,4.7,1.6,13.1s-1,11.8-1.5,13.1H52.2
			c-1.1,0-2,0.9-2,2c0,0.4,0.1,0.7,0.3,1c5.9,10.7,17.1,17.3,29.3,17.3l0,0c13.7,0,25.9-8.4,31-21.1h78.7c5.1,12.7,17.3,21,31,21.1
			l0,0c12.2,0,23.5-6.7,29.3-17.4c0.6-1,0.2-2.2-0.7-2.7c-0.3-0.2-0.7-0.3-1-0.3H248.1z"/>
	</g>
</g>
</svg>
