<?xml version="1.0" encoding="utf-8"?>
<!-- Generator: Adobe Illustrator 22.1.0, SVG Export Plug-In . SVG Version: 6.00 Build 0)  -->
<svg version="1.1" id="mysticMechanic" xmlns="http://www.w3.org/2000/svg" xmlns:xlink="http://www.w3.org/1999/xlink" x="0px"
	 y="0px" viewBox="0 0 1000 1000" style="enable-background:new 0 0 1000 1000;" xml:space="preserve">
<style type="text/css">
	.st0{fill:#FFFFFF;}
	.st1{fill:none;}
  
  .part, #group {
    transform-box:fill-box;
    -moz-transform-box:fill-box;
    -o-transform-box:fill-box;
    -webkit-transform-box:fill-box;
  }
  
  g {
  fill: #ecf0f1;
  }
 #group {
     -moz-transform-origin: 50% 50%;
    -ms-transform-origin: 50% 50%;
    -o-transform-origin: 50% 50%;
    -webkit-transform-origin: 50% 50%;
    transform-origin: 50% 50%;
    
    -moz-animation: rotateClockwise 30s linear infinite;
    -o-animation: rotateClockwise 30s linear infinite;
    -webkit-animation: rotateClockwise 30s linear infinite;
    animation: rotateClockwise 30s linear infinite;
}

.part {
    -moz-transform-origin: center center;
    -ms-transform-origin: center center;
    -o-transform-origin: center center;
    -webkit-transform-origin: center center;
    transform-origin: center center;
 
    -moz-animation: rotateCounterClockwise 30s linear infinite;
    -o-animation: rotateCounterClockwise 30s linear infinite;
    -webkit-animation: rotateCounterClockwise 30s linear infinite;
    animation: rotateCounterClockwise 30s linear infinite;
}

@keyframes rotateClockwise {
    from {
        
    }

    to {
        -moz-transform: rotate(360deg);
        -ms-transform: rotate(360deg);
        -o-transform: rotate(360deg);
        -webkit-transform: rotate(360deg);
        transform: rotate(360deg);
    }
}

@-moz-keyframes rotateClockwise {
    from {
    }

    to {
        -moz-transform: rotate(360deg);
        -ms-transform: rotate(360deg);
        -o-transform: rotate(360deg);
        -webkit-transform: rotate(360deg);
        transform: rotate(360deg);
    }
}

@-webkit-keyframes rotateClockwise {
    from {
    }

    to {
        -moz-transform: rotate(360deg);
        -ms-transform: rotate(360deg);
        -o-transform: rotate(360deg);
        -webkit-transform: rotate(360deg);
        transform: rotate(360deg);
    }
}


@keyframes rotateCounterClockwise {
    from {
    }

    to {
        -moz-transform: rotate(-360deg);
        -ms-transform: rotate(-360deg);
        -o-transform: rotate(-360deg);
        -webkit-transform: rotate(-360deg);
        transform: rotate(-360deg);
    }
}


@-moz-keyframes rotateCounterClockwise {
    from {
    }

    to {
        -moz-transform: rotate(-360deg);
        -ms-transform: rotate(-360deg);
        -o-transform: rotate(-360deg);
        -webkit-transform: rotate(-360deg);
        transform: rotate(-360deg);
    }
}

@-webkit-keyframes rotateCounterClockwise {
    from {
    }

    to {
        -moz-transform: rotate(-360deg);
        -ms-transform: rotate(-360deg);
        -o-transform: rotate(-360deg);
        -webkit-transform: rotate(-360deg);
        transform: rotate(-360deg);
    }
}

</style>
<g id="group">
	<g id="part8" class="part">
		<path d="M142.6,196.6h3v40.9l-7.7,15.3c-0.9,1.6-1.3,3.5-1.3,5.3v15.7c0,6.6,5.3,11.9,11.9,11.9H208c6.6,0,11.9-5.3,11.9-11.9V256
			c0-0.4-0.1-0.8-0.2-1.2c-0.2-0.4-0.4-0.7-0.7-1L203,237.8c-1.6-1.6-4-2.6-6.3-2.6h-6.6c-1.6,0-3-1.4-3-3v-17.8h3
			c4.9,0,8.9-4,8.9-8.9v-8.9h32.7c3.8,0,7.1-2.4,8.3-5.9h15.4c8,0,15.3-4.6,18.7-11.9H297c4.9,0,8.9-4,8.9-8.9s-4-8.9-8.9-8.9h-22.9
			c-3.4-7.3-10.7-11.9-18.7-11.9h-15.4c-1.3-3.6-4.6-5.9-8.3-5.9h-89.1c-8.2,0-14.8,6.7-14.8,14.8v23.7
			C127.8,189.9,134.4,196.5,142.6,196.6z M207.9,279.7h-59.4c-3.3,0-5.9-2.6-5.9-5.9v-15.7c0-1,0.2-1.8,0.7-2.6l6.1-12.3l13.2,13.2
			c1.6,1.6,4,2.6,6.3,2.6h45v14.8C213.9,277.1,211.2,279.7,207.9,279.7z M190.1,241.2h6.5c0.8,0,1.5,0.3,2.1,0.9l11,11h-40.9
			c-0.8,0-1.5-0.3-2.1-0.9L151.5,237v-40.4h14.8v23.7c0,8.2,6.7,14.8,14.8,14.8h0.6C183,238.7,186.4,241.1,190.1,241.2z
			 M181.2,196.6v32.6c-4.9,0-8.9-4-8.9-8.9v-23.7H181.2z M193.1,205.5c0,1.6-1.4,3-3,3h-2.9v-11.9h5.9V205.5z M300,169.9
			c0,0.8-0.3,1.5-0.9,2.1c-0.6,0.6-1.3,0.9-2,0.9h-21c0.2-1,0.2-1.9,0.3-3c0-1-0.1-2-0.3-3h21C298.7,166.9,300,168.2,300,169.9z
			 M269.5,164.9c0.6,1.5,0.9,3.2,0.9,4.9c0,1.6-0.3,3.4-0.9,4.9c-1.7,4.9-5.9,8.5-11,9.6v-29.1C263.6,156.3,267.8,160,269.5,164.9z
			 M252.5,184.7h-11.9V155h11.9V184.7z M133.7,158c0-4.9,4-8.9,8.9-8.9h89.1c1.6,0,3,1.4,3,3v3h-5.9c-1.6,0-3,1.4-3,3
			c0,1.6,1.4,3,3,3h5.9v5.9h-5.9c-1.6,0-3,1.4-3,3c0,1.6,1.4,3,3,3h5.9v5.9h-5.9c-1.6,0-3,1.4-3,3c0,1.6,1.4,3,3,3h5.9v3
			c0,1.6-1.4,3-3,3h-89.1c-4.9,0-8.9-4-8.9-8.9V158z"/>
		<path d="M145.5,161h11.9c1.6,0,3-1.4,3-3c0-1.6-1.4-3-3-3h-11.9c-1.6,0-3,1.4-3,3C142.6,159.6,144,161,145.5,161z"/>
		<path d="M145.5,172.8h11.9c1.6,0,3-1.4,3-3c0-1.6-1.4-3-3-3h-11.9c-1.6,0-3,1.4-3,3C142.6,171.4,144,172.8,145.5,172.8z"/>
	</g>
	<path id="part7" class="part" d="M42.6,562.2c-1.6,1.6-4.3,1.6-5.9,0l-3-3c-1.6-1.6-4.3-1.6-5.9,0s-1.6,4.3,0,5.9l3,3c4.9,4.9,12.9,4.9,17.8,0
		l9.4-9.4c4.6,2.2,10.5,1.5,14.3-2.4c3-3,10.8-10.8,15.4-15.4c4.6,2.2,10.4,1.5,14.3-2.4l8.9-8.9l3,3c1.6,1.6,4.3,1.6,5.9,0
		l11.9-11.9c1.6-1.6,1.6-4.3,0-5.9l-8.9-8.9c6.6-6.6,25.2-25.2,26.7-26.7c3.9-3.9,4.6-9.7,2.4-14.3l10.5-10.5c4-4,4.6-9.8,2.4-14.3
		l3.5-3.5c1.6-1.6,1.6-4.3,0-5.9c-1.6-1.6-4.3-1.6-5.9,0l-3.5,3.5c-4.6-2.2-10.5-1.5-14.3,2.4L134.2,447c-4.6-2.2-10.5-1.5-14.3,2.4
		c-9.2,9.2-17.4,17.4-26.7,26.7l-8.9-8.9c-1.6-1.6-4.3-1.6-5.9,0l-11.9,11.9c-1.6,1.6-1.6,4.3,0,5.9l3,3l-8.9,8.9
		c-4,4-4.6,9.8-2.4,14.3c-3.8,3.8-12.8,12.8-15.4,15.4c-3.9,3.9-4.6,9.7-2.4,14.3l-3.5,3.5c-1.6,1.6-1.6,4.3,0,5.9
		c1.6,1.6,4.3,1.6,5.9,0l3-3l5.9,5.9L42.6,562.2z M60.4,550.4l-11.9-11.9c-1.6-1.6-1.6-4.3,0-5.9l3-3l17.8,17.8l-3,3
		C64.8,552.1,62.1,552.1,60.4,550.4z M81.2,535.5l-5.9,5.9l-17.8-17.8l5.9-5.9L81.2,535.5z M116.9,464.2l17.8,17.8l-5.9,5.9
		L111,470.1L116.9,464.2z M150.6,442.4c1.6-1.6,4.3-1.6,5.9,0c1.6,1.6,1.6,4.3,0,5.9l-10,9.9l-5.9-5.9L150.6,442.4z M131.8,455.3
		l11.9,11.9l0,0l0,0l0,0c1.6,1.6,1.6,4.3,0,5.9l-3,3l-17.8-17.8l3-3C127.4,453.7,130.1,453.7,131.8,455.3z M105.1,476.1l17.8,17.8
		l-5.9,5.9L99,482L105.1,476.1z M81.2,476.1l41.5,41.5l-5.9,5.9c-1.4-1.4-38.7-38.7-41.5-41.5L81.2,476.1z M66.4,502.9l8.9-8.9
		l29.7,29.7l-8.9,8.9c-1.6,1.6-4.3,1.6-5.9,0l-23.8-23.8C64.8,507.1,64.8,504.5,66.4,502.9z"/>
	<g id="part6" class="part">
		<path d="M230.1,769.7c1.1-3.8,1.6-7.7,1.6-11.5c0-24.1-19.6-43.7-43.7-43.7s-43.7,19.6-43.7,43.7c0,23.8,19.2,43.3,43,43.7
			c-1,3.7-1.5,7.6-1.5,11.5c0,24.1,19.6,43.7,43.7,43.7s43.7-19.6,43.7-43.7C273.1,789.4,253.9,770.1,230.1,769.7z M188.1,797.2
			c-21.6,0-39.1-17.5-39.1-39.1c0-21.6,17.5-39.1,39.1-39.1s39.1,17.5,39.1,39.1c0,4-0.7,7.8-1.8,11.7c-1.7,0.2-3.5,0.5-5.1,0.8
			c1.5-4,2.4-8.2,2.4-12.5c0-19-15.5-34.5-34.5-34.5s-34.5,15.5-34.5,34.5c0,8.2,3,16.3,8.4,22.6l3.5-3c-4.3-4.8-6.8-10.9-7.3-17.2
			h9.1v-4.6h-9.1c0.1-1.6,0.4-3.2,0.8-4.7l8.6,2.8l1.5-4.4l-8.6-2.8c0.6-1.5,1.4-2.9,2.2-4.3l7.4,5.3l2.7-3.7l-7.4-5.3
			c1.1-1.3,2.1-2.3,3.4-3.4l5.3,7.4l3.7-2.7l-5.3-7.4c1.4-0.9,2.7-1.5,4.3-2.2l2.8,8.6l4.4-1.5l-2.8-8.6c1.5-0.4,3.1-0.6,4.7-0.8
			v9.1h4.6v-9.1c1.6,0.1,3.2,0.4,4.7,0.8l-2.8,8.6l4.4,1.5l2.8-8.6c1.5,0.6,2.9,1.4,4.3,2.2l-5.3,7.4l3.7,2.7l5.3-7.4
			c1.3,1.1,2.3,2.1,3.4,3.4l-7.4,5.3l2.7,3.7l7.4-5.3c0.9,1.4,1.5,2.7,2.2,4.3l-8.6,2.8l1.5,4.4l8.6-2.8c0.4,1.5,0.6,3.1,0.8,4.7
			H209v4.6h9.1c-0.3,4.2-1.5,8.2-3.6,12c-7.9,3-14.8,8.1-19.9,14.8c-2.1,0.5-4.4,0.8-6.4,0.8c-7.2,0-14.1-2.6-19.6-7.4l-3,3.5
			c6.3,5.4,14.3,8.4,22.6,8.4c1,0,2-0.1,3-0.2c-0.9,1.5-1.5,3.1-2.2,4.7C188.6,797.2,188.3,797.2,188.1,797.2z M229.4,852.4
			c-21.6,0-39.1-17.5-39.1-39.1c0-21.6,17.5-39.1,39.1-39.1s39.1,17.5,39.1,39.1S251,852.4,229.4,852.4z"/>
		<path d="M229.4,778.8c-19,0-34.5,15.5-34.5,34.5v2.3h18.4v-2.3c0-8.9,7.3-16.1,16.1-16.1c4.2,0,7.9,1.5,10.8,4.2L229.3,834
			c-3.8,0.1-6.8,3.1-6.8,6.9s3.1,6.9,6.9,6.9c3.8,0,6.9-3.1,6.9-6.9c0-2.2-1.1-4.2-2.7-5.4l10-29.8c1.3,2.2,1.9,4.8,1.9,7.7v2.3
			h18.4v-2.3C263.9,794.3,248.5,778.8,229.4,778.8z M229.4,843.2c-1.3,0-2.3-1.1-2.3-2.3s1.1-2.3,2.3-2.3c1.3,0,2.3,1.1,2.3,2.3
			S230.7,843.2,229.4,843.2z M250,811c-0.5-4.1-2.1-7.7-4.6-10.8l2.3-6.9l-4.4-1.5l-1.6,4.8c-3.5-2.5-7.7-4.1-12.3-4.1
			c-10.7,0-19.4,8-20.5,18.4h-9.2c1.2-15.4,14.1-27.6,29.8-27.6s28.7,12.2,29.8,27.6H250z"/>
		<path d="M268.5,723.7h-18.4v13.8h18.4V723.7z M263.9,732.9h-9.2v-4.6h9.2V732.9z"/>
		<path d="M284.9,729.9l-7.2-7.2v-1.4c0-3.8-3.1-6.9-6.9-6.9h-23c-3.8,0-6.9,3.1-6.9,6.9v30.3c-2.7,1-4.6,3.5-4.6,6.5v6.9h46v-6.9
			c0-3-1.9-5.5-4.6-6.5v-2.7h2.3c3.8,0,6.9-3.1,6.9-6.9v-7.3C286.9,732.9,286.2,731.1,284.9,729.9z M247.8,719h23
			c1.3,0,2.3,1.1,2.3,2.3v29.9h-27.6v-29.9C245.5,720.1,246.5,719,247.8,719z M277.7,760.5h-36.8v-2.3c0-1.3,1.1-2.3,2.3-2.3h32.2
			c1.3,0,2.3,1.1,2.3,2.3V760.5z M282.3,742.1c0,1.3-1.1,2.3-2.3,2.3h-2.3v-15.1l4,4c0.4,0.4,0.7,1.1,0.7,1.6L282.3,742.1
			L282.3,742.1z"/>
		<path d="M188.1,783.4c3.8,0,6.9-3.1,6.9-6.9c0-3-1.9-5.5-4.6-6.5v-23.4h-4.6v23.4c-2.7,1-4.6,3.5-4.6,6.5
			C181.2,780.3,184.3,783.4,188.1,783.4z M188.1,774.2c1.3,0,2.3,1.1,2.3,2.3s-1.1,2.3-2.3,2.3c-1.3,0-2.3-1.1-2.3-2.3
			S186.8,774.2,188.1,774.2z"/>
	</g>
	<g id="part5" class="part">
		<path d="M506.5,924c2.5-0.2,4.7-1.5,6.2-3.5l22.4-31c0.7-1,0.6-2.2-0.3-3.1c-0.9-0.9-2.1-1-3.1-0.3l-31,22.5
			c-2,1.5-3.3,3.8-3.5,6.2c-0.2,2.4,0.7,4.9,2.5,6.7c1.6,1.6,3.8,2.5,6,2.5C506,924,506.3,924,506.5,924z M502.1,915.2
			c0.1-1.1,0.7-2.1,1.5-2.7l18.9-13.7l-13.7,18.9c-0.7,0.9-1.6,1.5-2.7,1.5c-1.1,0.1-2.1-0.3-2.9-1.1
			C502.4,917.4,502,916.3,502.1,915.2z"/>
		<path d="M560.1,879.9c0-0.1,0-0.1-0.1-0.2l-0.1-0.1c-2.4-4.2-5.3-8-8.5-11.5l5.1-5.1l3.4,3.4l10.2-10.2L560,846l-10.2,10.2
			l3.4,3.4l-5.1,5.1c-3.5-3.3-7.4-6.1-11.5-8.5l-0.1-0.1c-0.1,0-0.1,0-0.2-0.1c-7.4-4.3-15.7-7.1-24.6-8.1V845h3.6c3.3,0,6-2.7,6-6
			c0-3.3-2.7-6-6-6h-21.5c-3.3,0-6,2.7-6,6c0,3.3,2.7,6,6,6h3.6v2.8c-2.6,0.3-5.1,0.7-7.7,1.3c-1.3,0.3-2.1,1.5-1.8,2.9
			c0.3,1.3,1.5,2.1,2.9,1.8c2.2-0.5,4.5-0.9,6.7-1.2l2.6-0.2c0.8-0.1,1.5-0.1,2.2-0.1v4.7c0,1.4,1.1,2.4,2.4,2.4
			c1.4,0,2.4-1.1,2.4-2.4v-4.7c9,0.4,17.5,2.8,25,6.8l-2.3,4.1c-0.7,1.2-0.3,2.6,0.9,3.3c0.4,0.2,0.8,0.3,1.2,0.3
			c0.9,0,1.6-0.4,2-1.2l2.3-4.1c7.5,4.7,13.8,11.1,18.6,18.6l-4.1,2.3c-1.2,0.7-1.5,2.1-0.9,3.3c0.5,0.8,1.3,1.2,2,1.2
			c0.4,0,0.8-0.1,1.2-0.3l4.1-2.3c4.1,7.7,6.5,16.3,6.8,25.5H559c-1.4,0-2.4,1.1-2.4,2.4s1.1,2.4,2.4,2.4h4.7
			c-0.4,9.1-2.8,17.7-6.8,25.5l-4.1-2.3c-1.2-0.7-2.6-0.3-3.3,0.9c-0.7,1.2-0.3,2.6,0.9,3.3l4.1,2.3c-4.7,7.5-11.1,13.8-18.6,18.6
			l-2.3-4.1c-0.7-1.2-2.1-1.5-3.3-0.9c-1.2,0.7-1.5,2.1-0.9,3.3l2.3,4.1c-7.6,4-16.1,6.4-25,6.8v-4.7c0-1.4-1.1-2.4-2.4-2.4
			s-2.4,1.1-2.4,2.4v4.7c-3.8-0.1-7.7-0.6-11.4-1.5c-1.3-0.3-2.6,0.5-2.9,1.8c-0.3,1.3,0.5,2.6,1.8,2.9c4.7,1.1,9.7,1.6,14.5,1.6
			c0.1,0,0.2,0,0.4,0l0,0c0,0,0,0,0.1,0c11.5-0.1,22.3-3.2,31.7-8.5c0.1,0,0.2-0.1,0.2-0.1l0.1-0.1c9.7-5.6,17.7-13.8,23.4-23.3
			c0-0.1,0.1-0.1,0.1-0.2c0-0.1,0-0.1,0.1-0.2c5.4-9.5,8.6-20.4,8.6-32.2C568.8,900.3,565.6,889.4,560.1,879.9z M560,852.8l3.4,3.4
			l-3.4,3.4l-3.4-3.4L560,852.8z M502.1,847.4v-7.3h-8.4c-0.7,0-1.2-0.6-1.2-1.2c0-0.6,0.6-1.2,1.2-1.2h21.5c0.7,0,1.2,0.6,1.2,1.2
			c0,0.6-0.6,1.2-1.2,1.2h-8.4v7.3c-0.9,0-1.6-0.1-2.4-0.1c-0.1,0-0.1,0-0.2,0c-0.1,0-0.1,0-0.2,0c-0.4,0-0.8,0-1.2,0
			C502.6,847.4,502.3,847.4,502.1,847.4z"/>
		<path d="M483,866.6h-12c-1.4,0-2.4,1.1-2.4,2.4s1.1,2.4,2.4,2.4h12c1.4,0,2.4-1.1,2.4-2.4C485.3,867.7,484.2,866.6,483,866.6z"/>
		<path d="M483,883.4H459c-1.4,0-2.4,1.1-2.4,2.4s1.1,2.4,2.4,2.4H483c1.4,0,2.4-1.1,2.4-2.4C485.3,884.4,484.2,883.4,483,883.4z"/>
		<path d="M483,900.1H447c-1.4,0-2.4,1.1-2.4,2.4s1.1,2.4,2.4,2.4H483c1.4,0,2.4-1.1,2.4-2.4S484.2,900.1,483,900.1z"/>
		<path d="M483,916.9h-45.5c-1.4,0-2.4,1.1-2.4,2.4c0,1.4,1.1,2.4,2.4,2.4H483c1.4,0,2.4-1.1,2.4-2.4
			C485.3,917.9,484.2,916.9,483,916.9z"/>
		<path d="M483,933.6h-31.1c-1.4,0-2.4,1.1-2.4,2.4c0,1.4,1.1,2.4,2.4,2.4H483c1.4,0,2.4-1.1,2.4-2.4
			C485.3,934.7,484.2,933.6,483,933.6z"/>
		<path d="M483,950.4h-16.8c-1.4,0-2.4,1.1-2.4,2.4s1.1,2.4,2.4,2.4H483c1.4,0,2.4-1.1,2.4-2.4S484.2,950.4,483,950.4z"/>
	</g>
	<g id="part4" class="part">
		<g>
			<g>
				<circle cx="820.9" cy="756.8" r="2.3"/>
			</g>
		</g>
		<g>
			<g>
				<g>
					<path d="M807.6,776.5L807.6,776.5L807.6,776.5z"/>
					<path d="M801.2,770.1C801.1,770.1,801.2,770.1,801.2,770.1L801.2,770.1z"/>
					<path d="M855.5,751.7h-2.8c-0.9-3.7-2.3-7.2-4.4-10.5l2-2c2.2-2.2,2.2-5.9,0-8.1l-4.6-4.6c-2.2-2.2-5.9-2.2-8.1,0l-2,2
						c-3.3-1.9-6.8-3.4-10.5-4.4v-2.8c0-3.2-2.6-5.8-5.8-5.8h-6.5c-3.2,0-5.8,2.6-5.8,5.8v2.8c-3.7,0.9-7.2,2.3-10.5,4.4l-2-2
						c-2.2-2.2-5.9-2.2-8.1,0l-4.6,4.6c-2.2,2.2-2.2,5.9,0,8.1l2,2c-1.9,3.3-3.4,6.8-4.4,10.5h-2.8c-3.2,0-5.8,2.6-5.8,5.8v6.5
						c0,3.2,2.6,5.8,5.8,5.8h2.8c0.9,3.7,2.3,7.2,4.3,10.4l0.5,0.9l-38.3,38.3c-7.5-2.7-16-0.9-21.6,4.8c-5.7,5.7-7.6,14.3-4.6,22
						c0.3,0.7,0.9,1.2,1.5,1.3c0.7,0.2,1.5-0.1,1.9-0.6l10.8-10.8l5.3,2.2l2.3,5.5L731,854.5c-0.5,0.5-0.7,1.3-0.6,1.9
						c0.2,0.7,0.7,1.3,1.3,1.5c2.4,1,4.9,1.4,7.4,1.4c5.3,0,10.7-2.1,14.6-6c5.6-5.6,7.5-14.1,4.8-21.6l7.1-7.1c0.8-0.8,0.8-2.1,0-3
						c-0.8-0.8-2.1-0.8-3,0l-8,8c-0.6,0.6-0.8,1.5-0.4,2.3c2.7,6.2,1.4,13.5-3.4,18.3c-3.8,3.8-9.1,5.4-14.2,4.6l9.2-9.2
						c0.6-0.6,0.8-1.5,0.5-2.3l-3.2-7.6c-0.2-0.5-0.6-0.9-1.2-1.2l-7.4-3c-0.8-0.3-1.6-0.1-2.3,0.5l-9.2,9.2
						c-0.8-5.1,0.9-10.5,4.6-14.2c4.7-4.7,12.1-6.1,18.3-3.4c0.8,0.4,1.7,0.2,2.3-0.4l53.1-53.1c0.6-0.6,0.8-1.5,0.4-2.3
						c-2.7-6.2-1.4-13.5,3.4-18.3c3.8-3.8,9.1-5.4,14.2-4.6l0,0l-9.2,9.2c0,0,0,0,0,0.1l0,0l0,0c0,0,0,0,0,0.1l0,0l0,0l0,0l0,0l0,0
						l0,0l0,0l0,0l0,0l0,0l0,0l0,0l0,0l0,0l0,0l0,0l0,0l0,0l0,0l0,0l0,0l0,0l0,0l0,0l0,0l0,0l0,0l0,0l0,0l0,0l0,0l0,0l0,0l0,0l0,0
						l0,0l0,0l0,0l0,0l0,0l0,0l0,0l0,0l0,0l0,0l0,0l0,0l0,0l0,0l0,0l0,0l0,0l0,0l0,0l0,0l0,0l0,0l0,0l0,0l0,0l0,0l0,0l0,0l0,0l0,0
						l0,0l0,0l0,0l0,0l0,0l0,0l0,0l0,0l0,0l0,0l0,0l0,0l0,0l0,0l0,0l0,0l0,0l0,0l0,0l0,0l0,0l0,0l0,0l0,0l0,0l0,0l0,0l0,0l0,0l0,0
						l0,0l0,0l0,0l0,0l0,0l0,0l0,0l0,0l0,0l0,0l0,0l0,0l0,0l0,0l0,0l0,0l0,0l0,0l0,0l0,0l0,0l0,0l0,0l0,0l0,0l3.1,7.4
						c0.2,0.5,0.6,0.9,1.1,1.2l7.6,3.3c0.8,0.4,1.7,0.2,2.3-0.5l9.2-9.2c0.8,5.1-0.9,10.5-4.6,14.2c-4.7,4.7-12.1,6.1-18.3,3.4
						c-0.8-0.4-1.7-0.2-2.3,0.4l-39,39c-0.8,0.8-0.8,2.1,0,3c0.8,0.8,2.1,0.8,3,0l25.5-25.5c3.2,1.8,6.6,3.3,10.2,4.2v2.8
						c0,3.2,2.6,5.8,5.8,5.8h6.5c3.2,0,5.8-2.6,5.8-5.8v-2.8c3.7-0.9,7.2-2.3,10.5-4.4l2,2c1.1,1.1,2.5,1.6,4.1,1.6s3-0.6,4.1-1.6
						l4.6-4.6c1.1-1.1,1.6-2.5,1.6-4.1c0-1.5-0.6-3-1.6-4.1l-2-2c1.9-3.3,3.4-6.8,4.4-10.5h2.8c3.2,0,5.8-2.6,5.8-5.8v-6.5
						C861.3,754.3,858.7,751.7,855.5,751.7z M825.9,759.4l-4.3,4.3l-5.5-2.5l-2.2-5.1l5.2-5.2l5.9,1.7l1.7,5.9L825.9,759.4z
						 M857.1,764c0,0.9-0.7,1.5-1.5,1.5h-3.9c-1.4,0-2.5,1-2.8,2.2c-0.9,4-2.4,7.7-4.6,11c-0.7,1.2-0.6,2.6,0.4,3.6l2.7,2.7
						c0.3,0.3,0.5,0.7,0.5,1.2c0,0.4-0.2,0.9-0.5,1.2l-4.6,4.6c-0.6,0.6-1.6,0.6-2.2,0l-2.7-2.7c-1-1-2.4-1.1-3.6-0.4
						c-3.4,2.2-7.1,3.7-11,4.6c-1.4,0.3-2.2,1.5-2.2,2.8v3.9c0,0.9-0.7,1.5-1.5,1.5H813c-0.9,0-1.5-0.7-1.5-1.5v-3.9
						c0-1.4-1-2.5-2.2-2.8c-3.2-0.7-6.2-1.8-9-3.4l4-4c3.8,1.8,7.9,2.7,12.1,2.7c13.5,0,25-9.6,27.6-22.7c0.2-1.2-0.5-2.2-1.6-2.4
						c-1.2-0.2-2.2,0.5-2.4,1.6c-2.2,11.2-12.1,19.3-23.4,19.3c-3.1,0-6.1-0.6-8.9-1.7l2.4-2.4c7.5,2.7,16,0.9,21.6-4.8
						c5.7-5.7,7.6-14.3,4.6-22c-0.3-0.7-0.9-1.2-1.5-1.3c-0.7-0.2-1.5,0.1-1.9,0.6l-2.1,2.1l-1.5-4.8c-0.2-0.7-0.8-1.2-1.4-1.4
						l-4.8-1.5l2.1-2.1c0.5-0.5,0.7-1.3,0.6-1.9c-0.2-0.7-0.7-1.3-1.3-1.5c-7.6-2.9-16.2-1.1-22,4.6c-5.6,5.6-7.5,14.1-4.8,21.6
						l-2.8,2.8c-1.5-3.2-2.2-6.6-2.2-10.2c0-13.2,10.8-23.9,23.9-23.9c12,0,22.2,8.9,23.7,20.8c0.2,1.2,1.2,1.9,2.3,1.8
						c1.2-0.2,1.9-1.2,1.8-2.3c-1.8-13.9-13.8-24.5-27.9-24.5c-15.5,0-28.1,12.6-28.1,28.1c0,4.6,1.2,9.2,3.3,13.3l-4,4
						c-1.8-3.1-3.2-6.6-4-10.1c-0.3-1.4-1.5-2.2-2.8-2.2H777c-0.9,0-1.5-0.7-1.5-1.5v-6.5c0-0.9,0.7-1.5,1.5-1.5h3.9
						c1.4,0,2.5-1,2.8-2.2c0.9-4,2.4-7.7,4.6-11c0.7-1.2,0.6-2.6-0.4-3.6l-2.7-2.7c-0.6-0.6-0.6-1.6,0-2.2l4.6-4.6
						c0.6-0.6,1.6-0.6,2.2,0l2.7,2.7c1,1,2.4,1.1,3.6,0.4c3.4-2.2,7.1-3.7,11-4.6c1.3-0.3,2.2-1.5,2.2-2.8v-3.9
						c0-0.9,0.7-1.5,1.5-1.5h6.5c0.9,0,1.5,0.7,1.5,1.5v3.9c0,1.4,1,2.5,2.2,2.8c3.9,0.9,7.7,2.4,11,4.6c1.2,0.7,2.6,0.6,3.6-0.4
						l2.7-2.7c0.6-0.6,1.6-0.6,2.2,0l4.6,4.6c0.6,0.6,0.6,1.6,0,2.2l-2.7,2.7c-1,1-1.1,2.4-0.4,3.6c2.2,3.4,3.7,7.1,4.6,11
						c0.3,1.4,1.5,2.2,2.8,2.2h3.9c0.9,0,1.5,0.7,1.5,1.5L857.1,764L857.1,764z"/>
				</g>
			</g>
		</g>
		<g>
			<g>
				<path d="M761.1,757h-1.2c-0.2-0.7-0.5-1.3-0.8-1.8l0.9-0.9c1.3-1.3,1.3-3.2,0-4.5l-3.7-3.7c-0.6-0.6-1.4-0.9-2.2-0.9
					c-0.9,0-1.6,0.3-2.2,0.9L751,747c-0.6-0.3-1.3-0.6-1.8-0.8v-1.2c0-1.7-1.5-3.1-3.1-3.1H741c-1.7,0-3.1,1.5-3.1,3.1v1.2
					c-0.7,0.2-1.3,0.5-1.8,0.8l-0.9-0.9c-0.6-0.6-1.4-1-2.2-1c-0.9,0-1.6,0.3-2.2,0.9l-3.7,3.7c-1.3,1.3-1.3,3.2,0,4.5l0.9,0.9
					c-0.3,0.6-0.6,1.3-0.8,1.8H726c-1.7,0-3.1,1.5-3.1,3.1v5.1c0,1.7,1.5,3.1,3.1,3.1h1.2c0.2,0.7,0.5,1.3,0.8,1.8l-0.9,0.9
					c-1.3,1.3-1.3,3.2,0,4.5l3.7,3.7c0.6,0.6,1.4,0.9,2.2,0.9c0.9,0,1.6-0.3,2.2-0.9l0.9-0.9c0.6,0.3,1.3,0.6,1.8,0.8v1.2
					c0,1.7,1.5,3.1,3.1,3.1h5.1c1.7,0,3.1-1.5,3.1-3.1V779c0.7-0.2,1.3-0.5,1.8-0.8l0.9,0.9c0.6,0.6,1.4,1,2.2,1
					c0.9,0,1.6-0.3,2.2-0.9l3.7-3.7c1.3-1.3,1.3-3.2,0-4.5l-0.9-0.9c0.3-0.6,0.6-1.3,0.8-1.8h1.2c1.7,0,3.1-1.5,3.1-3.1v-5.1
					C764.3,758.4,762.8,757,761.1,757z M760,764.2h-1.6c-1,0-1.8,0.7-2,1.6c-0.3,1.4-0.9,2.6-1.5,3.8c-0.5,0.9-0.4,1.8,0.3,2.6
					l1.2,1.2l-2.1,2.1l-1.2-1.2c-0.7-0.7-1.7-0.8-2.6-0.3c-1.2,0.7-2.4,1.3-3.8,1.5c-1,0.2-1.6,1.1-1.6,2v1.6h-3.1v-1.6
					c0-1-0.7-1.8-1.6-2c-1.4-0.3-2.6-0.9-3.8-1.5c-0.9-0.5-1.8-0.4-2.6,0.3l-1.2,1.2l-2.1-2.1l1.2-1.2c0.7-0.7,0.8-1.7,0.3-2.6
					c-0.7-1.2-1.3-2.4-1.5-3.8c-0.2-1-1.1-1.6-2-1.6h-1.6v-3.1h1.6c1,0,1.8-0.7,2-1.6c0.3-1.4,0.9-2.6,1.5-3.8
					c0.5-0.9,0.4-1.8-0.3-2.6l-1.2-1.2l2.1-2.1l1.2,1.2c0.7,0.7,1.7,0.8,2.6,0.3c1.2-0.7,2.4-1.3,3.8-1.5c1-0.2,1.6-1.1,1.6-2V746
					h3.1v1.6c0,1,0.7,1.8,1.6,2c1.4,0.3,2.6,0.9,3.8,1.5c0.9,0.5,1.8,0.4,2.6-0.3l1.2-1.2l2.1,2.1l-1.2,1.2
					c-0.7,0.7-0.8,1.7-0.3,2.6c0.7,1.2,1.3,2.4,1.5,3.8c0.2,1,1.1,1.6,2,1.6h1.6V764.2L760,764.2z"/>
			</g>
		</g>
		<g>
			<g>
				<path d="M743.5,752.5c-5.6,0-10.2,4.6-10.2,10.2c0,5.6,4.6,10.2,10.2,10.2c5.6,0,10.2-4.6,10.2-10.2
					C753.6,757.1,749.1,752.5,743.5,752.5z M743.5,768.7c-3.3,0-6-2.7-6-6c0-3.3,2.7-6,6-6c3.3,0,6,2.7,6,6
					C749.5,766.1,746.8,768.7,743.5,768.7z"/>
			</g>
		</g>
		<g>
			<g>
				<path d="M834.3,826.2h-1.2c-0.2-0.7-0.5-1.3-0.8-1.8l0.9-0.9c1.3-1.3,1.3-3.2,0-4.5l-3.7-3.7c-0.6-0.6-1.4-0.9-2.2-0.9
					c-0.9,0-1.6,0.3-2.2,0.9l-0.9,0.9c-0.6-0.3-1.3-0.6-1.8-0.8v-1.2c0-1.7-1.5-3.1-3.1-3.1h-5.1c-1.7,0-3.1,1.5-3.1,3.1v1.2
					c-0.7,0.2-1.3,0.5-1.8,0.8l-0.9-0.9c-0.6-0.6-1.4-1-2.2-1c-0.9,0-1.6,0.3-2.2,0.9l-3.7,3.7c-1.3,1.3-1.3,3.2,0,4.5l0.9,0.9
					c-0.3,0.6-0.6,1.3-0.8,1.8h-1.2c-1.7,0-3.1,1.5-3.1,3.1v5.1c0,1.7,1.5,3.1,3.1,3.1h1.2c0.2,0.7,0.5,1.3,0.8,1.8l-0.9,0.9
					c-1.3,1.3-1.3,3.2,0,4.5l3.7,3.7c0.6,0.6,1.4,0.9,2.2,0.9s1.6-0.3,2.2-0.9l0.9-0.9c0.6,0.3,1.3,0.6,1.8,0.8v1.2
					c0,1.7,1.5,3.1,3.1,3.1h5.1c1.7,0,3.1-1.5,3.1-3.1v-1.2c0.7-0.2,1.3-0.5,1.8-0.8l0.9,0.9c0.6,0.6,1.4,1,2.2,1s1.6-0.3,2.2-0.9
					l3.7-3.7c1.3-1.3,1.3-3.2,0-4.5l-0.9-0.9c0.3-0.6,0.6-1.3,0.8-1.8h1.2c1.7,0,3.1-1.5,3.1-3.1v-5.1
					C837.4,827.7,836,826.2,834.3,826.2z M833.3,833.5h-1.6c-1,0-1.8,0.7-2,1.6c-0.3,1.4-0.9,2.6-1.5,3.8c-0.5,0.9-0.4,1.8,0.3,2.6
					l1.2,1.2l-2.1,2.1l-1.2-1.2c-0.7-0.7-1.7-0.8-2.6-0.3c-1.2,0.7-2.4,1.3-3.8,1.5c-1,0.2-1.6,1.1-1.6,2v1.6h-3.1V847
					c0-1-0.7-1.8-1.6-2c-1.4-0.3-2.6-0.9-3.8-1.5c-0.9-0.5-1.8-0.4-2.6,0.3l-1.2,1.2l-2.1-2.1l1.2-1.2c0.7-0.7,0.8-1.7,0.3-2.6
					c-0.7-1.2-1.3-2.4-1.5-3.8c-0.2-1-1.1-1.6-2-1.6h-1.6v-3.1h1.6c1,0,1.8-0.7,2-1.6c0.3-1.4,0.9-2.6,1.5-3.8
					c0.5-0.9,0.4-1.8-0.3-2.6l-1.2-1.2l2.1-2.1l1.2,1.2c0.7,0.7,1.7,0.8,2.6,0.3c1.2-0.7,2.4-1.3,3.8-1.5c1-0.2,1.6-1.1,1.6-2v-1.6
					h3.1v1.6c0,1,0.7,1.8,1.6,2c1.4,0.3,2.6,0.9,3.8,1.5c0.9,0.5,1.8,0.4,2.6-0.3l1.2-1.2l2.1,2.1l-1.2,1.2
					c-0.7,0.7-0.8,1.7-0.3,2.6c0.7,1.2,1.3,2.4,1.5,3.8c0.2,1,1.1,1.6,2,1.6h1.6V833.5z"/>
			</g>
		</g>
		<g>
			<g>
				<path d="M816.6,821.8c-5.6,0-10.2,4.6-10.2,10.2c0,5.6,4.6,10.2,10.2,10.2c5.6,0,10.2-4.6,10.2-10.2
					C826.8,826.3,822.2,821.8,816.6,821.8z M816.6,838c-3.3,0-6-2.7-6-6c0-3.3,2.7-6,6-6c3.3,0,6,2.7,6,6
					C822.6,835.3,819.9,838,816.6,838z"/>
			</g>
		</g>
	</g>
	<g id="part3" class="part">
		<path d="M907.3,434.8c-36.5,0-66.3,29.8-66.3,66.3c0,36.5,29.8,66.3,66.3,66.3s66.3-29.8,66.3-66.3S943.8,434.8,907.3,434.8z
			 M939.8,549.8l-2-3.5c-1.1-1.8-3.5-2.5-5.3-1.5s-2.5,3.5-1.5,5.3l2,3.5c-6.7,3.3-14.1,5.4-22,5.9v-4c0-2.1-1.7-3.9-3.9-3.9
			s-3.9,1.7-3.9,3.9v4c-7.8-0.5-15.3-2.6-22-5.9l2-3.5c1.1-1.8,0.5-4.3-1.5-5.3c-1.8-1.1-4.3-0.5-5.3,1.5l-2,3.5
			c-6.4-4.3-11.8-9.8-16.1-16.1l3.5-2c1.8-1.1,2.5-3.5,1.5-5.3s-3.5-2.5-5.3-1.5l-3.5,2c-3.3-6.7-5.4-14.1-5.9-22h4
			c2.1,0,3.9-1.7,3.9-3.9c0-2.1-1.7-3.9-3.9-3.9h-4c0.5-7.8,2.6-15.3,5.9-22l3.5,2c1.8,1.1,4.3,0.5,5.3-1.5c1.1-1.8,0.5-4.3-1.5-5.3
			l-3.5-2c4.3-6.4,9.8-11.8,16.1-16.1l2,3.5c1.1,1.8,3.5,2.5,5.3,1.5s2.5-3.5,1.5-5.3l-2-3.5c6.7-3.3,14.1-5.4,22-5.9v4
			c0,2.1,1.7,3.9,3.9,3.9s3.9-1.7,3.9-3.9v-4c7.8,0.5,15.3,2.6,22,5.9l-2,3.5c-1.1,1.8-0.5,4.3,1.5,5.3c1.8,1.1,4.3,0.5,5.3-1.5
			l2-3.5c6.4,4.3,11.8,9.8,16.1,16.1l-3.5,2c-1.8,1.1-2.5,3.5-1.5,5.3s3.5,2.5,5.3,1.5l3.5-2c3.3,6.7,5.4,14.1,5.9,22h-4
			c-2.1,0-3.9,1.7-3.9,3.9c0,2.1,1.7,3.9,3.9,3.9h4c-0.5,7.8-2.6,15.3-5.9,22l-3.5-2c-1.8-1.1-4.3-0.5-5.3,1.5
			c-1.1,1.8-0.5,4.3,1.5,5.3l3.5,2C951.6,540,946.2,545.6,939.8,549.8z"/>
		<path d="M907.3,458.4c-23.6,0-42.8,19.2-42.8,42.8c0,23.6,19.2,42.8,42.8,42.8c23.6,0,42.8-19.2,42.8-42.8
			C950,477.6,930.8,458.4,907.3,458.4z M907.3,536.2c-19.3,0-35-15.7-35-35s15.7-35,35-35c19.3,0,35,15.7,35,35
			S926.5,536.2,907.3,536.2z"/>
		<path d="M907.3,473.9c-15,0-27.2,12.2-27.2,27.2c0,15,12.2,27.2,27.2,27.2c15,0,27.2-12.2,27.2-27.2
			C934.5,486.1,922.3,473.9,907.3,473.9z M923.4,511.9l-5.7-5.7c0.2-0.4,0.3-0.8,0.5-1.2h8C925.7,507.5,924.8,509.8,923.4,511.9z
			 M891,490.5l5.7,5.7c-0.2,0.4-0.3,0.8-0.5,1.2h-8C888.7,494.8,889.6,492.5,891,490.5z M910,503.9L910,503.9
			c-0.7,0.7-1.6,1.2-2.7,1.2s-2-0.4-2.7-1.2l0,0l0,0c-0.7-0.7-1.2-1.6-1.2-2.7c0-1.1,0.4-2,1.2-2.7l0,0l0,0c0.7-0.7,1.6-1.2,2.7-1.2
			s2,0.4,2.7,1.2l0,0l0,0c0.7,0.7,1.2,1.6,1.2,2.7C911.1,502.2,910.6,503.1,910,503.9L910,503.9z M912.2,490.7
			c-0.4-0.2-0.8-0.3-1.2-0.5v-8c2.5,0.5,4.7,1.5,6.8,2.8L912.2,490.7z M903.3,490.2c-0.4,0.1-0.8,0.3-1.2,0.5l-5.7-5.7
			c2-1.4,4.4-2.3,6.8-2.8L903.3,490.2L903.3,490.2z M888.2,505h8c0.1,0.4,0.3,0.8,0.5,1.2l-5.7,5.7
			C889.6,509.8,888.7,507.5,888.2,505z M902.2,511.7c0.4,0.2,0.8,0.3,1.2,0.5v8c-2.5-0.5-4.7-1.5-6.8-2.8L902.2,511.7z M911.1,512.2
			c0.4-0.1,0.8-0.3,1.2-0.5l5.7,5.7c-2,1.4-4.4,2.3-6.8,2.8L911.1,512.2L911.1,512.2z M918.2,497.2c-0.1-0.4-0.3-0.8-0.5-1.2
			l5.7-5.7c1.4,2,2.3,4.4,2.8,6.8L918.2,497.2L918.2,497.2z"/>
	</g>
	<g id="part2" class="part">
		<g>
			<g>
				<path d="M854.5,157.2l-8.5-8.5c-5.6-5.6-15-5.9-21-0.7l-15,13.1c-0.2,0.2-0.4,0.4-0.5,0.6l-14.6,24.4l-9.4,3.1
					c-0.8,0.3-1.4,1-1.5,1.7c-0.2,0.8,0.1,1.6,0.7,2.2l25.7,25.7c0.5,0.5,1.1,0.7,1.7,0.7c0.2,0,0.4,0,0.6-0.1
					c0.8-0.2,1.5-0.8,1.7-1.5l3.1-9.4l24.8-14.9c0.2-0.1,0.4-0.3,0.6-0.5l12.8-14.7C860.4,172.2,860.1,162.7,854.5,157.2z
					 M851.6,175l-12.5,14.4l-25.2,15.2c-0.5,0.3-0.9,0.8-1.1,1.3l-2.2,6.6l-5.8-5.8l0,0l-8.5-8.5l0,0l-5.8-5.8l6.6-2.2
					c0.6-0.2,1-0.6,1.4-1.1l14.9-24.9l14.7-12.8c4.1-3.6,10.6-3.4,14.4,0.5l8.5,8.5C854.9,164.5,855.1,170.9,851.6,175z"/>
			</g>
		</g>
		<g>
			<g>
				<path d="M847.6,241.4c-7.1-7.1-17.5-9.6-27-6.5l-51.3-51.4c3.1-9.5,0.6-20-6.5-27c-7.5-7.5-18.7-9.8-28.6-6
					c-0.8,0.3-1.4,1-1.5,1.7c-0.2,0.8,0.1,1.6,0.7,2.2l15.4,15.4l-10.3,10.3l-15.4-15.4c-0.6-0.6-1.5-0.8-2.2-0.7
					c-0.8,0.2-1.5,0.7-1.7,1.5c-3.9,9.9-1.5,21,6,28.6c7.1,7.1,17.5,9.6,27,6.5l19.2,19.2l-23.9,23.9l-15.2,8.5
					c-0.4,0.2-0.8,0.6-1,1.1l-6.9,13.7c-0.5,1-0.3,2,0.5,2.8l8.5,8.5c0.5,0.5,1.1,0.7,1.7,0.7c0.4,0,0.8-0.1,1.1-0.3l13.7-6.9
					c0.4-0.2,0.8-0.6,1.1-1l8.5-15.2l23.9-23.9l20.2,20.2c-3.1,9.5-0.6,20,6.5,27c5.1,5.1,11.9,7.7,18.8,7.7c3.3,0,6.6-0.6,9.7-1.8
					c0.8-0.3,1.4-1,1.5-1.7c0.2-0.8-0.1-1.6-0.7-2.2L824,265.4l10.3-10.3l15.4,15.4c0.6,0.6,1.5,0.9,2.2,0.7s1.5-0.7,1.7-1.5
					C857.5,260.1,855,248.8,847.6,241.4z M755.7,252.5c-0.2,0.2-0.3,0.3-0.4,0.5l-8.3,14.8l-11.4,5.7l-6.1-6.1l5.7-11.4l14.8-8.3
					c0.2-0.1,0.4-0.3,0.5-0.4l24.2-24.2l5.1,5.1L755.7,252.5z M850.1,264.4L836,250.2c-1-1-2.5-1-3.4,0l-13.7,13.7
					c-0.5,0.5-0.7,1.1-0.7,1.7s0.3,1.3,0.7,1.7l14.2,14.2c-7.1,1.4-14.4-0.8-19.7-6c-6.1-6.1-8-15.3-4.8-23.3
					c0.4-0.9,0.1-1.9-0.6-2.6L754.5,196c-0.5-0.5-1.1-0.7-1.7-0.7c-0.3,0-0.6,0.1-0.9,0.2c-8,3.2-17.2,1.3-23.3-4.8
					c-5.2-5.2-7.4-12.6-6-19.7l14.2,14.2c1,1,2.5,1,3.4,0l13.7-13.7c1-1,1-2.5,0-3.4L739.6,154c7.1-1.4,14.4,0.8,19.7,6
					c6.1,6.1,8,15.3,4.8,23.3c-0.4,0.9-0.1,1.9,0.6,2.6l53.6,53.6c0.7,0.7,1.7,0.9,2.6,0.6c8-3.2,17.2-1.3,23.3,4.8
					C849.4,250,851.6,257.3,850.1,264.4z"/>
			</g>
		</g>
	</g>
	<g id="part1" class="part">
		<path d="M543.2,42.4c-22.7-22.2-58.9-22.2-81.5,0c-10.5,10.3-16.8,24-17.7,38.6c-0.5,7.9,0.7,16,3.5,23.4
			c2.8,7.5,7.3,14.4,13.4,20.9l40.3,42.2c0.7,0.8,1.9,0.8,2.7,0.1c0,0,0,0,0.1-0.1l40.3-42.2c6.1-6.4,10.7-13.5,13.4-20.9
			c2.8-7.5,4-15.5,3.5-23.4C560,66.5,553.6,52.7,543.2,42.4z M553.8,103.2c-2.6,7-6.8,13.6-12.6,19.6l-38.9,40.8l-38.9-40.8
			c-5.7-6-10-12.6-12.6-19.6c-2.6-7-3.8-14.4-3.3-21.9c1-13.7,6.9-26.5,16.6-36.2c21.2-20.7,55.1-20.7,76.2,0
			c9.8,9.6,15.7,22.5,16.6,36.2C557.6,88.7,556.5,96.2,553.8,103.2z"/>
		<path d="M502.4,40.8c-22.8,0-41.3,18.5-41.3,41.3s18.5,41.3,41.3,41.3c22.8,0,41.3-18.5,41.3-41.3S525.2,40.8,502.4,40.8z
			 M502.4,119.6c-20.7,0-37.5-16.8-37.5-37.5s16.8-37.5,37.5-37.5s37.5,16.8,37.5,37.5C539.9,102.8,523.1,119.5,502.4,119.6z"/>
		<path d="M497.6,82.3c0-1.1-0.9-1.9-1.9-1.9h-4.4V56.2c0-1.1-0.9-1.9-1.9-1.9s-1.9,0.9-1.9,1.9l0,0v24.2h-4.4
			c-1.1,0-1.9,0.9-1.9,1.8c0,1.1,0.9,1.9,1.8,1.9l-1.4,4.7c-0.1,0.2-0.1,0.4-0.1,0.5v14.4c0,3.4,2.7,6.1,6.1,6.1h3.4
			c3.4,0,6.1-2.7,6.1-6.1V89.5c0-0.2,0-0.4-0.1-0.5l-1.4-4.7C496.7,84.3,497.6,83.4,497.6,82.3z M493.4,104c0,1.3-1.1,2.3-2.3,2.3
			h-3.4c-1.3,0-2.3-1.1-2.3-2.3V89.8l1.6-5.5h4.6l1.6,5.5L493.4,104z"/>
		<path d="M516,54.2c-1-0.5-2-0.1-2.5,0.9c-0.1,0.3-0.2,0.6-0.2,0.9v5.7l-3.3,2.2l-3.4-2.4V56c0-1.1-0.9-1.9-1.8-1.9
			c-0.3,0-0.6,0.1-0.9,0.2c-4.6,2.3-7.6,7.1-7.6,12.2c0,5.2,3,10,7.7,12.3v25.4c0,3.3,2.7,6,6,6s6-2.7,6-6l0,0V78.8
			c6.8-3.3,9.6-11.5,6.3-18.3C520.8,57.8,518.6,55.6,516,54.2L516,54.2z M513.4,75.7c-0.8,0.3-1.3,1-1.3,1.7V104
			c0,1.3-1,2.2-2.2,2.2c-1.3,0-2.2-1-2.2-2.2V77.5c0-0.8-0.5-1.5-1.3-1.7c-5.1-1.9-7.7-7.7-5.8-12.7c0.5-1.3,1.2-2.4,2.1-3.4v2.8
			c0,0.6,0.3,1.2,0.8,1.5l5.3,3.7c0.7,0.5,1.5,0.5,2.1,0l5.2-3.5c0.5-0.4,0.9-1,0.9-1.5v-3c3.8,4,3.6,10.2-0.3,13.9
			C515.7,74.6,514.5,75.3,513.4,75.7L513.4,75.7z"/>
	</g>
</g>
<g id="mechanicLogo">
	<path d="M503,519.7c27.1,0,90.8-32.6,90.8-110.8c0-10.9-0.3-21.4-1.2-31.4c-1.5-19.6-5.5-36.9-15.5-50.2
		c-12.8-18.1-35.2-29.2-74.2-29.2s-61.4,11-74.2,29.1c-10,13.3-14,30.7-15.5,50.3c-0.9,10-1.2,20.5-1.2,31.4
		C412.2,487,475.9,519.7,503,519.7z M532.6,338.7c-2.6,6.7-4,10-6.6,16.7c-17.1-4.8-29-4.8-46.1,0c-2.6-6.7-4-10-6.6-16.7
		C494.7,332.2,511.3,332.2,532.6,338.7z M425.7,391.9c1,2.3,5.5,11.1,12.4,11.9c7.9,0.9,21-28,65-28.1c43.9,0.1,57,29,65,28.1
		c6.9-0.8,11.3-9.6,12.4-11.9c0.2,5.6,0.3,11.3,0.3,17c0,38.2-16.9,61.9-31,75c-17.8,16.5-37.6,22.6-46.6,22.6
		c-9,0-28.8-6-46.6-22.6c-14.2-13.1-31-36.8-31-75C425.4,403.2,425.5,397.5,425.7,391.9z"/>
	<path d="M671.6,633.3c-4.6-28.8-14.2-66-33.3-79.2c-13.1-9-58.7-33.4-78.2-43.8l-0.3-0.2c-2.2-1.2-4.9-1-6.9,0.6
		c-10.2,8-21.4,13.4-33.2,16.1c-2.1,0.5-3.8,2-4.6,4L503,562.5l-12.1-31.8c-0.8-2-2.5-3.5-4.6-4c-11.8-2.6-23-8-33.2-16.1
		c-2-1.6-4.7-1.8-6.9-0.6c-19.3,10.3-65.4,35.2-78.5,43.9c-22,14.9-31.7,68.6-33.4,79.2c-0.2,1.1-0.1,2.1,0.3,3.1
		c0.5,1.3,7.8,20.2,44.2,35.4c2.1-2.6,4.9-4.7,8.1-5.8c-3.9-1.4-7.3-4.1-9.5-7.8c-3.2-5.4-3.4-12.3-0.3-17.8
		c9.3-17.1,27.3-27.8,46.7-27.8c18.1,0,34.6,9,44.3,23.7h69.6c1.9-2.9,4.1-5.5,6.6-8c10.1-10.1,23.4-15.7,37.7-15.7l0,0l0,0
		c19.5,0,37.4,10.6,46.8,27.6c3,5.5,2.9,12.4-0.3,17.8c-2.2,3.7-5.5,6.4-9.5,7.8c3.2,1.1,6,3.2,8.2,5.9c36.4-15.2,43.7-34,44.1-35.3
		C671.7,635.4,671.8,634.3,671.6,633.3z"/>
	<path d="M613.1,680.6L613.1,680.6h-33.5c-0.6-1.4-1.7-5.3-1.7-14.7s1.1-13.3,1.7-14.7h33.5c0.8,0,1.5-0.4,1.9-1.1
		c0.4-0.7,0.4-1.5,0-2.2c-6.6-12-19.2-19.5-33-19.5c-10,0-19.5,3.9-26.6,11c-3.7,3.7-6.4,7.9-8.3,12.6h-88.4
		c-5.5-13.8-19.1-23.7-34.9-23.7c-13.7,0-26.4,7.5-32.9,19.6c-0.4,0.7-0.4,1.6,0,2.2c0.4,0.7,1.1,1.1,1.9,1.1l0,0l33.5-0.1
		c0.6,1.4,1.7,5.3,1.7,14.7s-1.1,13.3-1.7,14.7l-33.5,0.1c-0.8,0-1.5,0.4-1.9,1.1c-0.4,0.7-0.4,1.5,0,2.2
		c6.6,12,19.2,19.5,32.9,19.5h0.1c10,0,19.5-3.9,26.6-11c3.7-3.7,6.4-8,8.3-12.6h88.4c5.6,13.8,19.1,23.7,34.9,23.7h0.1
		c13.7,0,26.4-7.5,32.9-19.6c0.4-0.7,0.4-1.6,0-2.2C614.6,681,613.9,680.6,613.1,680.6z"/>
</g>
<line class="st1" x1="507" y1="-19" x2="507" y2="1016"/>
<line class="st1" x1="872.9" y1="132.6" x2="141" y2="864.4"/>
<line class="st1" x1="1024.5" y1="498.5" x2="-10.5" y2="498.5"/>
<line class="st1" x1="872.9" y1="864.4" x2="141" y2="132.6"/>
<circle id="circlePath" class="st1" cx="503" cy="501" r="418"/>
</svg>
