<?xml version="1.0" encoding="utf-8"?>
<!-- Generator: Adobe Illustrator 22.1.0, SVG Export Plug-In . SVG Version: 6.00 Build 0)  -->
<svg version="1.1" id="mysticMechanic" xmlns="http://www.w3.org/2000/svg" xmlns:xlink="http://www.w3.org/1999/xlink" x="0px"
	 y="0px" viewBox="0 0 1000 1000" style="enable-background:new 0 0 1000 1000;" xml:space="preserve">
<style type="text/css">
	.st0{fill:#FFFFFF;}
	.st1{fill:none;}
  
  .part, #group {
    transform-box:fill-box;
    -moz-transform-box:fill-box;
    -o-transform-box:fill-box;
    -webkit-transform-box:fill-box;
  }
  
 #group {
     -moz-transform-origin: 50% 50%;
    -ms-transform-origin: 50% 50%;
    -o-transform-origin: 50% 50%;
    -webkit-transform-origin: 50% 50%;
    transform-origin: 50% 50%;
    
    -moz-animation: rotateClockwise 30s linear infinite;
    -o-animation: rotateClockwise 30s linear infinite;
    -webkit-animation: rotateClockwise 30s linear infinite;
    animation: rotateClockwise 30s linear infinite;
}

.part {
    -moz-transform-origin: center center;
    -ms-transform-origin: center center;
    -o-transform-origin: center center;
    -webkit-transform-origin: center center;
    transform-origin: center center;
 
    -moz-animation: rotateCounterClockwise 30s linear infinite;
    -o-animation: rotateCounterClockwise 30s linear infinite;
    -webkit-animation: rotateCounterClockwise 30s linear infinite;
    animation: rotateCounterClockwise 30s linear infinite;
}

@keyframes rotateClockwise {
    from {
        
    }

    to {
        -moz-transform: rotate(360deg);
        -ms-transform: rotate(360deg);
        -o-transform: rotate(360deg);
        -webkit-transform: rotate(360deg);
        transform: rotate(360deg);
    }
}

@-moz-keyframes rotateClockwise {
    from {
    }

    to {
        -moz-transform: rotate(360deg);
        -ms-transform: rotate(360deg);
        -o-transform: rotate(360deg);
        -webkit-transform: rotate(360deg);
        transform: rotate(360deg);
    }
}

@-webkit-keyframes rotateClockwise {
    from {
    }

    to {
        -moz-transform: rotate(360deg);
        -ms-transform: rotate(360deg);
        -o-transform: rotate(360deg);
        -webkit-transform: rotate(360deg);
        transform: rotate(360deg);
    }
}


@keyframes rotateCounterClockwise {
    from {
    }

    to {
        -moz-transform: rotate(-360deg);
        -ms-transform: rotate(-360deg);
        -o-transform: rotate(-360deg);
        -webkit-transform: rotate(-360deg);
        transform: rotate(-360deg);
    }
}


@-moz-keyframes rotateCounterClockwise {
    from {
    }

    to {
        -moz-transform: rotate(-360deg);
        -ms-transform: rotate(-360deg);
        -o-transform: rotate(-360deg);
        -webkit-transform: rotate(-360deg);
        transform: rotate(-360deg);
    }
}

@-webkit-keyframes rotateCounterClockwise {
    from {
    }

    to {
        -moz-transform: rotate(-360deg);
        -ms-transform: rotate(-360deg);
        -o-transform: rotate(-360deg);
        -webkit-transform: rotate(-360deg);
        transform: rotate(-360deg);
    }
}

</style>
  <g id="group">
<g id="part8" class="part">
	<path class="st0" d="M131,186.7h3.1v42.2l-7.9,15.8c-0.9,1.7-1.3,3.6-1.3,5.5v16.2c0,6.8,5.5,12.3,12.3,12.3h61.3
		c6.8,0,12.3-5.5,12.3-12.3V248c0-0.4-0.1-0.8-0.2-1.2c-0.2-0.4-0.4-0.7-0.7-1l-16.6-16.6c-1.7-1.7-4.1-2.7-6.5-2.7H180
		c-1.7,0-3.1-1.4-3.1-3.1v-18.4h3.1c5.1,0,9.2-4.1,9.2-9.2v-9.2H223c3.9,0,7.3-2.5,8.6-6.1h15.9c8.3,0,15.8-4.8,19.3-12.3h23.6
		c5.1,0,9.2-4.1,9.2-9.2c0-5.1-4.1-9.2-9.2-9.2h-23.6c-3.5-7.5-11-12.3-19.3-12.3h-15.9c-1.3-3.7-4.8-6.1-8.6-6.1h-92
		c-8.5,0-15.3,6.9-15.3,15.3v24.5C115.7,179.8,122.5,186.6,131,186.7z M198.4,272.5h-61.3c-3.4,0-6.1-2.7-6.1-6.1v-16.2
		c0-1,0.2-1.9,0.7-2.7l6.3-12.7l13.6,13.6c1.7,1.7,4.1,2.7,6.5,2.7h46.5v15.3C204.6,269.8,201.8,272.5,198.4,272.5z M180,232.7h6.7
		c0.8,0,1.6,0.3,2.2,0.9l11.4,11.4h-42.2c-0.8,0-1.6-0.3-2.2-0.9l-15.7-15.7v-41.7h15.3v24.5c0,8.5,6.9,15.3,15.3,15.3h0.6
		C172.7,230.2,176.2,232.6,180,232.7z M170.8,186.7v33.7c-5.1,0-9.2-4.1-9.2-9.2v-24.5H170.8z M183.1,195.9c0,1.7-1.4,3.1-3.1,3.1
		H177v-12.3h6.1V195.9z M293.5,159.1c0,0.8-0.3,1.6-0.9,2.2c-0.6,0.6-1.3,0.9-2.1,0.9h-21.7c0.2-1,0.2-2,0.3-3.1
		c0-1-0.1-2.1-0.3-3.1h21.7C292.1,156,293.5,157.4,293.5,159.1z M262,154c0.6,1.6,0.9,3.3,0.9,5.1c0,1.7-0.3,3.5-0.9,5.1
		c-1.8,5.1-6.1,8.8-11.4,9.9v-30C255.9,145.1,260.2,148.9,262,154z M244.4,174.4h-12.3v-30.7h12.3V174.4z M121.8,146.8
		c0-5.1,4.1-9.2,9.2-9.2h92c1.7,0,3.1,1.4,3.1,3.1v3.1h-6.1c-1.7,0-3.1,1.4-3.1,3.1c0,1.7,1.4,3.1,3.1,3.1h6.1v6.1h-6.1
		c-1.7,0-3.1,1.4-3.1,3.1c0,1.7,1.4,3.1,3.1,3.1h6.1v6.1h-6.1c-1.7,0-3.1,1.4-3.1,3.1c0,1.7,1.4,3.1,3.1,3.1h6.1v3.1
		c0,1.7-1.4,3.1-3.1,3.1h-92c-5.1,0-9.2-4.1-9.2-9.2V146.8z"/>
	<path class="st0" d="M134,149.9h12.3c1.7,0,3.1-1.4,3.1-3.1c0-1.7-1.4-3.1-3.1-3.1H134c-1.7,0-3.1,1.4-3.1,3.1
		C131,148.5,132.4,149.9,134,149.9z"/>
	<path class="st0" d="M134,162.1h12.3c1.7,0,3.1-1.4,3.1-3.1c0-1.7-1.4-3.1-3.1-3.1H134c-1.7,0-3.1,1.4-3.1,3.1
		C131,160.7,132.4,162.1,134,162.1z"/>
</g>
<path id="part7" class="st0 part" d="M27.7,564.2c-1.7,1.7-4.4,1.7-6.1,0l-3.1-3.1c-1.7-1.7-4.4-1.7-6.1,0c-1.7,1.7-1.7,4.4,0,6.1
	l3.1,3.1c5.1,5.1,13.3,5.1,18.4,0l9.7-9.7c4.8,2.3,10.8,1.5,14.8-2.5c3.1-3.1,11.2-11.2,15.9-15.9c4.7,2.3,10.7,1.5,14.8-2.5
	l9.2-9.2l3.1,3.1c1.7,1.7,4.4,1.7,6.1,0l12.3-12.3c1.7-1.7,1.7-4.4,0-6.1l-9.2-9.2c6.8-6.8,26-26,27.6-27.6c4-4,4.8-10,2.5-14.8
	l10.8-10.8c4.1-4.1,4.8-10.1,2.5-14.8l3.6-3.6c1.7-1.7,1.7-4.4,0-6.1c-1.7-1.7-4.4-1.7-6.1,0l-3.6,3.6c-4.8-2.3-10.8-1.5-14.8,2.5
	l-10.8,10.8c-4.8-2.3-10.8-1.5-14.8,2.5c-9.5,9.5-18,18-27.6,27.6l-9.2-9.2c-1.7-1.7-4.4-1.7-6.1,0l-12.3,12.3
	c-1.7,1.7-1.7,4.4,0,6.1l3.1,3.1l-9.2,9.2c-4.1,4.1-4.8,10.1-2.5,14.8c-3.9,3.9-13.2,13.2-15.9,15.9c-4,4-4.8,10-2.5,14.8l-3.6,3.6
	c-1.7,1.7-1.7,4.4,0,6.1c1.7,1.7,4.4,1.7,6.1,0l3.1-3.1l6.1,6.1L27.7,564.2z M46.1,552l-12.3-12.3c-1.7-1.7-1.7-4.4,0-6.1l3.1-3.1
	l18.4,18.4l-3.1,3.1C50.6,553.7,47.8,553.7,46.1,552z M67.6,536.6l-6.1,6.1l-18.4-18.4l6.1-6.1L67.6,536.6z M104.4,463l18.4,18.4
	l-6.1,6.1l-18.4-18.4L104.4,463z M139.2,440.5c1.7-1.7,4.4-1.7,6.1,0c1.7,1.7,1.7,4.4,0,6.1l-10.3,10.2l-6.1-6.1L139.2,440.5z
	 M119.8,453.8l12.3,12.3c0,0,0,0,0,0c0,0,0,0,0,0l0,0c1.7,1.7,1.7,4.4,0,6.1l-3.1,3.1l-18.4-18.4l3.1-3.1
	C115.3,452.1,118.1,452.1,119.8,453.8z M92.2,475.3l18.4,18.4l-6.1,6.1L86,481.4L92.2,475.3z M67.6,475.3l42.9,42.9l-6.1,6.1
	c-1.4-1.4-40-40-42.9-42.9L67.6,475.3z M52.3,502.9l9.2-9.2l30.7,30.7l-9.2,9.2c-1.7,1.7-4.4,1.7-6.1,0L52.3,509
	C50.6,507.3,50.6,504.6,52.3,502.9z"/>
<g id="part6" class="part">
	<path class="st0" d="M221.3,778.4c1.1-3.9,1.7-7.9,1.7-11.9c0-24.9-20.2-45.1-45.1-45.1s-45.1,20.2-45.1,45.1
		c0,24.6,19.8,44.7,44.4,45.1c-1,3.8-1.6,7.8-1.6,11.9c0,24.9,20.2,45.1,45.1,45.1s45.1-20.2,45.1-45.1
		C265.7,798.8,245.9,778.8,221.3,778.4z M177.9,806.8c-22.3,0-40.4-18.1-40.4-40.4c0-22.3,18.1-40.4,40.4-40.4s40.4,18.1,40.4,40.4
		c0,4.1-0.7,8.1-1.9,12.1c-1.8,0.2-3.6,0.5-5.3,0.8c1.6-4.1,2.5-8.5,2.5-12.9c0-19.6-16-35.6-35.6-35.6s-35.6,16-35.6,35.6
		c0,8.5,3.1,16.8,8.7,23.3l3.6-3.1c-4.4-5-7-11.3-7.5-17.8h9.4v-4.7h-9.4c0.1-1.7,0.4-3.3,0.8-4.9l8.9,2.9l1.5-4.5l-8.9-2.9
		c0.6-1.5,1.4-3,2.3-4.4l7.6,5.5l2.8-3.8l-7.6-5.5c1.1-1.3,2.2-2.4,3.5-3.5l5.5,7.6l3.8-2.8l-5.5-7.6c1.4-0.9,2.8-1.6,4.4-2.3
		l2.9,8.9l4.5-1.5l-2.9-8.9c1.6-0.4,3.2-0.6,4.9-0.8v9.4h4.7v-9.4c1.7,0.1,3.3,0.4,4.9,0.8l-2.9,8.9l4.5,1.5l2.9-8.9
		c1.5,0.6,3,1.4,4.4,2.3l-5.5,7.6l3.8,2.8l5.5-7.6c1.3,1.1,2.4,2.2,3.5,3.5l-7.6,5.5l2.8,3.8l7.6-5.5c0.9,1.4,1.6,2.8,2.3,4.4
		l-8.9,2.9l1.5,4.5l8.9-2.9c0.4,1.6,0.6,3.2,0.8,4.9h-9.4v4.7h9.4c-0.3,4.3-1.6,8.5-3.7,12.4c-8.2,3.1-15.3,8.4-20.5,15.3
		c-2.2,0.5-4.5,0.8-6.6,0.8c-7.4,0-14.6-2.7-20.2-7.6l-3.1,3.6c6.5,5.6,14.8,8.7,23.3,8.7c1,0,2.1-0.1,3.1-0.2
		c-0.9,1.6-1.6,3.2-2.3,4.9C178.5,806.8,178.2,806.8,177.9,806.8z M220.6,863.8c-22.3,0-40.4-18.1-40.4-40.4
		c0-22.3,18.1-40.4,40.4-40.4s40.4,18.1,40.4,40.4C261,845.7,242.9,863.8,220.6,863.8z"/>
	<path class="st0" d="M220.6,787.8c-19.6,0-35.6,16-35.6,35.6v2.4h19v-2.4c0-9.2,7.5-16.6,16.6-16.6c4.3,0,8.2,1.6,11.1,4.3
		l-11.2,33.7c-3.9,0.1-7,3.2-7,7.1c0,3.9,3.2,7.1,7.1,7.1c3.9,0,7.1-3.2,7.1-7.1c0-2.3-1.1-4.3-2.8-5.6l10.3-30.8c1.3,2.3,2,5,2,7.9
		v2.4h19v-2.4C256.2,803.8,240.3,787.8,220.6,787.8z M220.6,854.3c-1.3,0-2.4-1.1-2.4-2.4s1.1-2.4,2.4-2.4c1.3,0,2.4,1.1,2.4,2.4
		S221.9,854.3,220.6,854.3z M241.9,821.1c-0.5-4.2-2.2-8-4.7-11.2l2.4-7.1l-4.5-1.5l-1.7,5c-3.6-2.6-8-4.2-12.7-4.2
		c-11,0-20,8.3-21.2,19h-9.5c1.2-15.9,14.6-28.5,30.8-28.5s29.6,12.6,30.8,28.5H241.9z"/>
	<path class="st0" d="M261,730.9h-19v14.2h19V730.9z M256.2,740.4h-9.5v-4.7h9.5V740.4z"/>
	<path class="st0" d="M277.9,737.3l-7.4-7.4v-1.4c0-3.9-3.2-7.1-7.1-7.1h-23.7c-3.9,0-7.1,3.2-7.1,7.1v31.3c-2.8,1-4.7,3.6-4.7,6.7
		v7.1h47.5v-7.1c0-3.1-2-5.7-4.7-6.7V757h2.4c3.9,0,7.1-3.2,7.1-7.1v-7.5C280,740.4,279.2,738.6,277.9,737.3z M239.6,726.1h23.7
		c1.3,0,2.4,1.1,2.4,2.4v30.9h-28.5v-30.9C237.2,727.2,238.3,726.1,239.6,726.1z M270.5,768.9h-38v-2.4c0-1.3,1.1-2.4,2.4-2.4h33.2
		c1.3,0,2.4,1.1,2.4,2.4V768.9z M275.2,749.9c0,1.3-1.1,2.4-2.4,2.4h-2.4v-15.6l4.1,4.1c0.4,0.4,0.7,1.1,0.7,1.7V749.9z"/>
	<path class="st0" d="M177.9,792.6c3.9,0,7.1-3.2,7.1-7.1c0-3.1-2-5.7-4.7-6.7v-24.2h-4.7v24.2c-2.8,1-4.7,3.6-4.7,6.7
		C170.8,789.4,174,792.6,177.9,792.6z M177.9,783.1c1.3,0,2.4,1.1,2.4,2.4s-1.1,2.4-2.4,2.4c-1.3,0-2.4-1.1-2.4-2.4
		S176.6,783.1,177.9,783.1z"/>
</g>
<g id="part5" class="part">
	<path class="st0" d="M506.7,937.8c2.6-0.2,4.9-1.5,6.4-3.6l23.1-32c0.7-1,0.6-2.3-0.3-3.2c-0.9-0.9-2.2-1-3.2-0.3l-32,23.2
		c-2.1,1.5-3.4,3.9-3.6,6.4s0.7,5.1,2.6,6.9c1.7,1.7,3.9,2.6,6.2,2.6C506.2,937.8,506.5,937.8,506.7,937.8z M502.2,928.7
		c0.1-1.1,0.7-2.2,1.6-2.8l19.5-14.1l-14.1,19.5c-0.7,0.9-1.7,1.5-2.8,1.6c-1.1,0.1-2.2-0.3-3-1.1
		C502.5,930.9,502.1,929.8,502.2,928.7z"/>
	<path class="st0" d="M562.1,892.2c0-0.1,0-0.1-0.1-0.2c0,0-0.1-0.1-0.1-0.1c-2.5-4.3-5.5-8.3-8.8-11.9l5.3-5.3l3.5,3.5l10.5-10.5
		l-10.5-10.5l-10.5,10.5l3.5,3.5l-5.3,5.3c-3.6-3.4-7.6-6.3-11.9-8.8c0,0-0.1-0.1-0.1-0.1c-0.1,0-0.1,0-0.2-0.1
		c-7.6-4.4-16.2-7.3-25.4-8.4v-2.9h3.7c3.4,0,6.2-2.8,6.2-6.2s-2.8-6.2-6.2-6.2h-22.2c-3.4,0-6.2,2.8-6.2,6.2s2.8,6.2,6.2,6.2h3.7
		v2.9c-2.7,0.3-5.3,0.7-8,1.3c-1.3,0.3-2.2,1.6-1.9,3c0.3,1.3,1.6,2.2,3,1.9c2.3-0.5,4.6-0.9,6.9-1.2l2.7-0.2
		c0.8-0.1,1.6-0.1,2.3-0.1v4.9c0,1.4,1.1,2.5,2.5,2.5c1.4,0,2.5-1.1,2.5-2.5v-4.9c9.3,0.4,18.1,2.9,25.8,7l-2.4,4.2
		c-0.7,1.2-0.3,2.7,0.9,3.4c0.4,0.2,0.8,0.3,1.2,0.3c0.9,0,1.7-0.4,2.1-1.2l2.4-4.2c7.7,4.9,14.3,11.5,19.2,19.2l-4.2,2.4
		c-1.2,0.7-1.6,2.2-0.9,3.4c0.5,0.8,1.3,1.2,2.1,1.2c0.4,0,0.8-0.1,1.2-0.3l4.2-2.4c4.2,7.9,6.7,16.8,7,26.3h-4.9
		c-1.4,0-2.5,1.1-2.5,2.5s1.1,2.5,2.5,2.5h4.9c-0.4,9.4-2.9,18.3-7,26.3l-4.2-2.4c-1.2-0.7-2.7-0.3-3.4,0.9
		c-0.7,1.2-0.3,2.7,0.9,3.4l4.2,2.4c-4.9,7.7-11.5,14.3-19.2,19.2l-2.4-4.2c-0.7-1.2-2.2-1.6-3.4-0.9c-1.2,0.7-1.6,2.2-0.9,3.4
		l2.4,4.2c-7.8,4.1-16.6,6.6-25.8,7v-4.9c0-1.4-1.1-2.5-2.5-2.5s-2.5,1.1-2.5,2.5v4.9c-3.9-0.1-7.9-0.6-11.8-1.5
		c-1.3-0.3-2.7,0.5-3,1.9c-0.3,1.3,0.5,2.7,1.9,3c4.9,1.1,10,1.7,15,1.7c0.1,0,0.2,0,0.4,0c0,0,0,0,0,0c0,0,0,0,0.1,0
		c11.9-0.1,23-3.3,32.7-8.8c0.1,0,0.2-0.1,0.2-0.1c0,0,0.1-0.1,0.1-0.1c10-5.8,18.3-14.2,24.2-24.1c0-0.1,0.1-0.1,0.1-0.2
		c0-0.1,0-0.1,0.1-0.2c5.6-9.8,8.9-21.1,8.9-33.2C571,913.3,567.7,902,562.1,892.2z M561.9,864.2l3.5,3.5l-3.5,3.5l-3.5-3.5
		L561.9,864.2z M502.2,858.7v-7.5h-8.7c-0.7,0-1.2-0.6-1.2-1.2s0.6-1.2,1.2-1.2h22.2c0.7,0,1.2,0.6,1.2,1.2s-0.6,1.2-1.2,1.2h-8.7
		v7.5c-0.9,0-1.7-0.1-2.5-0.1c-0.1,0-0.1,0-0.2,0c-0.1,0-0.1,0-0.2,0c-0.4,0-0.8,0-1.2,0C502.7,858.7,502.4,858.7,502.2,858.7z"/>
	<path class="st0" d="M482.4,878.5H470c-1.4,0-2.5,1.1-2.5,2.5c0,1.4,1.1,2.5,2.5,2.5h12.4c1.4,0,2.5-1.1,2.5-2.5
		C484.8,879.6,483.7,878.5,482.4,878.5z"/>
	<path class="st0" d="M482.4,895.8h-24.7c-1.4,0-2.5,1.1-2.5,2.5c0,1.4,1.1,2.5,2.5,2.5h24.7c1.4,0,2.5-1.1,2.5-2.5
		C484.8,896.9,483.7,895.8,482.4,895.8z"/>
	<path class="st0" d="M482.4,913.1h-37.1c-1.4,0-2.5,1.1-2.5,2.5s1.1,2.5,2.5,2.5h37.1c1.4,0,2.5-1.1,2.5-2.5
		S483.7,913.1,482.4,913.1z"/>
	<path class="st0" d="M482.4,930.4h-47c-1.4,0-2.5,1.1-2.5,2.5c0,1.4,1.1,2.5,2.5,2.5h47c1.4,0,2.5-1.1,2.5-2.5
		C484.8,931.5,483.7,930.4,482.4,930.4z"/>
	<path class="st0" d="M482.4,947.7h-32.1c-1.4,0-2.5,1.1-2.5,2.5c0,1.4,1.1,2.5,2.5,2.5h32.1c1.4,0,2.5-1.1,2.5-2.5
		C484.8,948.8,483.7,947.7,482.4,947.7z"/>
	<path class="st0" d="M482.4,965h-17.3c-1.4,0-2.5,1.1-2.5,2.5s1.1,2.5,2.5,2.5h17.3c1.4,0,2.5-1.1,2.5-2.5S483.7,965,482.4,965z"/>
</g>
<g id="part4" class="part">
	<g>
		<g>
			<circle class="st0" cx="831.3" cy="765.1" r="2.4"/>
		</g>
	</g>
	<g>
		<g>
			<g>
				<path class="st0" d="M817.6,785.5C817.6,785.5,817.6,785.5,817.6,785.5L817.6,785.5z"/>
				<path class="st0" d="M811,778.8C810.9,778.8,811,778.8,811,778.8L811,778.8z"/>
				<path class="st0" d="M867.1,759.8h-2.9c-0.9-3.8-2.4-7.4-4.5-10.8l2.1-2.1c2.3-2.3,2.3-6.1,0-8.4l-4.7-4.7
					c-2.3-2.3-6.1-2.3-8.4,0l-2.1,2.1c-3.4-2-7-3.5-10.8-4.5v-2.9c0-3.3-2.7-6-6-6h-6.7c-3.3,0-6,2.7-6,6v2.9
					c-3.8,0.9-7.4,2.4-10.8,4.5l-2.1-2.1c-2.3-2.3-6.1-2.3-8.4,0l-4.7,4.7c-2.3,2.3-2.3,6.1,0,8.4l2.1,2.1c-2,3.4-3.5,7-4.5,10.8
					h-2.9c-3.3,0-6,2.7-6,6v6.7c0,3.3,2.7,6,6,6h2.9c0.9,3.8,2.4,7.4,4.4,10.7l0.5,0.9l-39.5,39.5c-7.7-2.8-16.5-0.9-22.3,5
					c-5.9,5.9-7.8,14.8-4.8,22.7c0.3,0.7,0.9,1.2,1.6,1.3c0.7,0.2,1.5-0.1,2-0.6l11.1-11.1l5.5,2.3l2.4,5.7l-11.1,11.1
					c-0.5,0.5-0.7,1.3-0.6,2c0.2,0.7,0.7,1.3,1.3,1.6c2.5,1,5.1,1.4,7.6,1.4c5.5,0,11-2.2,15.1-6.2c5.8-5.8,7.7-14.6,5-22.3l7.3-7.3
					c0.8-0.8,0.8-2.2,0-3.1c-0.8-0.8-2.2-0.8-3.1,0l-8.3,8.3c-0.6,0.6-0.8,1.6-0.4,2.4c2.8,6.4,1.4,13.9-3.5,18.9
					c-3.9,3.9-9.4,5.6-14.7,4.7l9.5-9.5c0.6-0.6,0.8-1.6,0.5-2.4l-3.3-7.8c-0.2-0.5-0.6-0.9-1.2-1.2l-7.6-3.1
					c-0.8-0.3-1.7-0.1-2.4,0.5l-9.5,9.5c-0.8-5.3,0.9-10.8,4.7-14.7c4.9-4.9,12.5-6.3,18.9-3.5c0.8,0.4,1.8,0.2,2.4-0.4l54.8-54.8
					c0.6-0.6,0.8-1.6,0.4-2.4c-2.8-6.4-1.4-13.9,3.5-18.9c3.9-3.9,9.4-5.6,14.7-4.7c0,0,0,0,0,0l-9.5,9.5c0,0,0,0,0,0.1c0,0,0,0,0,0
					c0,0,0,0,0,0c0,0,0,0,0,0.1c0,0,0,0,0,0c0,0,0,0,0,0c0,0,0,0,0,0c0,0,0,0,0,0c0,0,0,0,0,0c0,0,0,0,0,0c0,0,0,0,0,0c0,0,0,0,0,0
					c0,0,0,0,0,0c0,0,0,0,0,0c0,0,0,0,0,0c0,0,0,0,0,0c0,0,0,0,0,0c0,0,0,0,0,0c0,0,0,0,0,0c0,0,0,0,0,0c0,0,0,0,0,0c0,0,0,0,0,0
					c0,0,0,0,0,0c0,0,0,0,0,0c0,0,0,0,0,0c0,0,0,0,0,0c0,0,0,0,0,0c0,0,0,0,0,0c0,0,0,0,0,0c0,0,0,0,0,0c0,0,0,0,0,0c0,0,0,0,0,0
					c0,0,0,0,0,0c0,0,0,0,0,0c0,0,0,0,0,0c0,0,0,0,0,0c0,0,0,0,0,0c0,0,0,0,0,0c0,0,0,0,0,0c0,0,0,0,0,0c0,0,0,0,0,0c0,0,0,0,0,0
					c0,0,0,0,0,0c0,0,0,0,0,0c0,0,0,0,0,0c0,0,0,0,0,0c0,0,0,0,0,0c0,0,0,0,0,0c0,0,0,0,0,0c0,0,0,0,0,0c0,0,0,0,0,0c0,0,0,0,0,0
					c0,0,0,0,0,0c0,0,0,0,0,0c0,0,0,0,0,0c0,0,0,0,0,0c0,0,0,0,0,0c0,0,0,0,0,0c0,0,0,0,0,0c0,0,0,0,0,0c0,0,0,0,0,0c0,0,0,0,0,0
					c0,0,0,0,0,0c0,0,0,0,0,0c0,0,0,0,0,0c0,0,0,0,0,0c0,0,0,0,0,0c0,0,0,0,0,0c0,0,0,0,0,0c0,0,0,0,0,0c0,0,0,0,0,0c0,0,0,0,0,0
					c0,0,0,0,0,0c0,0,0,0,0,0c0,0,0,0,0,0c0,0,0,0,0,0c0,0,0,0,0,0c0,0,0,0,0,0c0,0,0,0,0,0c0,0,0,0,0,0c0,0,0,0,0,0c0,0,0,0,0,0
					c0,0,0,0,0,0c0,0,0,0,0,0c0,0,0,0,0,0c0,0,0,0,0,0c0,0,0,0,0,0c0,0,0,0,0,0c0,0,0,0,0,0c0,0,0,0,0,0c0,0,0,0,0,0c0,0,0,0,0,0
					c0,0,0,0,0,0c0,0,0,0,0,0c0,0,0,0,0,0c0,0,0,0,0,0c0,0,0,0,0,0c0,0,0,0,0,0c0,0,0,0,0,0c0,0,0,0,0,0c0,0,0,0,0,0c0,0,0,0,0,0
					c0,0,0,0,0,0c0,0,0,0,0,0c0,0,0,0,0,0c0,0,0,0,0,0c0,0,0,0,0,0c0,0,0,0,0,0c0,0,0,0,0,0l0,0c0,0,0,0,0,0c0,0,0,0,0,0
					c0,0,0,0,0,0c0,0,0,0,0,0c0,0,0,0,0,0c0,0,0,0,0,0c0,0,0,0,0,0c0,0,0,0,0,0c0,0,0,0,0,0c0,0,0,0,0,0c0,0,0,0,0,0c0,0,0,0,0,0
					c0,0,0,0,0,0c0,0,0,0,0,0l3.2,7.6c0.2,0.5,0.6,0.9,1.1,1.2l7.8,3.4c0.8,0.4,1.8,0.2,2.4-0.5l9.5-9.5c0.8,5.3-0.9,10.8-4.7,14.7
					c-4.9,4.9-12.5,6.3-18.9,3.5c-0.8-0.4-1.8-0.2-2.4,0.4l-40.3,40.3c-0.8,0.8-0.8,2.2,0,3.1c0.8,0.8,2.2,0.8,3.1,0l26.3-26.3
					c3.3,1.9,6.8,3.4,10.5,4.3v2.9c0,3.3,2.7,6,6,6h6.7c3.3,0,6-2.7,6-6v-2.9c3.8-0.9,7.4-2.4,10.8-4.5l2.1,2.1
					c1.1,1.1,2.6,1.7,4.2,1.7s3.1-0.6,4.2-1.7l4.7-4.7c1.1-1.1,1.7-2.6,1.7-4.2c0-1.6-0.6-3.1-1.7-4.2l-2.1-2.1
					c2-3.4,3.5-7,4.5-10.8h2.9c3.3,0,6-2.7,6-6v-6.7C873.1,762.5,870.4,759.8,867.1,759.8z M836.5,767.8l-4.4,4.4l-5.7-2.6l-2.3-5.3
					l5.4-5.4l6.1,1.8l1.8,6.1L836.5,767.8z M868.7,772.5c0,0.9-0.7,1.6-1.6,1.6h-4c-1.4,0-2.6,1-2.9,2.3c-0.9,4.1-2.5,7.9-4.7,11.4
					c-0.7,1.2-0.6,2.7,0.4,3.7l2.8,2.8c0.3,0.3,0.5,0.7,0.5,1.2c0,0.4-0.2,0.9-0.5,1.2l-4.7,4.7c-0.6,0.6-1.7,0.6-2.3,0l-2.8-2.8
					c-1-1-2.5-1.1-3.7-0.4c-3.5,2.3-7.3,3.8-11.4,4.7c-1.4,0.3-2.3,1.5-2.3,2.9v4c0,0.9-0.7,1.6-1.6,1.6h-6.7
					c-0.9,0-1.6-0.7-1.6-1.6v-4c0-1.4-1-2.6-2.3-2.9c-3.3-0.7-6.4-1.9-9.3-3.5l4.1-4.1c3.9,1.9,8.2,2.8,12.5,2.8
					c13.9,0,25.8-9.9,28.5-23.4c0.2-1.2-0.5-2.3-1.7-2.5c-1.2-0.2-2.3,0.5-2.5,1.7c-2.3,11.6-12.5,19.9-24.2,19.9
					c-3.2,0-6.3-0.6-9.2-1.8l2.5-2.5c7.7,2.8,16.5,0.9,22.3-5c5.9-5.9,7.8-14.8,4.8-22.7c-0.3-0.7-0.9-1.2-1.6-1.3
					c-0.7-0.2-1.5,0.1-2,0.6l-2.2,2.2l-1.5-5c-0.2-0.7-0.8-1.2-1.4-1.4l-5-1.5l2.2-2.2c0.5-0.5,0.7-1.3,0.6-2
					c-0.2-0.7-0.7-1.3-1.3-1.6c-7.8-3-16.7-1.1-22.7,4.8c-5.8,5.8-7.7,14.6-5,22.3l-2.9,2.9c-1.5-3.3-2.3-6.8-2.3-10.5
					c0-13.6,11.1-24.7,24.7-24.7c12.4,0,22.9,9.2,24.5,21.5c0.2,1.2,1.2,2,2.4,1.9c1.2-0.2,2-1.2,1.9-2.4
					c-1.9-14.4-14.2-25.3-28.8-25.3c-16,0-29,13-29,29c0,4.8,1.2,9.5,3.4,13.7l-4.1,4.1c-1.9-3.2-3.3-6.8-4.1-10.4
					c-0.3-1.4-1.5-2.3-2.9-2.3h-4c-0.9,0-1.6-0.7-1.6-1.6v-6.7c0-0.9,0.7-1.6,1.6-1.6h4c1.4,0,2.6-1,2.9-2.3
					c0.9-4.1,2.5-7.9,4.7-11.4c0.7-1.2,0.6-2.7-0.4-3.7l-2.8-2.8c-0.6-0.6-0.6-1.7,0-2.3l4.7-4.7c0.6-0.6,1.7-0.6,2.3,0l2.8,2.8
					c1,1,2.5,1.1,3.7,0.4c3.5-2.3,7.3-3.8,11.4-4.7c1.3-0.3,2.3-1.5,2.3-2.9v-4c0-0.9,0.7-1.6,1.6-1.6h6.7c0.9,0,1.6,0.7,1.6,1.6v4
					c0,1.4,1,2.6,2.3,2.9c4,0.9,7.9,2.5,11.4,4.7c1.2,0.7,2.7,0.6,3.7-0.4l2.8-2.8c0.6-0.6,1.7-0.6,2.3,0l4.7,4.7
					c0.6,0.6,0.6,1.7,0,2.3l-2.8,2.8c-1,1-1.1,2.5-0.4,3.7c2.3,3.5,3.8,7.3,4.7,11.4c0.3,1.4,1.5,2.3,2.9,2.3h4
					c0.9,0,1.6,0.7,1.6,1.6L868.7,772.5L868.7,772.5z"/>
			</g>
		</g>
	</g>
	<g>
		<g>
			<path class="st0" d="M769.6,765.3h-1.2c-0.2-0.7-0.5-1.3-0.8-1.9l0.9-0.9c1.3-1.3,1.3-3.3,0-4.6l-3.8-3.8
				c-0.6-0.6-1.4-0.9-2.3-0.9s-1.7,0.3-2.3,0.9l-0.9,0.9c-0.6-0.3-1.3-0.6-1.9-0.8V753c0-1.8-1.5-3.2-3.2-3.2h-5.3
				c-1.8,0-3.2,1.5-3.2,3.2v1.2c-0.7,0.2-1.3,0.5-1.9,0.8l-0.9-0.9c-0.6-0.6-1.4-1-2.3-1s-1.7,0.3-2.3,0.9l-3.8,3.8
				c-1.3,1.3-1.3,3.3,0,4.6l0.9,0.9c-0.3,0.6-0.6,1.3-0.8,1.9h-1.2c-1.8,0-3.2,1.5-3.2,3.2v5.3c0,1.8,1.5,3.2,3.2,3.2h1.2
				c0.2,0.7,0.5,1.3,0.8,1.9l-0.9,0.9c-1.3,1.3-1.3,3.3,0,4.6l3.8,3.8c0.6,0.6,1.4,0.9,2.3,0.9c0.9,0,1.7-0.3,2.3-0.9l0.9-0.9
				c0.6,0.3,1.3,0.6,1.9,0.8v1.2c0,1.8,1.5,3.2,3.2,3.2h5.3c1.8,0,3.2-1.5,3.2-3.2v-1.2c0.7-0.2,1.3-0.5,1.9-0.8l0.9,0.9
				c0.6,0.6,1.4,1,2.3,1s1.7-0.3,2.3-0.9l3.8-3.8c1.3-1.3,1.3-3.3,0-4.6l-0.9-0.9c0.3-0.6,0.6-1.3,0.8-1.9h1.2
				c1.8,0,3.2-1.5,3.2-3.2v-5.3C772.9,766.8,771.4,765.3,769.6,765.3z M768.5,772.8h-1.7c-1,0-1.9,0.7-2.1,1.7
				c-0.3,1.4-0.9,2.7-1.6,3.9c-0.5,0.9-0.4,1.9,0.3,2.7l1.2,1.2l-2.2,2.2l-1.2-1.2c-0.7-0.7-1.8-0.8-2.7-0.3
				c-1.2,0.7-2.5,1.3-3.9,1.6c-1,0.2-1.7,1.1-1.7,2.1v1.7h-3.2v-1.7c0-1-0.7-1.9-1.7-2.1c-1.4-0.3-2.7-0.9-3.9-1.6
				c-0.9-0.5-1.9-0.4-2.7,0.3l-1.2,1.2l-2.2-2.2l1.2-1.2c0.7-0.7,0.8-1.8,0.3-2.7c-0.7-1.2-1.3-2.5-1.6-3.9c-0.2-1-1.1-1.7-2.1-1.7
				h-1.7v-3.2h1.7c1,0,1.9-0.7,2.1-1.7c0.3-1.4,0.9-2.7,1.6-3.9c0.5-0.9,0.4-1.9-0.3-2.7l-1.2-1.2l2.2-2.2l1.2,1.2
				c0.7,0.7,1.8,0.8,2.7,0.3c1.2-0.7,2.5-1.3,3.9-1.6c1-0.2,1.7-1.1,1.7-2.1v-1.7h3.2v1.7c0,1,0.7,1.9,1.7,2.1
				c1.4,0.3,2.7,0.9,3.9,1.6c0.9,0.5,1.9,0.4,2.7-0.3l1.2-1.2l2.2,2.2l-1.2,1.2c-0.7,0.7-0.8,1.8-0.3,2.7c0.7,1.2,1.3,2.5,1.6,3.9
				c0.2,1,1.1,1.7,2.1,1.7h1.7L768.5,772.8L768.5,772.8z"/>
		</g>
	</g>
	<g>
		<g>
			<path class="st0" d="M751.4,760.7c-5.8,0-10.5,4.7-10.5,10.5c0,5.8,4.7,10.5,10.5,10.5c5.8,0,10.5-4.7,10.5-10.5
				C761.9,765.4,757.2,760.7,751.4,760.7z M751.4,777.4c-3.4,0-6.2-2.8-6.2-6.2c0-3.4,2.8-6.2,6.2-6.2c3.4,0,6.2,2.8,6.2,6.2
				C757.6,774.7,754.8,777.4,751.4,777.4z"/>
		</g>
	</g>
	<g>
		<g>
			<path class="st0" d="M845.2,836.8h-1.2c-0.2-0.7-0.5-1.3-0.8-1.9l0.9-0.9c1.3-1.3,1.3-3.3,0-4.6l-3.8-3.8
				c-0.6-0.6-1.4-0.9-2.3-0.9c-0.9,0-1.7,0.3-2.3,0.9l-0.9,0.9c-0.6-0.3-1.3-0.6-1.9-0.8v-1.2c0-1.8-1.5-3.2-3.2-3.2h-5.3
				c-1.8,0-3.2,1.5-3.2,3.2v1.2c-0.7,0.2-1.3,0.5-1.9,0.8l-0.9-0.9c-0.6-0.6-1.4-1-2.3-1s-1.7,0.3-2.3,0.9l-3.8,3.8
				c-1.3,1.3-1.3,3.3,0,4.6l0.9,0.9c-0.3,0.6-0.6,1.3-0.8,1.9h-1.2c-1.8,0-3.2,1.5-3.2,3.2v5.3c0,1.8,1.5,3.2,3.2,3.2h1.2
				c0.2,0.7,0.5,1.3,0.8,1.9l-0.9,0.9c-1.3,1.3-1.3,3.3,0,4.6l3.8,3.8c0.6,0.6,1.4,0.9,2.3,0.9c0.9,0,1.7-0.3,2.3-0.9l0.9-0.9
				c0.6,0.3,1.3,0.6,1.9,0.8v1.2c0,1.8,1.5,3.2,3.2,3.2h5.3c1.8,0,3.2-1.5,3.2-3.2v-1.2c0.7-0.2,1.3-0.5,1.9-0.8l0.9,0.9
				c0.6,0.6,1.4,1,2.3,1s1.7-0.3,2.3-0.9l3.8-3.8c1.3-1.3,1.3-3.3,0-4.6l-0.9-0.9c0.3-0.6,0.6-1.3,0.8-1.9h1.2
				c1.8,0,3.2-1.5,3.2-3.2v-5.3C848.4,838.3,846.9,836.8,845.2,836.8z M844.1,844.3h-1.7c-1,0-1.9,0.7-2.1,1.7
				c-0.3,1.4-0.9,2.7-1.6,3.9c-0.5,0.9-0.4,1.9,0.3,2.7l1.2,1.2l-2.2,2.2l-1.2-1.2c-0.7-0.7-1.8-0.8-2.7-0.3
				c-1.2,0.7-2.5,1.3-3.9,1.6c-1,0.2-1.7,1.1-1.7,2.1v1.7h-3.2v-1.7c0-1-0.7-1.9-1.7-2.1c-1.4-0.3-2.7-0.9-3.9-1.6
				c-0.9-0.5-1.9-0.4-2.7,0.3l-1.2,1.2l-2.2-2.2l1.2-1.2c0.7-0.7,0.8-1.8,0.3-2.7c-0.7-1.2-1.3-2.5-1.6-3.9c-0.2-1-1.1-1.7-2.1-1.7
				h-1.7v-3.2h1.7c1,0,1.9-0.7,2.1-1.7c0.3-1.4,0.9-2.7,1.6-3.9c0.5-0.9,0.4-1.9-0.3-2.7l-1.2-1.2l2.2-2.2l1.2,1.2
				c0.7,0.7,1.8,0.8,2.7,0.3c1.2-0.7,2.5-1.3,3.9-1.6c1-0.2,1.7-1.1,1.7-2.1v-1.7h3.2v1.7c0,1,0.7,1.9,1.7,2.1
				c1.4,0.3,2.7,0.9,3.9,1.6c0.9,0.5,1.9,0.4,2.7-0.3l1.2-1.2l2.2,2.2l-1.2,1.2c-0.7,0.7-0.8,1.8-0.3,2.7c0.7,1.2,1.3,2.5,1.6,3.9
				c0.2,1,1.1,1.7,2.1,1.7h1.7V844.3z"/>
		</g>
	</g>
	<g>
		<g>
			<path class="st0" d="M826.9,832.2c-5.8,0-10.5,4.7-10.5,10.5c0,5.8,4.7,10.5,10.5,10.5c5.8,0,10.5-4.7,10.5-10.5
				C837.4,836.9,832.7,832.2,826.9,832.2z M826.9,848.9c-3.4,0-6.2-2.8-6.2-6.2c0-3.4,2.8-6.2,6.2-6.2s6.2,2.8,6.2,6.2
				C833.1,846.2,830.3,848.9,826.9,848.9z"/>
		</g>
	</g>
</g>
<g id="part3" class="part">
	<path class="st0" d="M920.5,432.6c-37.7,0-68.5,30.8-68.5,68.5c0,37.7,30.8,68.5,68.5,68.5c37.7,0,68.5-30.8,68.5-68.5
		C989,463.4,958.2,432.6,920.5,432.6z M954.1,551.4l-2.1-3.6c-1.1-1.9-3.6-2.6-5.5-1.5c-1.9,1.1-2.6,3.6-1.5,5.5l2.1,3.6
		c-6.9,3.4-14.6,5.6-22.7,6.1v-4.1c0-2.2-1.8-4-4-4c-2.2,0-4,1.8-4,4v4.1c-8.1-0.5-15.8-2.7-22.7-6.1l2.1-3.6
		c1.1-1.9,0.5-4.4-1.5-5.5c-1.9-1.1-4.4-0.5-5.5,1.5l-2.1,3.6c-6.6-4.4-12.2-10.1-16.6-16.6l3.6-2.1c1.9-1.1,2.6-3.6,1.5-5.5
		s-3.6-2.6-5.5-1.5l-3.6,2.1c-3.4-6.9-5.6-14.6-6.1-22.7h4.1c2.2,0,4-1.8,4-4s-1.8-4-4-4h-4.1c0.5-8.1,2.7-15.8,6.1-22.7l3.6,2.1
		c1.9,1.1,4.4,0.5,5.5-1.5c1.1-1.9,0.5-4.4-1.5-5.5l-3.6-2.1c4.4-6.6,10.1-12.2,16.6-16.6l2.1,3.6c1.1,1.9,3.6,2.6,5.5,1.5
		c1.9-1.1,2.6-3.6,1.5-5.5l-2.1-3.6c6.9-3.4,14.6-5.6,22.7-6.1v4.1c0,2.2,1.8,4,4,4c2.2,0,4-1.8,4-4v-4.1c8.1,0.5,15.8,2.7,22.7,6.1
		l-2.1,3.6c-1.1,1.9-0.5,4.4,1.5,5.5c1.9,1.1,4.4,0.5,5.5-1.5l2.1-3.6c6.6,4.4,12.2,10.1,16.6,16.6l-3.6,2.1
		c-1.9,1.1-2.6,3.6-1.5,5.5c1.1,1.9,3.6,2.6,5.5,1.5l3.6-2.1c3.4,6.9,5.6,14.6,6.1,22.7h-4.1c-2.2,0-4,1.8-4,4s1.8,4,4,4h4.1
		c-0.5,8.1-2.7,15.8-6.1,22.7l-3.6-2.1c-1.9-1.1-4.4-0.5-5.5,1.5c-1.1,1.9-0.5,4.4,1.5,5.5l3.6,2.1
		C966.3,541.3,960.7,547,954.1,551.4z"/>
	<path class="st0" d="M920.5,457c-24.4,0-44.2,19.8-44.2,44.2c0,24.4,19.8,44.2,44.2,44.2c24.4,0,44.2-19.8,44.2-44.2
		C964.6,476.8,944.8,457,920.5,457z M920.5,537.3c-19.9,0-36.1-16.2-36.1-36.1s16.2-36.1,36.1-36.1c19.9,0,36.1,16.2,36.1,36.1
		S940.4,537.3,920.5,537.3z"/>
	<path class="st0" d="M920.5,473c-15.5,0-28.1,12.6-28.1,28.1c0,15.5,12.6,28.1,28.1,28.1c15.5,0,28.1-12.6,28.1-28.1
		C948.6,485.6,936,473,920.5,473z M937.2,512.2l-5.9-5.9c0.2-0.4,0.3-0.8,0.5-1.2h8.3C939.6,507.7,938.6,510.1,937.2,512.2z
		 M903.7,490.1l5.9,5.9c-0.2,0.4-0.3,0.8-0.5,1.2h-8.3C901.3,494.6,902.3,492.2,903.7,490.1z M923.3,504
		C923.3,504,923.3,504,923.3,504c-0.7,0.7-1.7,1.2-2.8,1.2c-1.1,0-2.1-0.4-2.8-1.2c0,0,0,0,0,0c0,0,0,0,0,0
		c-0.7-0.7-1.2-1.7-1.2-2.8s0.4-2.1,1.2-2.8c0,0,0,0,0,0c0,0,0,0,0,0c0.7-0.7,1.7-1.2,2.8-1.2c1.1,0,2.1,0.4,2.8,1.2c0,0,0,0,0,0
		c0,0,0,0,0,0c0.7,0.7,1.2,1.7,1.2,2.8C924.5,502.2,924,503.2,923.3,504C923.3,504,923.3,504,923.3,504z M925.6,490.3
		c-0.4-0.2-0.8-0.3-1.2-0.5v-8.3c2.6,0.5,4.9,1.5,7,2.9L925.6,490.3z M916.4,489.8c-0.4,0.1-0.8,0.3-1.2,0.5l-5.9-5.9
		c2.1-1.4,4.5-2.4,7-2.9V489.8z M900.8,505.1h8.3c0.1,0.4,0.3,0.8,0.5,1.2l-5.9,5.9C902.3,510.1,901.3,507.7,900.8,505.1z
		 M915.3,512c0.4,0.2,0.8,0.3,1.2,0.5v8.3c-2.6-0.5-4.9-1.5-7-2.9L915.3,512z M924.5,512.5c0.4-0.1,0.8-0.3,1.2-0.5l5.9,5.9
		c-2.1,1.4-4.5,2.4-7,2.9V512.5z M931.8,497.1c-0.1-0.4-0.3-0.8-0.5-1.2l5.9-5.9c1.4,2.1,2.4,4.5,2.9,7H931.8z"/>
</g>
    
<g id="part2" class="part">
	<g>
		<g>
			<path class="st0" d="M866,146l-8.8-8.8c-5.8-5.8-15.5-6.1-21.7-0.7l-15.5,13.5c-0.2,0.2-0.4,0.4-0.5,0.6l-15.1,25.2l-9.7,3.2
				c-0.8,0.3-1.4,1-1.6,1.8s0.1,1.7,0.7,2.3l26.5,26.5c0.5,0.5,1.1,0.7,1.8,0.7c0.2,0,0.4,0,0.6-0.1c0.8-0.2,1.5-0.8,1.8-1.6
				l3.2-9.7l25.6-15.4c0.2-0.1,0.4-0.3,0.6-0.5l13.2-15.2C872.1,161.5,871.8,151.7,866,146z M863,164.4l-12.9,14.9l-26,15.7
				c-0.5,0.3-0.9,0.8-1.1,1.3l-2.3,6.8l-6-6c0,0,0,0,0,0l-8.8-8.8c0,0,0,0,0,0l-6-6l6.8-2.3c0.6-0.2,1-0.6,1.4-1.1l15.4-25.7
				l15.2-13.2c4.2-3.7,10.9-3.5,14.9,0.5l8.8,8.8C866.4,153.5,866.7,160.1,863,164.4z"/>
		</g>
	</g>
	<g>
		<g>
			<path class="st0" d="M858.9,232.9c-7.3-7.3-18.1-9.9-27.9-6.7L778,173.1c3.2-9.8,0.6-20.6-6.7-27.9c-7.7-7.7-19.3-10.1-29.5-6.2
				c-0.8,0.3-1.4,1-1.5,1.8c-0.2,0.8,0.1,1.7,0.7,2.3l15.9,15.9l-10.6,10.6l-15.9-15.9c-0.6-0.6-1.5-0.8-2.3-0.7
				c-0.8,0.2-1.5,0.7-1.8,1.5c-4,10.2-1.6,21.7,6.2,29.5c7.3,7.3,18.1,9.9,27.9,6.7l19.8,19.8l-24.7,24.7l-15.7,8.8
				c-0.4,0.2-0.8,0.6-1,1.1l-7.1,14.1c-0.5,1-0.3,2.1,0.5,2.9l8.8,8.8c0.5,0.5,1.1,0.7,1.8,0.7c0.4,0,0.8-0.1,1.1-0.3l14.1-7.1
				c0.4-0.2,0.8-0.6,1.1-1l8.8-15.7l24.7-24.7l20.9,20.9c-3.2,9.8-0.6,20.6,6.7,27.9c5.3,5.3,12.3,8,19.4,8c3.4,0,6.8-0.6,10-1.9
				c0.8-0.3,1.4-1,1.5-1.8c0.2-0.8-0.1-1.7-0.7-2.3l-15.9-15.9l10.6-10.6l15.9,15.9c0.6,0.6,1.5,0.9,2.3,0.7
				c0.8-0.2,1.5-0.7,1.8-1.5C869.1,252.2,866.6,240.6,858.9,232.9z M764,244.4c-0.2,0.2-0.3,0.3-0.4,0.5l-8.6,15.3l-11.8,5.9
				l-6.3-6.3l5.9-11.8l15.3-8.6c0.2-0.1,0.4-0.3,0.5-0.4l25-25l5.3,5.3L764,244.4z M861.5,256.7L846.9,242c-1-1-2.6-1-3.5,0
				l-14.1,14.1c-0.5,0.5-0.7,1.1-0.7,1.8s0.3,1.3,0.7,1.8l14.7,14.7c-7.3,1.4-14.9-0.8-20.3-6.2c-6.3-6.3-8.3-15.8-5-24.1
				c0.4-0.9,0.1-2-0.6-2.7l-55.3-55.3c-0.5-0.5-1.1-0.7-1.8-0.7c-0.3,0-0.6,0.1-0.9,0.2c-8.3,3.3-17.8,1.3-24.1-5
				c-5.4-5.4-7.6-13-6.2-20.3l14.7,14.7c1,1,2.6,1,3.5,0l14.1-14.1c1-1,1-2.6,0-3.5l-14.7-14.7c7.3-1.4,14.9,0.8,20.3,6.2
				c6.3,6.3,8.3,15.8,5,24.1c-0.4,0.9-0.1,2,0.6,2.7l55.3,55.3c0.7,0.7,1.8,0.9,2.7,0.6c8.3-3.3,17.8-1.3,24.1,5
				C860.8,241.8,863,249.4,861.5,256.7z"/>
		</g>
	</g>
</g>

      
<g id="part1" class="part">
	<path class="st0" d="M544.6,27.5c-23.4-22.9-60.8-22.9-84.2,0c-10.8,10.6-17.3,24.8-18.3,39.9c-0.5,8.2,0.7,16.5,3.6,24.2
		c2.9,7.7,7.5,14.9,13.8,21.6l41.6,43.6c0.7,0.8,2,0.8,2.8,0.1c0,0,0,0,0.1-0.1l41.6-43.6c6.3-6.6,11-13.9,13.8-21.6
		c2.9-7.7,4.1-16,3.6-24.2C561.9,52.3,555.3,38.1,544.6,27.5z M555.6,90.2c-2.7,7.2-7,14-13,20.2l-40.2,42.1l-40.2-42.1
		c-5.9-6.2-10.3-13-13-20.2c-2.7-7.2-3.9-14.9-3.4-22.6c1-14.1,7.1-27.4,17.1-37.4c21.9-21.4,56.9-21.4,78.7,0
		c10.1,9.9,16.2,23.2,17.1,37.4C559.5,75.3,558.3,83,555.6,90.2z"/>
	<path class="st0" d="M502.5,25.8c-23.5,0-42.6,19.1-42.6,42.6s19.1,42.6,42.6,42.6s42.6-19.1,42.6-42.6S526,25.8,502.5,25.8z
		 M502.5,107.2c-21.4,0-38.7-17.3-38.7-38.7s17.3-38.7,38.7-38.7s38.7,17.3,38.7,38.7C541.2,89.8,523.9,107.1,502.5,107.2z"/>
	<path class="st0" d="M497.5,68.7c0-1.1-0.9-2-2-2H491v-25c0-1.1-0.9-2-2-2s-2,0.9-2,2l0,0v25h-4.5c-1.1,0-2,0.9-2,1.9
		c0,1.1,0.9,2,1.9,2l-1.4,4.9c-0.1,0.2-0.1,0.4-0.1,0.5v14.9c0,3.5,2.8,6.3,6.3,6.3h3.5c3.5,0,6.3-2.8,6.3-6.3V76.1
		c0-0.2,0-0.4-0.1-0.5l-1.4-4.9C496.6,70.7,497.5,69.8,497.5,68.7z M493.2,91.1c0,1.3-1.1,2.4-2.4,2.4h-3.5c-1.3,0-2.4-1.1-2.4-2.4
		V76.4l1.7-5.7h4.8l1.7,5.7L493.2,91.1z"/>
	<path class="st0" d="M516.5,39.7c-1-0.5-2.1-0.1-2.6,0.9c-0.1,0.3-0.2,0.6-0.2,0.9v5.9l-3.4,2.3l-3.5-2.5l0-5.7c0-1.1-0.9-2-1.9-2
		c-0.3,0-0.6,0.1-0.9,0.2c-4.8,2.4-7.8,7.3-7.8,12.6c0,5.4,3.1,10.3,7.9,12.7v26.2c0,3.4,2.8,6.2,6.2,6.2c3.4,0,6.2-2.8,6.2-6.2
		c0,0,0,0,0,0V65c7-3.4,9.9-11.9,6.5-18.9C521.5,43.4,519.2,41.1,516.5,39.7L516.5,39.7z M513.8,61.9c-0.8,0.3-1.3,1-1.3,1.8v27.4
		c0,1.3-1,2.3-2.3,2.3c-1.3,0-2.3-1-2.3-2.3V63.7c0-0.8-0.5-1.5-1.3-1.8c-5.3-2-7.9-7.9-6-13.1c0.5-1.3,1.2-2.5,2.2-3.5l0,2.9
		c0,0.6,0.3,1.2,0.8,1.6l5.5,3.8c0.7,0.5,1.5,0.5,2.2,0l5.4-3.6c0.5-0.4,0.9-1,0.9-1.6v-3.1c3.9,4.1,3.7,10.5-0.3,14.4
		C516.2,60.7,515,61.4,513.8,61.9L513.8,61.9z"/>
</g>
  </g>
    
<g id="mechanicLogo">
	<path class="st0" d="M503,519.7c27.1,0,90.8-32.6,90.8-110.8c0-10.9-0.3-21.4-1.2-31.4c-1.5-19.6-5.5-36.9-15.5-50.2
		c-12.8-18.1-35.2-29.2-74.2-29.2c-39,0-61.4,11-74.2,29.1c-10,13.3-14,30.7-15.5,50.3c-0.9,10-1.2,20.5-1.2,31.4
		C412.2,487,475.9,519.7,503,519.7z M532.6,338.7c-2.6,6.7-4,10-6.6,16.7c-17.1-4.8-29-4.8-46.1,0c-2.6-6.7-4-10-6.6-16.7
		C494.7,332.2,511.3,332.2,532.6,338.7z M425.7,391.9c1,2.3,5.5,11.1,12.4,11.9c7.9,0.9,21-28,65-28.1c43.9,0.1,57,29,65,28.1
		c6.9-0.8,11.3-9.6,12.4-11.9c0.2,5.6,0.3,11.3,0.3,17c0,38.2-16.9,61.9-31,75c-17.8,16.5-37.6,22.6-46.6,22.6
		c-9,0-28.8-6-46.6-22.6c-14.2-13.1-31-36.8-31-75C425.4,403.2,425.5,397.5,425.7,391.9z"/>
	<path class="st0" d="M671.6,633.3c-4.6-28.8-14.2-66-33.3-79.2c-13.1-9-58.7-33.4-78.2-43.8l-0.3-0.2c-2.2-1.2-4.9-1-6.9,0.6
		c-10.2,8-21.4,13.4-33.2,16.1c-2.1,0.5-3.8,2-4.6,4L503,562.5l-12.1-31.8c-0.8-2-2.5-3.5-4.6-4c-11.8-2.6-23-8-33.2-16.1
		c-2-1.6-4.7-1.8-6.9-0.6c-19.3,10.3-65.4,35.2-78.5,43.9c-22,14.9-31.7,68.6-33.4,79.2c-0.2,1.1-0.1,2.1,0.3,3.1
		c0.5,1.3,7.8,20.2,44.2,35.4c2.1-2.6,4.9-4.7,8.1-5.8c-3.9-1.4-7.3-4.1-9.5-7.8c-3.2-5.4-3.4-12.3-0.3-17.8
		c9.3-17.1,27.3-27.8,46.7-27.8c18.1,0,34.6,9,44.3,23.7h69.6c1.9-2.9,4.1-5.5,6.6-8c10.1-10.1,23.4-15.7,37.7-15.7h0h0
		c19.5,0,37.4,10.6,46.8,27.6c3,5.5,2.9,12.4-0.3,17.8c-2.2,3.7-5.5,6.4-9.5,7.8c3.2,1.1,6,3.2,8.2,5.9c36.4-15.2,43.7-34,44.1-35.3
		C671.7,635.4,671.8,634.3,671.6,633.3z"/>
	<path class="st0" d="M613.1,680.6L613.1,680.6l-33.5,0c-0.6-1.4-1.7-5.3-1.7-14.7c0-9.4,1.1-13.3,1.7-14.7l33.5,0
		c0.8,0,1.5-0.4,1.9-1.1c0.4-0.7,0.4-1.5,0-2.2c-6.6-12-19.2-19.5-33-19.5c-10,0-19.5,3.9-26.6,11c-3.7,3.7-6.4,7.9-8.3,12.6h-88.4
		c-5.5-13.8-19.1-23.7-34.9-23.7c-13.7,0-26.4,7.5-32.9,19.6c-0.4,0.7-0.4,1.6,0,2.2c0.4,0.7,1.1,1.1,1.9,1.1h0l33.5-0.1
		c0.6,1.4,1.7,5.3,1.7,14.7c0,9.4-1.1,13.3-1.7,14.7l-33.5,0.1c-0.8,0-1.5,0.4-1.9,1.1c-0.4,0.7-0.4,1.5,0,2.2
		c6.6,12,19.2,19.5,32.9,19.5h0.1c10,0,19.5-3.9,26.6-11c3.7-3.7,6.4-8,8.3-12.6h88.4c5.6,13.8,19.1,23.7,34.9,23.7c0,0,0.1,0,0.1,0
		c13.7,0,26.4-7.5,32.9-19.6c0.4-0.7,0.4-1.6,0-2.2C614.6,681,613.9,680.6,613.1,680.6z"/>
</g>
<line class="st1" x1="507" y1="-19" x2="507" y2="1016"/>
<line class="st1" x1="872.9" y1="132.6" x2="141" y2="864.4"/>
<line class="st1" x1="1024.5" y1="498.5" x2="-10.5" y2="498.5"/>
<line class="st1" x1="872.9" y1="864.4" x2="141" y2="132.6"/>
<circle id="circlePath" class="st1" cx="503" cy="501" r="418"/>
</svg>
