<?xml version="1.0" encoding="utf-8"?>
<!-- Generator: Adobe Illustrator 22.1.0, SVG Export Plug-In . SVG Version: 6.00 Build 0)  -->
<svg version="1.1" id="Layer_1" xmlns="http://www.w3.org/2000/svg" xmlns:xlink="http://www.w3.org/1999/xlink" x="0px" y="0px"
	 viewBox="0 0 1400 980" style="enable-background:new 0 0 1400 980;" xml:space="preserve">
<style type="text/css">
	.st0{fill:#6F8694;}
	.st1{fill:#778E99;}
	.st2{fill:#384E5B;}
	.st3{fill:#283C47;}
	.st4{fill:#FF5E41;}
	.st5{fill:#F77963;}
	.st6{fill:#FFFFFF;}
	.st7{fill:#E6E6E6;}
	.st8{fill:#B9B7BA;}
	.st9{fill:#CCCCCC;}
	.st10{fill:#FCD1C0;}
	.st11{fill:#1E3B59;}
	.st12{fill:#E04B31;}
	.st13{fill:#777777;}
</style>
<path class="st0" d="M1240.2,734.8H726.5v1h-553C111.6,735.8,60.9,789,60.9,854s50.7,118.2,112.6,118.2h568.7l44.4-0.1l0-0.9h453.7
	c61.9,0,112.6-53.2,112.6-118.2S1302.1,734.8,1240.2,734.8z"/>
<path class="st1" d="M1184.2,747.2H558.7v0.5H251c-58.6,0-106.6,44.5-106.6,98.8s48,98.8,106.6,98.8H764l5.5-0.1l0-0.4h414.6
	c58.6,0,106.6-44.5,106.6-98.8S1242.8,747.2,1184.2,747.2z"/>
<g>
	<g>
		<g>
			<polygon id="XMLID_463_" class="st2" points="1029.6,254.3 1029.6,852 1136,852 1187.7,852 1187.7,829.8 1136,740.4 1136,254.3 
							"/>
			<polygon id="XMLID_462_" class="st0" points="1105.7,254.3 1105.7,852 1136,852 1187.7,852 1187.7,829.8 1136,740.4 1136,254.3 
							"/>
			<polygon id="XMLID_461_" class="st3" points="1136,254.3 1055,254.3 1029.6,254.3 1029.6,328.4 1029.6,852 1055,852 1080.4,852 
				1080.4,740.4 1055,796.2 1055,310.7 			"/>
			<rect id="XMLID_460_" x="1010.8" y="232.1" class="st2" width="143.9" height="22.2"/>
			<rect id="XMLID_459_" x="1105.7" y="232.1" class="st0" width="49.1" height="22.2"/>
			<rect id="XMLID_458_" x="1080.4" y="740.4" class="st0" width="13.7" height="111.6"/>
		</g>
		<g>
			<polygon id="XMLID_457_" class="st2" points="577,852 577,254.3 470.6,254.3 470.6,740.4 418.8,829.8 418.8,852 470.6,852 			"/>
			<polygon id="XMLID_456_" class="st0" points="500.9,852 500.9,254.3 470.6,254.3 470.6,740.4 418.8,829.8 418.8,852 470.6,852 
							"/>
			<polygon id="XMLID_455_" class="st3" points="526.2,740.4 526.2,852 551.6,852 577,852 577,328.4 577,254.3 551.6,254.3 
				470.6,254.3 551.6,310.7 551.6,796.2 			"/>
			<rect id="XMLID_454_" x="451.8" y="232.1" class="st2" width="143.9" height="22.2"/>
			<rect id="XMLID_453_" x="451.8" y="232.1" class="st0" width="49.1" height="22.2"/>
			<rect id="XMLID_452_" x="512.6" y="740.4" class="st0" width="13.7" height="111.6"/>
		</g>
	</g>
	<path id="XMLID_451_" class="st3" d="M978.9,567.7c7.5,0,13.7-6.2,13.7-13.7v-76c0-7.5-6.2-13.7-13.7-13.7h-54.1
		c-7.5,0-13.7,6.2-13.7,13.7v76c0,7.5,6.2,13.7,13.7,13.7H978.9z"/>
	<path id="XMLID_450_" class="st3" d="M690.4,567.7c7.5,0,13.7-6.2,13.7-13.7v-76c0-7.5-6.2-13.7-13.7-13.7h-54.1
		c-7.5,0-13.7,6.1-13.7,13.7v76c0,7.5,6.2,13.7,13.7,13.7H690.4z"/>
	<path id="XMLID_449_" class="st4" d="M807.6,542.4h156.2c15.8,0,28.7-12.9,28.7-28.7v-57.4c0-30.8-24.1-56.3-54.4-58.4l-17.8-66.1
		c-8.6-32-216.7-32-225.3,0l-17.8,66.1c-30.3,2.1-54.4,27.6-54.4,58.4v57.4c0,15.8,12.9,28.7,28.7,28.7H807.6z"/>
	<path id="XMLID_448_" class="st5" d="M807.6,444.1H934c19,0,35.9-9.1,46.6-23.2c-9.9-13-25.2-21.8-42.5-23l-5.8-21.4H807.6H682.9
		l-5.8,21.4c-17.3,1.2-32.5,10-42.5,23c10.7,14.1,27.6,23.2,46.6,23.2H807.6z"/>
	<path id="XMLID_447_" class="st3" d="M932,397.7l-18.2-64.3c-0.9-3.2-6.4-6.1-9.1-7.4c-7.4-3.4-16.3-5.5-24.3-7
		c-11.2-2.1-22.7-3.5-34-4.3c-12.9-1-25.8-1.5-38.7-1.5s-25.9,0.4-38.7,1.5c-11.4,0.9-22.8,2.2-34,4.3c-8,1.5-16.9,3.6-24.3,7
		c-2.7,1.3-8.2,4.1-9.1,7.4l-18.2,64.3C766.1,388.5,849.1,388.5,932,397.7z"/>
	<path id="XMLID_446_" class="st0" d="M812.3,390.8c35.6-19.4,65.2-42.8,86.3-67.2c-5.9-2.1-12.4-3.5-18.3-4.6
		c-11.2-2.1-22.7-3.5-34-4.3c-12.9-1-25.8-1.5-38.7-1.5s-25.9,0.4-38.7,1.5c-11.4,0.9-22.8,2.2-34,4.3c-8,1.5-16.9,3.6-24.3,7
		c-2.7,1.3-8.2,4.1-9.1,7.4l-18.2,64.3C726.2,392.9,769.3,390.7,812.3,390.8z"/>
	<g>
		<path id="XMLID_445_" class="st4" d="M676.4,401.7c2.7,0,4.9-2.2,4.9-4.9V389c0-6.9-5.7-12.6-12.6-12.6h-22.5
			c-2.7,0-4.9,2.2-4.9,4.9v15.5c0,2.7,2.2,4.9,4.9,4.9H676.4z"/>
		<path id="XMLID_444_" class="st4" d="M967.4,401.7c2.7,0,4.9-2.2,4.9-4.9v-15.5c0-2.7-2.2-4.9-4.9-4.9h-22.5
			c-7,0-12.6,5.7-12.6,12.6v7.8c0,2.7,2.2,4.9,4.9,4.9H967.4z"/>
	</g>
	<g>
		<path id="XMLID_443_" class="st6" d="M704.9,479c2.8,0,5-2.3,5-5v-9.6c0-2.8-2.3-4.7-5-5l-54-5.6c-2.7-0.3-5,2.3-5,5V474
			c0,2.8,2.3,5,5,5H704.9z"/>
		<path id="XMLID_442_" class="st7" d="M650.9,453.7c-2.7-0.3-5,2.3-5,5v15.2c0,2.8,2.3,5,5,5h54c2.8,0,5-2.3,5-5v-0.4h-46.8
			c-2.8,0-5-2.3-5-5v-14.1L650.9,453.7z"/>
	</g>
	<g>
		<path id="XMLID_441_" class="st6" d="M964.3,479c2.8,0,5-2.3,5-5v-15.2c0-2.8-2.3-5.3-5-5l-54,5.6c-2.8,0.3-5,2.3-5,5v9.6
			c0,2.8,2.3,5,5,5H964.3z"/>
		<path id="XMLID_440_" class="st7" d="M964.3,479c2.8,0,5-2.3,5-5v-15.2c0-2.8-2.3-5.3-5-5l-7.1,0.7v14.1c0,2.8-2.3,5-5,5h-46.8
			v0.4c0,2.8,2.3,5,5,5H964.3z"/>
	</g>
	<polygon id="XMLID_439_" class="st3" points="577,505.2 577,593.1 602,593.1 602,554 622.7,554 622.7,535.7 602,535.7 602,505.2 	
		"/>
	<polygon id="XMLID_438_" class="st3" points="1029.6,593.1 1029.6,505.2 1004.6,505.2 1004.6,535.7 983.9,535.7 983.9,554 
		1004.6,554 1004.6,593.1 	"/>
	<polygon id="XMLID_437_" class="st3" points="683.5,751.3 723.6,852 757.4,852 757.2,774.6 757.2,751.3 	"/>
	<path id="XMLID_436_" class="st8" d="M767.3,642.9h-31.4c-1.8-0.4-3.7-0.6-5.6-0.6h-19.4c-14.9,0-27.1,12.2-27.1,27.1v27.1h73.7
		v-27.1c0-0.2,0-0.3,0-0.5c2.9,0.5,6.2,0.8,9.9,0.8v-26.8H767.3z"/>
	<path id="XMLID_435_" class="st2" d="M710.9,642.3c-1.9,0-3.8,0.2-5.6,0.6v0.2v17v12.7c0,11.3-12.1,18-21.5,12.9v48.5v17.2v100.7
		h28.9l44.7-100.7v-73.1h-4.6v-34.4h-9.5v34.4H714v-36L710.9,642.3L710.9,642.3z"/>
	<path id="XMLID_472_" class="st9" d="M752.5,673.5h-10.3v8.4h11.7v-8.4H752.5z M751.1,679.1h-6v-2.8h6V679.1z"/>
	<path id="XMLID_473_" class="st9" d="M714.2,673.5h-10.3v8.4h11.7v-8.4H714.2z M712.8,679.1h-6v-2.8h6V679.1z"/>
	<g>
		<path id="XMLID_430_" class="st10" d="M738,653.6l5.7-1.5c14.4-3.8,23-18.8,19.2-33.1l-7-26.2l-53.6,14.3l8.2,30.6
			C713.7,649.6,726.1,656.8,738,653.6z"/>
		<path id="XMLID_429_" class="st3" d="M723.4,602.7c-0.1-0.4-0.2-0.8-0.4-1.2l-20.7,5.5l-4.8,1.3l6.8,25.4c0.8,2.8,3.4,4.7,6.2,3.9
			l-3.3-12.2c0.9-0.1,1.9-0.3,2.8-0.5C720,622.2,725.9,612.3,723.4,602.7z"/>
		<path id="XMLID_428_" class="st11" d="M756.1,615.5c1-0.3,1.6-1.5,1.3-2.8s-1.5-2.1-2.5-1.8s-1.6,1.5-1.3,2.8
			C754,615,755.1,615.8,756.1,615.5z"/>
		<path id="XMLID_427_" class="st11" d="M740.8,619.7c1.1-0.3,1.6-1.5,1.3-2.8s-1.5-2.1-2.5-1.8s-1.6,1.5-1.3,2.8
			C738.6,619.1,739.7,619.9,740.8,619.7z"/>
		<path id="XMLID_426_" class="st6" d="M753,636.7c2.5-0.7,3.4-5.9,1.8-11.7l-9.2,2.5C747.1,633.2,750.4,637.3,753,636.7z"/>
		<path id="XMLID_425_" class="st2" d="M681.8,609.2c0.5,1.7,2.2,2.7,3.9,2.3l11.8-3.2l35.4-9.5l23-6.2l0,0l-5.9-22
			c-1.2-4.5-5.8-7.2-10.3-6l-42.2,11.3c-4.5,1.2-7.1,5.8-5.9,10.3l4.2,15.7l-11.8,3.2C682.3,605.8,681.3,607.5,681.8,609.2z"/>
		<path id="XMLID_424_" class="st8" d="M756,592.7L756,592.7l-5.9-22c-1.2-4.5-5.8-7.2-10.3-6l-24.7,6.6c-4.5,1.2-7.1,5.8-5.9,10.3
			l5.9,22L756,592.7z"/>
		<path id="XMLID_423_" class="st3" d="M752.3,591.4L752.3,591.4l-2.6-9.6c-0.5-1.9-2.5-3.1-4.5-2.6l-10.8,2.9
			c-1.9,0.5-3.1,2.5-2.6,4.5l2.6,9.6L752.3,591.4z"/>
	</g>
	<g>
		<path id="XMLID_422_" class="st8" d="M675,676.5h26.9v-32.7C688.5,645.9,675,650.6,675,676.5z"/>
		<rect id="XMLID_421_" x="673.7" y="676.5" class="st9" width="28.9" height="4.6"/>
		<path id="XMLID_420_" class="st10" d="M677.4,681.1v20.7c0,8.8,3.6,16.8,9.4,22.6c5.8,5.8,13.8,9.4,22.6,9.4h20.7v-22.6h-20.7
			c-2.6,0-4.9-1.1-6.7-2.8c-1.7-1.7-2.8-4.1-2.8-6.7V681L677.4,681.1L677.4,681.1z"/>
		<path id="XMLID_419_" class="st8" d="M735.2,704.9h-1.9c-1.7,0-3.2,1.4-3.2,3.2v3.2h-6.4v22.6h6.4h1.7h15.8c5.3,0,9.6-4.3,9.6-9.6
			v-3.4c0-5.3-4.3-9.6-9.6-9.6h-9.2v-3.2C738.4,706.4,737,704.9,735.2,704.9z"/>
	</g>
	<rect id="XMLID_418_" x="767.3" y="642.1" class="st9" width="4.6" height="28.9"/>
	<path id="XMLID_417_" class="st10" d="M824.6,635.4v-20.7H802v20.7c0,2.6-1.1,4.9-2.8,6.7s-4.1,2.8-6.7,2.8h-20.7v22.6h20.7
		c8.8,0,16.8-3.6,22.6-9.4C821,652.2,824.6,644.2,824.6,635.4z"/>
	<path id="XMLID_416_" class="st8" d="M824.6,621.1v-6.4V613v-15.8c0-5.3-4.3-9.6-9.6-9.6h-3.4c-5.3,0-9.6,4.3-9.6,9.6v9.2h-3.2
		c-1.7,0-3.2,1.4-3.2,3.2v1.9c0,1.7,1.4,3.2,3.2,3.2h3.2v6.4L824.6,621.1L824.6,621.1z"/>
	<path id="XMLID_415_" class="st12" d="M963.8,542.4c15.8,0,28.7-12.9,28.7-28.7v-18.4H622.7v18.4c0,15.8,12.9,28.7,28.7,28.7H963.8
		z"/>
	<g>
		<path id="XMLID_414_" class="st3" d="M695.2,524.2c3.3,0,6-2.7,6-6s-2.7-6-6-6h-33.3c-3.3,0-6,2.7-6,6s2.7,6,6,6H695.2z"/>
		<path id="XMLID_413_" class="st3" d="M953.3,524.2c3.3,0,6-2.7,6-6s-2.7-6-6-6H920c-3.3,0-6,2.7-6,6s2.7,6,6,6H953.3z"/>
	</g>
	<g>
		<path id="XMLID_412_" class="st3" d="M852.9,522.5c11.9,0,21.6-9.7,21.6-21.6v-20c0-11.9-9.7-21.6-21.6-21.6h-90.7
			c-11.9,0-21.6,9.7-21.6,21.6v20c0,11.9,9.7,21.6,21.6,21.6H852.9z"/>
		<rect id="XMLID_478_" x="784.4" y="459.3" class="st2" width="6.3" height="63.2"/>
		<rect id="XMLID_479_" x="771.1" y="459.3" class="st2" width="6.3" height="63.2"/>
		<rect id="XMLID_480_" x="797.8" y="459.3" class="st2" width="6.3" height="63.2"/>
		<path id="XMLID_481_" class="st2" d="M764,459.3h-1.8c-1.6,0-3.1,0.2-4.6,0.5V522c1.5,0.3,3,0.5,4.6,0.5h1.8V459.3z"/>
		<path id="XMLID_482_" class="st2" d="M857.5,459.8c-1.5-0.3-3-0.5-4.6-0.5h-1.8v63.2h1.8c1.6,0,3.1-0.2,4.6-0.5V459.8z"/>
		<rect id="XMLID_483_" x="811.1" y="459.3" class="st2" width="6.3" height="63.2"/>
		<rect id="XMLID_484_" x="837.8" y="459.3" class="st2" width="6.3" height="63.2"/>
		<rect id="XMLID_485_" x="824.5" y="459.3" class="st2" width="6.3" height="63.2"/>
	</g>
	<g>
		<path id="XMLID_403_" class="st13" d="M816.7,532.4l0.5-5.7c0.1-0.8-0.5-1.4-1.3-1.4h-4.3c-0.8,0-1.4,0.6-1.3,1.4l0.5,5.7
			c0.1,0.6,0.5,1.2,1,1.4v43.5h3.7v-43.4C816.2,533.7,816.7,533.1,816.7,532.4z"/>
		<path id="XMLID_402_" class="st4" d="M819.5,581.1c0.8,0,1.6-0.6,1.7-1.4l0.2-1.1c0.1-0.8-0.4-1.4-1.2-1.4h-6.7h-6.7
			c-0.8,0-1.3,0.6-1.2,1.4l0.2,1.1c0.1,0.8,0.9,1.4,1.7,1.4h0.3l0,0v19.1c0,2.4,2,4.4,4.4,4.4h1.3h1.2c2.4,0,4.3-2.1,4.3-4.4v-19.1
			l0,0H819.5z"/>
	</g>
	<path id="XMLID_401_" class="st2" d="M488,655.3v-84.1c0-17.8-14.6-32.3-32.3-32.3s-32.3,14.6-32.3,32.3v84.1
		c0,17.8,14.5,32.3,32.3,32.3S488,673.1,488,655.3z"/>
	<path id="XMLID_400_" class="st3" d="M446.3,686.2c3,0.9,6.1,1.4,9.3,1.4c17.8,0,32.3-14.5,32.3-32.3v-84.1
		c0-17.8-14.6-32.3-32.3-32.3c-3.2,0-6.4,0.5-9.3,1.4c13.3,4,23,16.4,23,30.9v84.1C469.3,669.8,459.6,682.2,446.3,686.2z"/>
	<path id="XMLID_399_" class="st0" d="M486.8,608.1c2.7,0,4.9-2.2,4.9-4.9v-5.8c0-2.7-2.2-4.9-4.9-4.9h-63.5c-2.7,0-4.9,2.2-4.9,4.9
		v5.8c0,2.7,2.2,4.9,4.9,4.9H486.8z"/>
	<path id="XMLID_398_" class="st0" d="M486.8,640.2c2.7,0,4.9-2.2,4.9-4.9v-5.8c0-2.7-2.2-4.9-4.9-4.9h-63.5c-2.7,0-4.9,2.2-4.9,4.9
		v5.8c0,2.7,2.2,4.9,4.9,4.9H486.8z"/>
	<path id="XMLID_397_" class="st0" d="M470.5,536.3v-3.4c0-8.1-6.7-14.8-14.8-14.8s-14.8,6.7-14.8,14.8v3.4v6.2h29.6V536.3z"/>
	<path id="XMLID_405_" class="st2" d="M456.1,635.3c0,2.7,2.2,4.9,4.9,4.9h25.8c2.7,0,4.9-2.2,4.9-4.9v-5.8c0-2.7-2.2-4.9-4.9-4.9
		H461c-2.7,0-4.9,2.2-4.9,4.9V635.3z"/>
	<path id="XMLID_406_" class="st2" d="M461,608.1h25.8c2.7,0,4.9-2.2,4.9-4.9v-5.8c0-2.7-2.2-4.9-4.9-4.9H461
		c-2.7,0-4.9,2.2-4.9,4.9v5.8C456.1,605.9,458.3,608.1,461,608.1z"/>
	<path id="XMLID_394_" class="st2" d="M461,542.5h9.5v-6.2v-3.4c0-8.1-6.7-14.8-14.8-14.8c-1.7,0-3.2,0.3-4.7,0.8
		c5.8,2,10.1,7.5,10.1,14v3.4L461,542.5L461,542.5z"/>
	<g>
		<rect id="XMLID_393_" x="237" y="578.5" class="st2" width="156.8" height="273.5"/>
		<rect id="XMLID_392_" x="221.8" y="835" class="st3" width="187.1" height="17"/>
		<rect id="XMLID_391_" x="251.4" y="674.7" class="st3" width="127.9" height="39.1"/>
		<rect id="XMLID_390_" x="251.4" y="726.2" class="st3" width="127.9" height="99"/>
		<rect id="XMLID_389_" x="251.4" y="626" class="st3" width="127.9" height="39.1"/>
		<rect id="XMLID_388_" x="251.4" y="578.5" class="st3" width="127.9" height="23.8"/>
		<rect id="XMLID_387_" x="288.2" y="642.2" class="st0" width="54.3" height="6.8"/>
		<rect id="XMLID_386_" x="288.2" y="690.9" class="st0" width="54.3" height="6.8"/>
		<rect id="XMLID_385_" x="288.2" y="747.9" class="st0" width="54.3" height="6.8"/>
		<polygon id="XMLID_384_" class="st0" points="370.4,572.9 370.4,510.3 260.3,510.3 260.3,572.9 304.4,572.9 304.4,594 293.1,594 
			293.1,602.3 304.4,602.3 326.3,602.3 337.5,602.3 337.5,594 326.3,594 326.3,572.9 		"/>
		<rect id="XMLID_383_" x="268.2" y="516.8" class="st2" width="94.3" height="49.6"/>
	</g>
	<path id="XMLID_382_" class="st0" d="M561.3,636.6c5.2,0,9.5-4.3,9.5-9.5v-42.8c0-5.2-4.3-9.5-9.5-9.5h-28.1
		c-5.2,0-9.5,4.3-9.5,9.5v42.8c0,5.2,4.3,9.5,9.5,9.5H561.3z"/>
	<path id="XMLID_381_" class="st2" d="M563.5,636.6c4,0,7.3-3.3,7.3-7.3v-47.1c0-4-3.3-7.3-7.3-7.3h-21.8c-4,0-7.3,3.3-7.3,7.3v47.1
		c0,4,3.3,7.3,7.3,7.3L563.5,636.6L563.5,636.6z"/>
	<ellipse id="XMLID_380_" class="st0" cx="554.7" cy="594.2" rx="6.2" ry="8.9"/>
	<ellipse id="XMLID_379_" class="st0" cx="554.7" cy="616.8" rx="6.2" ry="8.9"/>
	<path id="XMLID_378_" class="st2" d="M906.7,670.6v11.6h-75.3c-23.7,0-43,19.4-43,43c0,23.7,19.4,43,43,43h109.4
		c23.7,0,43-19.4,43-43c0-23.7-19.4-43-43-43h-8.9v-11.6H906.7z"/>
	<path id="XMLID_377_" class="st0" d="M839.8,765.3c0-8.4-6.8-15.2-15.2-15.2c-8.4,0-15.2,6.8-15.2,15.2s6.8,15.2,15.2,15.2
		C832.9,780.5,839.8,773.7,839.8,765.3z"/>
	<path id="XMLID_376_" class="st2" d="M832.4,765.3c0-4.4-3.5-7.9-7.9-7.9s-7.9,3.5-7.9,7.9s3.5,7.9,7.9,7.9
		S832.4,769.6,832.4,765.3z"/>
	<path id="XMLID_375_" class="st2" d="M939.1,773.3v-25.6c0-4-3.2-7.2-7.2-7.2c-3.9,0-7.2,3.2-7.2,7.2v25.6c0,4,3.2,7.2,7.2,7.2
		S939.1,777.2,939.1,773.3z"/>
	<path id="XMLID_374_" class="st2" d="M981.7,786.9h-32.9h-32.9H883c-7.8,0-14.9,3.2-20.1,8.3c-5.2,5.2-8.3,12.3-8.3,20.1
		s3.2,14.9,8.3,20.1c5.2,5.2,12.3,8.3,20.1,8.3h65.7c6.2,0,11.9,2.6,16,6.7c4.1,4.1,6.7,9.8,6.7,16s-2.6,11.9-6.7,16
		s-9.8,6.7-16,6.7v5.7c7.8,0,14.9-3.2,20.1-8.3c5.2-5.2,8.3-12.3,8.3-20.1s-3.2-14.9-8.3-20.1c-5.2-5.2-12.3-8.3-20.1-8.3H883
		c-6.2,0-11.9-2.6-16-6.7c-4.1-4.1-6.7-9.8-6.7-16s2.6-11.9,6.7-16s9.8-6.7,16-6.7h32.9h32.9h32.9c7.8,0,14.9-3.2,20.1-8.3
		c5.2-5.2,8.3-12.3,8.3-20.1s-3.2-14.9-8.3-20.1c-5.1-5.2-12.3-8.3-20.1-8.3v5.7c6.2,0,11.9,2.6,16,6.7c4.1,4.1,6.7,9.8,6.7,16
		s-2.6,11.9-6.7,16C993.6,784.4,987.9,786.9,981.7,786.9z"/>
	<path id="XMLID_373_" class="st0" d="M927.2,865.6h-3.3c-1.9,0-3.3,1.6-3.4,3.4l-2.6,33.3c-0.1,1.9,1.6,3.4,3.4,3.4h5.9
		c1.9,0,3.4-1.6,3.4-3.4v-4.5H948c1.7,0,3-1.4,3-3v-7c0-1.7-1.4-3-3-3h-17.4V869C930.6,867.2,929.1,865.6,927.2,865.6z"/>
	<path id="XMLID_372_" class="st0" d="M869.9,686.7c6.3,0,11.5-5.2,11.5-11.5v-22.7c0-6.3-5.2-11.5-11.5-11.5h-36.8
		c-6.3,0-11.5,5.2-11.5,11.5v22.7c0,6.3,5.2,11.5,11.5,11.5H869.9z"/>
	<path id="XMLID_404_" class="st2" d="M821.3,658.1h30.4c1.4,0,2.6-1.2,2.6-2.6c0-1.4-1.2-2.6-2.6-2.6h-30.4c-1.4,0-2.6,1.2-2.6,2.6
		C818.7,657,819.9,658.1,821.3,658.1z"/>
	<path id="XMLID_407_" class="st2" d="M821.3,666h30.4c1.4,0,2.6-1.2,2.6-2.6c0-1.4-1.2-2.6-2.6-2.6h-30.4c-1.4,0-2.6,1.2-2.6,2.6
		C818.7,664.9,819.9,666,821.3,666z"/>
	<path id="XMLID_408_" class="st2" d="M821.3,673.9h30.4c1.4,0,2.6-1.2,2.6-2.6c0-1.4-1.2-2.6-2.6-2.6h-30.4c-1.4,0-2.6,1.2-2.6,2.6
		C818.7,672.8,819.9,673.9,821.3,673.9z"/>
	<circle id="XMLID_368_" class="st0" cx="919.3" cy="667.9" r="8.9"/>
	<rect id="XMLID_367_" x="849" y="636.2" class="st2" width="15.4" height="4.9"/>
	<g>
		<g>
			<g>
				<path id="XMLID_366_" class="st3" d="M538.8,910.5c8.8,0,16-7.2,16-16v-28.3c0-8.8-7.2-16-16-16H451c-8.8,0-16,7.2-16,16v28.3
					c0,8.8,7.2,16,16,16H538.8z"/>
				<path id="XMLID_365_" class="st2" d="M497.3,910.5c8.8,0,16.1-7.2,16.1-16v-28.3c0-8.8-7.2-16-16.1-16H451c-8.8,0-16,7.2-16,16
					v28.3c0,8.8,7.2,16,16,16H497.3z"/>
			</g>
			<g>
				<path id="XMLID_364_" class="st3" d="M668.6,910.5c8.8,0,16-7.2,16-16v-28.3c0-8.8-7.2-16-16-16h-87.8c-8.8,0-16,7.2-16,16v28.3
					c0,8.8,7.2,16,16,16H668.6z"/>
				<path id="XMLID_363_" class="st2" d="M627.1,910.5c8.8,0,16-7.2,16-16v-28.3c0-8.8-7.2-16-16-16h-46.3c-8.8,0-16,7.2-16,16v28.3
					c0,8.8,7.2,16,16,16H627.1z"/>
			</g>
		</g>
		<g>
			<path id="XMLID_362_" class="st3" d="M600.7,851c8.8,0,16-7.2,16-16v-28.3c0-8.8-7.2-16-16-16h-87.8c-8.8,0-16,7.2-16,16V835
				c0,8.8,7.2,16,16,16H600.7z"/>
			<path id="XMLID_361_" class="st2" d="M559.1,851c8.8,0,16-7.2,16-16v-28.3c0-8.8-7.2-16-16-16h-46.3c-8.8,0-16,7.2-16,16V835
				c0,8.8,7.2,16,16,16H559.1z"/>
		</g>
	</g>
	<path id="XMLID_395_" class="st2" d="M802.3,885.6c-1.7,3-0.7,6.8,2.3,8.5c0,0,0,0,0.1,0.1c2.9,1.6,6.7,0.6,8.4-2.3
		c1.2-2,1-4.5-0.1-6.3l15.3-26.5c2.7,0.4,5.3-0.7,6.6-3c1.3-2.2,0.9-5-0.7-7.2c0,0-0.1,0-0.1,0.1l-2,3.4c-0.8,1.4-2.4,1.7-3.8,0.9
		h-0.1l0,0c-1.4-0.8-1.9-2.3-1.1-3.7l2-3.4v-0.1c-2.7-0.4-5.4,0.7-6.7,2.9c-1.2,2.2-1,4.8,0.5,6.9l-15.4,26.7
		C805.5,882.5,803.4,883.6,802.3,885.6z M809.5,885.8c1.6,1,2.1,3.1,1.2,4.7c-0.9,1.6-3,2.2-4.6,1.3c-0.1-0.1-0.1,0-0.1-0.1
		c-1.7-1-2.2-3.1-1.3-4.7C805.6,885.3,807.7,884.8,809.5,885.8C809.4,885.7,809.5,885.7,809.5,885.8z"/>
	<path id="XMLID_396_" class="st2" d="M624.4,762.1l-12.3-3.3l-1.1-0.3v11.8l12.4,3.3v6.2H652l0.5-0.2l15.4-11.6l-2-3.1l-13.7,4.1
		l-10.4-6.8l-0.5-0.1H635V761h6.3h0.9v-4.1h-18.8v4.1h6.8v1.1L624.4,762.1L624.4,762.1z M623.4,768.9l-8.3-2.2v-2.4l8.3,2.2V768.9z"
		/>
	<g>
		<path id="XMLID_356_" class="st2" d="M772.3,791.8v40.9c0,2.3,0.9,4.3,2.4,5.8s3.6,2.4,5.8,2.4h28.3c2.3,0,4.3-0.9,5.8-2.4
			s2.4-3.6,2.4-5.8v-40.9c0-2.3-0.9-4.3-2.4-5.8s-3.6-2.4-5.8-2.4h-26.2l-2.8-4.8l-10.3,5.9l3,5.2c0,0.2-0.1,0.3-0.1,0.5
			C772.3,790.8,772.3,791.3,772.3,791.8z"/>
		<polygon id="XMLID_355_" class="st3" points="779.5,830.4 781.7,832.4 785.1,828.5 804.3,828.5 807.6,832.4 809.8,830.4 
			806.4,826.5 806.4,807.6 809.8,803.7 807.6,801.7 804.3,805.6 785.1,805.6 781.7,801.7 779.5,803.7 783,807.6 783,826.5 		"/>
		<path id="XMLID_354_" class="st4" d="M786,798.1h14.5c1.3,0,2.4-0.5,3.3-1.4l0,0c0.8-0.8,1.4-2,1.4-3.3s-0.5-2.4-1.4-3.3l0,0
			c-0.8-0.8-2-1.4-3.3-1.4H786c-1.3,0-2.4,0.5-3.3,1.4l0,0c-0.8,0.8-1.4,2-1.4,3.3s0.5,2.4,1.4,3.3l0,0
			C783.6,797.5,784.8,798.1,786,798.1z"/>
	</g>
</g>
</svg>
