<?xml version="1.0"?>
<svg xmlns="http://www.w3.org/2000/svg" id="Layer_1" data-name="Layer 1" viewBox="0 0 512 512" width="512" height="512"><title>Travel location share map</title><path d="M256,63.318c-80.5,0-146,67.182-146,149.76s65.5,149.76,146,149.76,146-67.182,146-149.76S336.505,63.318,256,63.318Zm0,287.52c-73.888,0-134-61.8-134-137.76s60.112-137.76,134-137.76,134,61.8,134,137.76S329.888,350.838,256,350.838Z"/><path d="M385.429,80.289a182.759,182.759,0,0,0-258.858,0A194.565,194.565,0,0,0,70.392,204.713a183.328,183.328,0,0,0,11.074,75.464c8.763,24.015,23.031,46.656,42.407,67.293L251.626,483.546a6,6,0,0,0,8.748,0L388.127,347.47c19.376-20.637,33.644-43.278,42.407-67.293a183.328,183.328,0,0,0,11.074-75.464A194.565,194.565,0,0,0,385.429,80.289Zm33.832,195.774c-8.2,22.484-21.622,43.745-39.882,63.194L256,470.674,132.621,339.257c-18.26-19.449-31.678-40.71-39.882-63.194a171.414,171.414,0,0,1-10.375-70.549A182.575,182.575,0,0,1,135.071,88.759a170.76,170.76,0,0,1,241.858,0,182.575,182.575,0,0,1,52.707,116.755A171.414,171.414,0,0,1,419.261,276.063Z"/><path d="M333.333,161.7c-5.8-10.4-14.333-22.348-28.908-22.348H208.386c-11.806,0-22.19,7.962-29.255,22.424l-7.393,13.1c-4.357-.008-11.768-.022-16.074-.022-9.035,0-16.42,4.641-18.813,11.822A37.766,37.766,0,0,0,135.007,196,6,6,0,0,0,141,202.292h.008l6.131-.008a26.441,26.441,0,0,0-5.194,16.014,5.94,5.94,0,0,0,.048.754l5.622,44.41a15.671,15.671,0,0,0,10.925,14.491V290.26a10.836,10.836,0,0,0,10.823,10.823h14.649a10.836,10.836,0,0,0,10.823-10.823V278.687H317.163V290.26a10.836,10.836,0,0,0,10.824,10.823h14.648a10.835,10.835,0,0,0,10.824-10.823v-12.4a15.668,15.668,0,0,0,10.674-14.383l5.868-44.4a6.079,6.079,0,0,0,.052-.786,25.966,25.966,0,0,0-5.423-16l6.372,0A6,6,0,0,0,376.993,196a37.766,37.766,0,0,0-1.844-9.327c-2.393-7.181-9.778-11.822-18.813-11.822-4.267,0-11.552-.024-15.889-.04Zm-143.662,5.815c.06-.108.119-.218.173-.33,2.868-5.914,9.091-15.833,18.542-15.833h96.039c6.586,0,12.1,4.842,18.393,16.132l14.048,25.895H234.946a26,26,0,0,0-50.892,0h-8.978Zm32.767,25.864H196.562a13.993,13.993,0,0,1,25.876,0Zm-66.774-6.525c2.469,0,5.959.005,9.31.01l-1.918,3.4-14.751.019C149.123,188.285,152.167,186.855,155.664,186.855Zm27.171,102.228h-12.3v-10.4h12.3Zm146.328,0v-10.4h12.3v10.4Zm23.027-26.83a6.078,6.078,0,0,0-.051.786,3.7,3.7,0,0,1-3.647,3.648H163.257a3.7,3.7,0,0,1-3.648-3.648,5.939,5.939,0,0,0-.047-.754l-5.613-44.334c.14-6.065,3.944-12.2,10.257-12.61.2.019.4.039.595.039H346.82c.033,0,.065,0,.1,0,6.746,0,10.971,6.447,11.131,12.553Zm4.146-75.4c3.5,0,6.553,1.436,7.363,3.44l-14.85.005-1.879-3.463C350.331,186.847,353.847,186.855,356.336,186.855Z"/><path d="M177.705,219.62a16,16,0,1,0,16,16A16.017,16.017,0,0,0,177.705,219.62Zm0,20a4,4,0,1,1,4-4A4,4,0,0,1,177.705,239.618Z"/><path d="M334.294,219.62a16,16,0,1,0,16,16A16.017,16.017,0,0,0,334.294,219.62Zm0,20a4,4,0,1,1,4-4A4,4,0,0,1,334.294,239.618Z"/><path d="M304.8,228.192c-2.518-7.4-10.615-13.2-18.436-13.2H225.388c-7.85,0-15.909,5.846-18.347,13.309l-3.054,9.353a6,6,0,0,0,5.7,7.863h92.618a6,6,0,0,0,5.68-7.932Zm-86.834,5.322.486-1.491a8.266,8.266,0,0,1,6.94-5.034H286.36a8.48,8.48,0,0,1,7.075,5.067l.5,1.458Z"/></svg>
