<svg id="mysticMechanic" xmlns="http://www.w3.org/2000/svg" viewBox="0 0 1035 1035"><defs><style>.cls-1{fill:#fff;}.cls-2{fill:none;}</style></defs><title>mystic machanic</title><g id="part8"><path class="cls-1" d="M175.9,219.13h2.72v37.56l-7,14.05a10.86,10.86,0,0,0-1.17,4.91v14.43A10.92,10.92,0,0,0,181.35,301h54.59a10.91,10.91,0,0,0,10.91-10.92V273.71a2.7,2.7,0,0,0-.21-1,2.78,2.78,0,0,0-.59-.88L231.28,257a8.16,8.16,0,0,0-5.79-2.4h-5.93a2.73,2.73,0,0,1-2.73-2.73V235.5h2.73a8.19,8.19,0,0,0,8.19-8.19v-8.18h30a8.21,8.21,0,0,0,7.69-5.46H279.6a19,19,0,0,0,17.2-10.92h21a8.19,8.19,0,0,0,0-16.38h-21a19,19,0,0,0-17.2-10.91H265.46a8.19,8.19,0,0,0-7.69-5.46H175.9a13.66,13.66,0,0,0-13.65,13.65v21.83A13.67,13.67,0,0,0,175.9,219.13Zm60,76.41H181.35a5.45,5.45,0,0,1-5.45-5.46V275.65a5.28,5.28,0,0,1,.58-2.44l5.62-11.27L194.2,274a8.16,8.16,0,0,0,5.79,2.4h41.4v13.64A5.45,5.45,0,0,1,235.94,295.54Zm-16.38-35.48h5.93a2.74,2.74,0,0,1,1.93.8L237.54,271H200a2.74,2.74,0,0,1-1.93-.8l-14-14V219.13h13.65V241a13.66,13.66,0,0,0,13.65,13.64h.5A8.17,8.17,0,0,0,219.56,260.06Zm-8.18-40.93v30a8.18,8.18,0,0,1-8.19-8.18V219.13Zm10.91,8.18a2.73,2.73,0,0,1-2.73,2.73h-2.73V219.13h5.46Zm98.25-32.75a2.7,2.7,0,0,1-.83,1.95,2.65,2.65,0,0,1-1.9.78H298.47a17.75,17.75,0,0,0,.24-2.73,18,18,0,0,0-.24-2.73h19.34A2.73,2.73,0,0,1,320.54,194.56ZM292.46,190a13.16,13.16,0,0,1,.79,4.52,13.65,13.65,0,0,1-10.92,13.34V181.23A13.54,13.54,0,0,1,292.46,190Zm-15.59,18.17H266V180.92h10.91ZM167.71,183.65a8.18,8.18,0,0,1,8.19-8.19h81.87a2.73,2.73,0,0,1,2.73,2.73v2.73H255a2.73,2.73,0,1,0,0,5.45h5.46v5.46H255a2.73,2.73,0,0,0,0,5.46h5.46v5.46H255a2.73,2.73,0,1,0,0,5.46h5.46v2.73a2.73,2.73,0,0,1-2.73,2.73H175.9a8.19,8.19,0,0,1-8.19-8.19Z" transform="translate(10.52 19)"/><path class="cls-1" d="M178.62,186.37h10.92a2.73,2.73,0,1,0,0-5.45H178.62a2.73,2.73,0,0,0,0,5.45Z" transform="translate(10.52 19)"/><path class="cls-1" d="M178.62,197.29h10.92a2.73,2.73,0,1,0,0-5.46H178.62a2.73,2.73,0,0,0,0,5.46Z" transform="translate(10.52 19)"/></g><path id="part7" class="cls-1" d="M84,555.15a3.86,3.86,0,0,1-5.46,0l-2.73-2.73a3.86,3.86,0,1,0-5.46,5.46l2.73,2.73a11.59,11.59,0,0,0,16.38,0L98.14,552a11.58,11.58,0,0,0,13.18-2.26l14.11-14.11a11.58,11.58,0,0,0,13.19-2.27l8.19-8.19,2.73,2.73a3.86,3.86,0,0,0,5.46,0l10.92-10.92a3.86,3.86,0,0,0,0-5.46l-8.19-8.19,24.57-24.56a11.62,11.62,0,0,0,2.26-13.18l9.61-9.57a11.6,11.6,0,0,0,2.27-13.18l3.19-3.2a3.86,3.86,0,0,0-5.46-5.46L191,437.32a11.61,11.61,0,0,0-13.18,2.26l-9.62,9.58A11.6,11.6,0,0,0,155,451.42L130.43,476l-8.19-8.19a3.86,3.86,0,0,0-5.46,0l-10.92,10.92a3.86,3.86,0,0,0,0,5.46l2.73,2.73-8.19,8.19a11.57,11.57,0,0,0-2.26,13.18L84,522.4a11.6,11.6,0,0,0-2.26,13.18l-3.2,3.19A3.86,3.86,0,1,0,84,544.23l2.73-2.73L92.21,547Zm16.38-10.92L89.48,533.31a3.87,3.87,0,0,1,0-5.46l2.73-2.73,16.38,16.38-2.73,2.73A3.86,3.86,0,0,1,100.4,544.23Zm19.11-13.65L114.05,536,97.67,519.66l5.46-5.46Zm32.76-65.51,16.38,16.38-5.46,5.46-16.38-16.38Zm31-20a3.86,3.86,0,0,1,5.47,5.45l-9.15,9.11-5.46-5.46Zm-17.33,11.83,10.91,10.91h0a3.87,3.87,0,0,1,0,5.46L174.11,476l-16.38-16.38,2.73-2.73A3.86,3.86,0,0,1,165.92,456.88ZM141.35,476l16.38,16.38-5.46,5.46-16.38-16.38Zm-21.84,0,38.22,38.22-5.46,5.45-38.22-38.21Zm-13.65,24.56,8.19-8.18,27.3,27.29-8.19,8.19a3.86,3.86,0,0,1-5.46,0L105.86,506A3.87,3.87,0,0,1,105.86,500.55Z" transform="translate(10.52 19)"/><g id="part6"><path class="cls-1" d="M256.32,745.74a39.45,39.45,0,0,0,1.47-10.59A40.15,40.15,0,1,0,217,775.26a40.12,40.12,0,1,0,39.32-29.52Zm-38.67,25.32a35.92,35.92,0,1,1,35.91-35.91,35.51,35.51,0,0,1-1.71,10.75,42.23,42.23,0,0,0-4.7.74,31.69,31.69,0,1,0-53.42,9.26l3.19-2.77a27.51,27.51,0,0,1-6.65-15.87h8.36V733h-8.35a28.11,28.11,0,0,1,.69-4.33l7.94,2.58,1.3-4-8-2.58a26.65,26.65,0,0,1,2-3.9l6.74,4.9,2.48-3.42-6.75-4.9a27.5,27.5,0,0,1,3.1-3.1l4.91,6.75,3.41-2.49-4.89-6.74a27.55,27.55,0,0,1,3.89-2l2.59,8,4-1.31-2.57-7.93a26.78,26.78,0,0,1,4.33-.69v8.34h4.22v-8.35a27.73,27.73,0,0,1,4.33.69l-2.57,7.94,4,1.3,2.58-8a26.54,26.54,0,0,1,3.89,2l-4.89,6.74,3.42,2.48,4.9-6.75a28.36,28.36,0,0,1,3.1,3.1l-6.75,4.91,2.49,3.41,6.74-4.89a27.5,27.5,0,0,1,2,3.89l-8,2.59,1.3,4,7.94-2.57A27.92,27.92,0,0,1,245,733h-8.34v4.22H245a27.45,27.45,0,0,1-3.28,11,40.24,40.24,0,0,0-18.21,13.66,26.94,26.94,0,0,1-5.88.7,27.47,27.47,0,0,1-18-6.73l-2.77,3.19a31.71,31.71,0,0,0,20.76,7.77c.91,0,1.85-.09,2.78-.18a40.32,40.32,0,0,0-2,4.37Zm38,50.71a35.92,35.92,0,1,1,35.92-35.92A36,36,0,0,1,255.68,821.77Z" transform="translate(10.52 19)"/><path class="cls-1" d="M255.68,754.16A31.73,31.73,0,0,0,224,785.85V788h16.91v-2.12a14.76,14.76,0,0,1,24.67-11l-10,30a6.41,6.41,0,1,0,4,1.36l9.13-27.4a14.71,14.71,0,0,1,1.78,7V788h16.9v-2.12A31.73,31.73,0,0,0,255.68,754.16Zm0,59.16a2.11,2.11,0,1,1,2.11-2.11A2.11,2.11,0,0,1,255.68,813.32Zm18.89-29.58a18.89,18.89,0,0,0-4.2-9.92l2.1-6.31-4-1.34L267,770.58a19,19,0,0,0-30.21,13.16h-8.49a27.47,27.47,0,0,1,54.77,0Z" transform="translate(10.52 19)"/><path class="cls-1" d="M291.6,703.45H274.69v12.68H291.6Zm-4.23,8.45h-8.45v-4.22h8.45Z" transform="translate(10.52 19)"/><path class="cls-1" d="M306.64,709.17l-6.59-6.59v-1.24a6.35,6.35,0,0,0-6.34-6.34H272.58a6.35,6.35,0,0,0-6.34,6.34V729.2a6.32,6.32,0,0,0-4.22,5.95v6.33h42.25v-6.33a6.32,6.32,0,0,0-4.22-5.95v-2.51h2.11a6.34,6.34,0,0,0,6.34-6.34v-6.7A6.29,6.29,0,0,0,306.64,709.17Zm-34.06-9.94h21.13a2.1,2.1,0,0,1,2.11,2.11v27.47H270.47V701.34A2.1,2.1,0,0,1,272.58,699.23Zm27.47,38H266.24v-2.11a2.12,2.12,0,0,1,2.11-2.12h29.59a2.12,2.12,0,0,1,2.11,2.12Zm4.22-16.91a2.11,2.11,0,0,1-2.11,2.12h-2.11V708.55l3.61,3.61a2.13,2.13,0,0,1,.61,1.49Z" transform="translate(10.52 19)"/><path class="cls-1" d="M217.65,758.39a6.33,6.33,0,0,0,2.11-12.29V724.58h-4.23V746.1a6.33,6.33,0,0,0,2.12,12.29Zm0-8.45a2.11,2.11,0,1,1-2.12,2.11A2.11,2.11,0,0,1,217.65,749.94Z" transform="translate(10.52 19)"/></g><g id="part5"><path class="cls-1" d="M510.28,887.58a7.85,7.85,0,0,0,5.73-3.21l20.6-28.48a2.2,2.2,0,0,0-3.08-3.07l-28.48,20.6a7.84,7.84,0,0,0,4.61,14.18Zm-4-8.09a3.41,3.41,0,0,1,1.4-2.51L525,864.41l-12.56,17.37a3.44,3.44,0,0,1-2.52,1.41,3.49,3.49,0,0,1-2.7-1A3.42,3.42,0,0,1,506.24,879.49Z" transform="translate(10.52 19)"/><path class="cls-1" d="M559.56,847a.78.78,0,0,1,0-.14l-.1-.11a59.77,59.77,0,0,0-7.84-10.58l4.72-4.72,3.12,3.11,9.33-9.34-9.33-9.33-9.34,9.33,3.11,3.12-4.72,4.72a60,60,0,0,0-10.58-7.85s-.07-.07-.11-.09a1.21,1.21,0,0,0-.14,0,59.08,59.08,0,0,0-22.6-7.49V815h3.3a5.5,5.5,0,1,0,0-11h-19.8a5.5,5.5,0,0,0,0,11h3.3v2.54a61.67,61.67,0,0,0-7.09,1.18,2.2,2.2,0,1,0,1,4.29,53.07,53.07,0,0,1,6.11-1l2.36-.18c.72-.06,1.39-.1,2-.13V826a2.2,2.2,0,0,0,4.4,0v-4.33a54.65,54.65,0,0,1,23,6.25l-2.17,3.76a2.2,2.2,0,1,0,3.81,2.2l2.16-3.75a55.48,55.48,0,0,1,17.1,17.1l-3.75,2.16a2.21,2.21,0,0,0,2.21,3.82l3.75-2.17A54.5,54.5,0,0,1,563,874.4h-4.34a2.2,2.2,0,0,0,0,4.4H563a54.54,54.54,0,0,1-6.27,23.36L553,900a2.2,2.2,0,1,0-2.2,3.81l3.74,2.16a55.34,55.34,0,0,1-17.09,17.1l-2.17-3.74a2.2,2.2,0,1,0-3.81,2.2l2.17,3.75a54.5,54.5,0,0,1-23,6.26V927.2a2.2,2.2,0,0,0-4.4,0v4.35a55.22,55.22,0,0,1-10.51-1.36,2.2,2.2,0,0,0-1,4.29A59.58,59.58,0,0,0,508.07,936h.41a59,59,0,0,0,29.08-7.86,1.21,1.21,0,0,0,.2-.09s.07-.07.11-.09a59.82,59.82,0,0,0,21.5-21.48,1.15,1.15,0,0,0,.14-.17s0-.09,0-.14a59.16,59.16,0,0,0,0-59.12Zm-.16-24.89,3.11,3.11-3.11,3.12-3.11-3.12Zm-53.18-4.9V810.6h-7.7a1.1,1.1,0,1,1,0-2.2h19.8a1.1,1.1,0,0,1,0,2.2h-7.7v6.65c-.76,0-1.49,0-2.2,0h-.35l-1.09,0Z" transform="translate(10.52 19)"/><path class="cls-1" d="M488.62,834.8h-11a2.2,2.2,0,1,0,0,4.4h11a2.2,2.2,0,0,0,0-4.4Z" transform="translate(10.52 19)"/><path class="cls-1" d="M488.62,850.2h-22a2.2,2.2,0,0,0,0,4.4h22a2.2,2.2,0,0,0,0-4.4Z" transform="translate(10.52 19)"/><path class="cls-1" d="M488.62,865.6h-33a2.2,2.2,0,1,0,0,4.4h33a2.2,2.2,0,1,0,0-4.4Z" transform="translate(10.52 19)"/><path class="cls-1" d="M488.62,881h-41.8a2.2,2.2,0,1,0,0,4.4h41.8a2.2,2.2,0,1,0,0-4.4Z" transform="translate(10.52 19)"/><path class="cls-1" d="M488.62,896.4H460a2.2,2.2,0,1,0,0,4.4h28.6a2.2,2.2,0,0,0,0-4.4Z" transform="translate(10.52 19)"/><path class="cls-1" d="M488.62,911.8h-15.4a2.2,2.2,0,0,0,0,4.4h15.4a2.2,2.2,0,0,0,0-4.4Z" transform="translate(10.52 19)"/></g><g id="part4"><circle class="cls-1" cx="809.71" cy="752.93" r="2.13"/><path class="cls-1" d="M787,752.05Z" transform="translate(10.52 19)"/><path class="cls-1" d="M781.06,746.13Z" transform="translate(10.52 19)"/><path class="cls-1" d="M831,729.21h-2.6a34.36,34.36,0,0,0-4-9.58l1.83-1.84a5.31,5.31,0,0,0,0-7.52L822,706.05a5.32,5.32,0,0,0-7.51,0l-1.84,1.84a34.57,34.57,0,0,0-9.59-4v-2.6a5.32,5.32,0,0,0-5.32-5.31h-6a5.31,5.31,0,0,0-5.31,5.31v2.6a34.15,34.15,0,0,0-9.59,4l-1.84-1.84a5.32,5.32,0,0,0-7.51,0l-4.23,4.22a5.33,5.33,0,0,0,0,7.52l1.84,1.83a34.25,34.25,0,0,0-4,9.59h-2.6a5.32,5.32,0,0,0-5.31,5.32v6a5.31,5.31,0,0,0,5.31,5.31h2.6a34.65,34.65,0,0,0,3.94,9.55l.46.78-35.13,35.14a18.93,18.93,0,0,0-24.11,24.59,1.94,1.94,0,0,0,1.4,1.19,1.91,1.91,0,0,0,1.76-.52l9.87-9.87,4.87,2,2.16,5.05-9.85,9.86a1.92,1.92,0,0,0,.67,3.15,18.94,18.94,0,0,0,20.18-4.28,19.07,19.07,0,0,0,4.41-19.82l6.52-6.52a1.92,1.92,0,0,0-2.72-2.72l-7.42,7.41a1.93,1.93,0,0,0-.39,2.15,15.07,15.07,0,0,1-16.18,21l8.43-8.43a1.92,1.92,0,0,0,.4-2.11l-3-7a1.91,1.91,0,0,0-1-1l-6.79-2.8a1.94,1.94,0,0,0-2.1.42l-8.42,8.43a15.07,15.07,0,0,1,21-16.18,1.9,1.9,0,0,0,2.14-.4l48.77-48.76a1.91,1.91,0,0,0,.39-2.14,15.08,15.08,0,0,1,16.18-21h0l-8.45,8.45,0,0h0l0,0v0h0l0,0h0v0h0v0h0v0h0v0h0v0h0v0h0v0h0v0h0v0h0v0h0v0h0v0h0v0h0v.06h0v0h0v0h0v0h0v.06h0v.06h0v.06h0v.06h0v.06h0v.06h0v.06h0v0h0v0h0v0h0v0h0v0h0v0h0v0h0v0h0v0h0v0h0v0h0v0h0v0h0v.06h0v0h0v0h0v.06h0v0h0v0h0l2.82,6.76a2,2,0,0,0,1,1l7,3a1.92,1.92,0,0,0,2.12-.4l8.45-8.46a15.07,15.07,0,0,1-21,16.18,1.93,1.93,0,0,0-2.14.4L751.07,788a1.92,1.92,0,0,0,2.72,2.72l23.39-23.38a34.58,34.58,0,0,0,9.32,3.81v2.6a5.31,5.31,0,0,0,5.31,5.31h6a5.31,5.31,0,0,0,5.31-5.31v-2.6a34.12,34.12,0,0,0,9.59-4l1.84,1.84a5.32,5.32,0,0,0,7.51,0l4.23-4.23a5.32,5.32,0,0,0,0-7.51l-1.84-1.84a34.42,34.42,0,0,0,4-9.59H831a5.31,5.31,0,0,0,5.31-5.31v-6A5.32,5.32,0,0,0,831,729.21Zm-27.21,7.15-3.89,3.9-5.06-2.32-2-4.7,4.84-4.84,5.43,1.62,1.62,5.42Zm28.67,4.14A1.47,1.47,0,0,1,831,742h-3.58a2.64,2.64,0,0,0-2.56,2.07,30.53,30.53,0,0,1-4.19,10.11,2.64,2.64,0,0,0,.34,3.28l2.53,2.53a1.46,1.46,0,0,1,.43,1,1.42,1.42,0,0,1-.43,1l-4.22,4.23a1.47,1.47,0,0,1-2.07,0l-2.53-2.53a2.65,2.65,0,0,0-3.28-.35,30.58,30.58,0,0,1-10.12,4.19,2.64,2.64,0,0,0-2.07,2.57v3.57a1.47,1.47,0,0,1-1.47,1.47h-6a1.46,1.46,0,0,1-1.46-1.47v-3.57a2.65,2.65,0,0,0-2.08-2.57,30.12,30.12,0,0,1-8.27-3.09l3.65-3.66a25.84,25.84,0,0,0,36.51-18.33,1.93,1.93,0,0,0-3.78-.74,22,22,0,0,1-29.81,16.16l2.23-2.24a18.93,18.93,0,0,0,24.11-24.59,1.93,1.93,0,0,0-3.16-.67l-2,1.94-1.32-4.43a2,2,0,0,0-1.29-1.29l-4.43-1.32,1.94-1.95a1.93,1.93,0,0,0-.67-3.16,18.93,18.93,0,0,0-24.59,24.11l-2.55,2.55a22,22,0,1,1,41.72-12.19,1.92,1.92,0,1,0,3.81-.5A25.84,25.84,0,1,0,772,749.72l-3.61,3.61a30.58,30.58,0,0,1-3.68-9.29,2.64,2.64,0,0,0-2.56-2.07H758.6a1.46,1.46,0,0,1-1.46-1.47v-6a1.46,1.46,0,0,1,1.46-1.47h3.58a2.64,2.64,0,0,0,2.56-2.07,30.58,30.58,0,0,1,4.19-10.12,2.63,2.63,0,0,0-.35-3.28l-2.52-2.52a1.46,1.46,0,0,1,0-2.08l4.22-4.22a1.47,1.47,0,0,1,2.07,0l2.53,2.53a2.64,2.64,0,0,0,3.28.34,30.61,30.61,0,0,1,10.11-4.19,2.63,2.63,0,0,0,2.08-2.56v-3.58a1.47,1.47,0,0,1,1.46-1.46h6a1.47,1.47,0,0,1,1.46,1.46v3.58a2.64,2.64,0,0,0,2.08,2.56,30.61,30.61,0,0,1,10.11,4.19,2.64,2.64,0,0,0,3.28-.34l2.53-2.53a1.47,1.47,0,0,1,2.07,0l4.22,4.22a1.46,1.46,0,0,1,0,2.08L821,717.59a2.63,2.63,0,0,0-.35,3.28A30.58,30.58,0,0,1,824.86,731a2.64,2.64,0,0,0,2.56,2.07H831a1.46,1.46,0,0,1,1.46,1.47v6Z" transform="translate(10.52 19)"/><path class="cls-1" d="M744.26,734.12h-1.08a14.51,14.51,0,0,0-.72-1.74l.77-.76a2.89,2.89,0,0,0,0-4.08l-3.35-3.36a2.9,2.9,0,0,0-4.08,0l-.77.76a15.32,15.32,0,0,0-1.73-.71v-1.08a2.9,2.9,0,0,0-2.89-2.89h-4.74a2.89,2.89,0,0,0-2.89,2.89v1.08a16.28,16.28,0,0,0-1.74.71l-.76-.76a2.9,2.9,0,0,0-4.08,0l-3.36,3.36a2.9,2.9,0,0,0,0,4.08l.77.76a14.51,14.51,0,0,0-.72,1.74H711.8a2.89,2.89,0,0,0-2.89,2.88v4.75a2.9,2.9,0,0,0,2.89,2.89h1.08a13.72,13.72,0,0,0,.72,1.73l-.77.76a2.91,2.91,0,0,0,0,4.09l3.36,3.35a2.87,2.87,0,0,0,4.08,0l.76-.76a18.75,18.75,0,0,0,1.74.72v1.08a2.88,2.88,0,0,0,2.89,2.88h4.74a2.89,2.89,0,0,0,2.89-2.88v-1.08a17.5,17.5,0,0,0,1.73-.72l.77.76a2.87,2.87,0,0,0,4.08,0l3.36-3.35a2.9,2.9,0,0,0,0-4.09l-.76-.76a13.72,13.72,0,0,0,.72-1.73h1.08a2.9,2.9,0,0,0,2.89-2.89V737A2.89,2.89,0,0,0,744.26,734.12Zm-1,6.67h-1.56a1.93,1.93,0,0,0-1.87,1.47,12.16,12.16,0,0,1-1.43,3.45,2,2,0,0,0,.28,2.37l1.1,1.1-2,2-1.1-1.1a1.94,1.94,0,0,0-2.36-.28,12.22,12.22,0,0,1-3.46,1.43,1.93,1.93,0,0,0-1.47,1.87v1.55h-2.82v-1.55a1.93,1.93,0,0,0-1.47-1.87,12.22,12.22,0,0,1-3.46-1.43,1.92,1.92,0,0,0-2.36.28l-1.1,1.1-2-2,1.09-1.1a1.94,1.94,0,0,0,.29-2.37,11.61,11.61,0,0,1-1.43-3.45,1.93,1.93,0,0,0-1.87-1.47h-1.56V738h1.56a1.93,1.93,0,0,0,1.87-1.47,11.67,11.67,0,0,1,1.43-3.46,1.92,1.92,0,0,0-.29-2.36l-1.09-1.1,2-2,1.1,1.1a1.92,1.92,0,0,0,2.36.29,11.67,11.67,0,0,1,3.46-1.43,1.93,1.93,0,0,0,1.47-1.87v-1.56h2.82v1.56a1.93,1.93,0,0,0,1.47,1.87,11.78,11.78,0,0,1,3.46,1.43,1.92,1.92,0,0,0,2.36-.29l1.1-1.1,2,2-1.1,1.1a1.93,1.93,0,0,0-.28,2.36,12.22,12.22,0,0,1,1.43,3.46,1.93,1.93,0,0,0,1.87,1.47h1.56v2.82Z" transform="translate(10.52 19)"/><path class="cls-1" d="M728,730a9.37,9.37,0,1,0,9.36,9.37A9.38,9.38,0,0,0,728,730Zm0,14.88a5.52,5.52,0,1,1,5.52-5.51A5.52,5.52,0,0,1,728,744.89Z" transform="translate(10.52 19)"/><path class="cls-1" d="M811.49,797.75h-1.08a17.5,17.5,0,0,0-.72-1.73l.76-.76a2.89,2.89,0,0,0,0-4.09l-3.35-3.35a2.89,2.89,0,0,0-4.09,0l-.76.76a17.5,17.5,0,0,0-1.73-.72v-1.08a2.89,2.89,0,0,0-2.89-2.88h-4.75a2.88,2.88,0,0,0-2.88,2.88v1.08a17.68,17.68,0,0,0-1.74.72l-.76-.76a2.87,2.87,0,0,0-4.08,0l-3.36,3.35a2.91,2.91,0,0,0,0,4.09l.76.76a15.32,15.32,0,0,0-.71,1.73H779a2.9,2.9,0,0,0-2.89,2.89v4.75a2.89,2.89,0,0,0,2.89,2.88h1.08a14.74,14.74,0,0,0,.71,1.74l-.76.76a2.9,2.9,0,0,0,0,4.08l3.36,3.36a2.9,2.9,0,0,0,4.08,0l.76-.76a14.74,14.74,0,0,0,1.74.71v1.08a2.88,2.88,0,0,0,2.88,2.89h4.75a2.89,2.89,0,0,0,2.89-2.89v-1.08a15.32,15.32,0,0,0,1.73-.71l.76.76a2.91,2.91,0,0,0,4.09,0l3.35-3.36a2.88,2.88,0,0,0,0-4.08l-.76-.76a16.72,16.72,0,0,0,.72-1.74h1.08a2.88,2.88,0,0,0,2.88-2.88v-4.75A2.89,2.89,0,0,0,811.49,797.75Zm-1,6.67H809a1.92,1.92,0,0,0-1.87,1.48,12.28,12.28,0,0,1-1.43,3.45,1.92,1.92,0,0,0,.28,2.36l1.1,1.1-2,2-1.09-1.1a1.92,1.92,0,0,0-2.37-.28,12.16,12.16,0,0,1-3.45,1.43,1.92,1.92,0,0,0-1.47,1.87v1.55h-2.82v-1.55a1.92,1.92,0,0,0-1.48-1.87,12.28,12.28,0,0,1-3.45-1.43,1.91,1.91,0,0,0-2.36.28l-1.1,1.1-2-2,1.1-1.1a1.91,1.91,0,0,0,.28-2.36,12,12,0,0,1-1.42-3.45,1.94,1.94,0,0,0-1.88-1.48H780V801.6h1.55a1.94,1.94,0,0,0,1.88-1.47,11.86,11.86,0,0,1,1.42-3.45,1.92,1.92,0,0,0-.28-2.37l-1.1-1.09,2-2,1.1,1.1a1.92,1.92,0,0,0,2.36.28,12.28,12.28,0,0,1,3.45-1.43,1.92,1.92,0,0,0,1.48-1.87v-1.55h2.82v1.55a1.93,1.93,0,0,0,1.47,1.87,12.16,12.16,0,0,1,3.45,1.43,1.94,1.94,0,0,0,2.37-.28l1.09-1.1,2,2-1.1,1.09a1.94,1.94,0,0,0-.28,2.37,12.16,12.16,0,0,1,1.43,3.45A1.93,1.93,0,0,0,809,801.6h1.55Z" transform="translate(10.52 19)"/><path class="cls-1" d="M795.26,793.65a9.37,9.37,0,1,0,9.36,9.36A9.37,9.37,0,0,0,795.26,793.65Zm0,14.88a5.52,5.52,0,1,1,5.51-5.52A5.52,5.52,0,0,1,795.26,808.53Z" transform="translate(10.52 19)"/></g><g id="part3"><path class="cls-1" d="M878.5,438a61,61,0,1,0,61,61A61.13,61.13,0,0,0,878.5,438Zm30,105.73-1.84-3.18a3.57,3.57,0,0,0-6.19,3.57l1.85,3.19a53.31,53.31,0,0,1-20.2,5.42V549a3.57,3.57,0,1,0-7.14,0v3.69a53.5,53.5,0,0,1-20.2-5.42l1.85-3.19a3.57,3.57,0,1,0-6.19-3.57l-1.84,3.18A54.14,54.14,0,0,1,833.77,529l3.18-1.84a3.57,3.57,0,1,0-3.57-6.19l-3.19,1.85a53.5,53.5,0,0,1-5.42-20.2h3.69a3.57,3.57,0,1,0,0-7.14h-3.69a53.5,53.5,0,0,1,5.42-20.2l3.19,1.85a3.57,3.57,0,0,0,3.57-6.19l-3.18-1.84a54.14,54.14,0,0,1,14.78-14.78l1.83,3.18a3.58,3.58,0,0,0,6.2-3.57l-1.85-3.19a53.5,53.5,0,0,1,20.2-5.42V449a3.57,3.57,0,1,0,7.14,0v-3.69a53.5,53.5,0,0,1,20.2,5.42l-1.85,3.19a3.57,3.57,0,1,0,6.19,3.57l1.84-3.18a54.14,54.14,0,0,1,14.78,14.78l-3.18,1.84a3.57,3.57,0,1,0,3.57,6.19l3.19-1.85a53.5,53.5,0,0,1,5.42,20.2h-3.69a3.57,3.57,0,1,0,0,7.14h3.69a53.5,53.5,0,0,1-5.42,20.2l-3.19-1.85a3.57,3.57,0,0,0-3.57,6.19l3.18,1.84A54.14,54.14,0,0,1,908.45,543.73Z" transform="translate(10.52 19)"/><path class="cls-1" d="M878.5,459.68A39.32,39.32,0,1,0,917.82,499,39.37,39.37,0,0,0,878.5,459.68Zm0,71.49A32.17,32.17,0,1,1,910.67,499,32.2,32.2,0,0,1,878.5,531.17Z" transform="translate(10.52 19)"/><path class="cls-1" d="M878.5,474a25,25,0,1,0,25,25A25,25,0,0,0,878.5,474Zm14.9,34.87-5.23-5.23a9.69,9.69,0,0,0,.44-1.05H896A17.62,17.62,0,0,1,893.4,508.85Zm-29.8-19.7,5.23,5.23a9.69,9.69,0,0,0-.44,1.05H861A17.62,17.62,0,0,1,863.6,489.15ZM881,501.52l0,0a3.57,3.57,0,0,1-5,0v0h0a3.57,3.57,0,0,1,0-5h0v0a3.57,3.57,0,0,1,5,0l0,0h0a3.57,3.57,0,0,1,0,5Zm2.09-12.19a9.69,9.69,0,0,0-1-.44v-7.4a17.62,17.62,0,0,1,6.28,2.61Zm-8.19-.44a9.69,9.69,0,0,0-1,.44l-5.23-5.23a17.62,17.62,0,0,1,6.28-2.61ZM861,502.57h7.4a9.69,9.69,0,0,0,.44,1.05l-5.23,5.23A17.62,17.62,0,0,1,861,502.57Zm12.89,6.1a9.69,9.69,0,0,0,1,.44v7.4a17.62,17.62,0,0,1-6.28-2.61Zm8.19.44a9.69,9.69,0,0,0,1-.44l5.23,5.23a17.62,17.62,0,0,1-6.28,2.61Zm6.54-13.68a9.69,9.69,0,0,0-.44-1.05l5.23-5.23a17.62,17.62,0,0,1,2.61,6.28Z" transform="translate(10.52 19)"/></g><g id="part2"><path class="cls-1" d="M830,182.93l-7.87-7.88a14.39,14.39,0,0,0-19.29-.66l-13.83,12a2.12,2.12,0,0,0-.45.54l-13.47,22.43-8.65,2.88a2.22,2.22,0,0,0-.86,3.68l23.56,23.57a2.22,2.22,0,0,0,3.68-.87l2.88-8.65,22.77-13.75a2.08,2.08,0,0,0,.53-.45l11.71-13.57A14.39,14.39,0,0,0,830,182.93Zm-2.66,16.36-11.47,13.3-23.16,14a2.12,2.12,0,0,0-1,1.2l-2,6-5.31-5.31h0l-7.86-7.86h0l-5.31-5.31,6-2a2.2,2.2,0,0,0,1.2-1l13.71-22.83,13.56-11.76a9.86,9.86,0,0,1,13.23.45l7.88,7.87A9.87,9.87,0,0,1,827.38,199.29Z" transform="translate(10.52 19)"/><path class="cls-1" d="M823.74,260.27a24.45,24.45,0,0,0-24.82-6L751.7,207.09a24.45,24.45,0,0,0-32.18-30.3,2.21,2.21,0,0,0-1.37,1.61,2.24,2.24,0,0,0,.6,2l14.14,14.13L723.46,204l-14.13-14.14a2.23,2.23,0,0,0-3.64.76A24.45,24.45,0,0,0,736,222.8l17.65,17.65-22,22-14,7.82a2.26,2.26,0,0,0-.9.94l-6.29,12.57a2.24,2.24,0,0,0,.42,2.57l7.85,7.85a2.25,2.25,0,0,0,2.57.42l12.57-6.29a2.1,2.1,0,0,0,.94-.9l7.82-14,22-22L783.21,270a24.44,24.44,0,0,0,32.18,30.3,2.23,2.23,0,0,0,.76-3.64L802,282.54l9.43-9.43,14.13,14.14a2.23,2.23,0,0,0,3.64-.76A24.46,24.46,0,0,0,823.74,260.27Zm-84.45,10.24a2.52,2.52,0,0,0-.37.49l-7.63,13.66-10.53,5.26-5.59-5.59,5.27-10.53,13.65-7.63a2.52,2.52,0,0,0,.49-.37l22.2-22.21,4.72,4.72Zm86.78,10.95L813,268.4a2.22,2.22,0,0,0-3.14,0L797.3,281a2.22,2.22,0,0,0,0,3.14l13.06,13.06a20,20,0,0,1-22.52-26.92,2.21,2.21,0,0,0-.5-2.38l-49.21-49.21a2.19,2.19,0,0,0-1.57-.65,2.32,2.32,0,0,0-.81.15,20,20,0,0,1-26.92-22.52l13.06,13.06a2.22,2.22,0,0,0,3.14,0l12.57-12.57a2.22,2.22,0,0,0,0-3.14l-13.06-13.06a20,20,0,0,1,22.52,26.92,2.23,2.23,0,0,0,.5,2.38l49.21,49.21a2.23,2.23,0,0,0,2.38.5,20,20,0,0,1,26.92,22.52Z" transform="translate(10.52 19)"/></g><g id="part1"><path class="cls-1" d="M544,77.5a53.54,53.54,0,0,0-75,0A55.11,55.11,0,0,0,452.75,113,51.49,51.49,0,0,0,456,134.51a56.29,56.29,0,0,0,12.29,19.18l37,38.77a1.74,1.74,0,0,0,2.46.06l.06-.06,37-38.77a56.29,56.29,0,0,0,12.29-19.18A51.65,51.65,0,0,0,560.27,113,55.11,55.11,0,0,0,544,77.5Zm9.81,55.8a52.79,52.79,0,0,1-11.55,18l-35.74,37.46-35.75-37.46a52.76,52.76,0,0,1-11.54-18,48.08,48.08,0,0,1-3-20.08A51.57,51.57,0,0,1,471.47,80a50.06,50.06,0,0,1,70.08,0,51.62,51.62,0,0,1,15.25,33.24A48.08,48.08,0,0,1,553.8,133.3Z" transform="translate(10.52 19)"/><path class="cls-1" d="M506.51,76a37.94,37.94,0,1,0,37.94,37.94A38,38,0,0,0,506.51,76Zm0,72.41A34.47,34.47,0,1,1,541,113.92,34.47,34.47,0,0,1,506.51,148.39Z" transform="translate(10.52 19)"/><path class="cls-1" d="M502.06,114.18a1.74,1.74,0,0,0-1.74-1.74h-4V90.16a1.74,1.74,0,0,0-3.48,0h0v22.28h-4a1.74,1.74,0,0,0,0,3.47l-1.28,4.39a1.91,1.91,0,0,0-.06.48v13.3a5.58,5.58,0,0,0,5.57,5.58h3.08a5.6,5.6,0,0,0,5.58-5.58v-13.3a1.92,1.92,0,0,0-.07-.48l-1.28-4.39A1.74,1.74,0,0,0,502.06,114.18Zm-3.84,19.9a2.1,2.1,0,0,1-2.1,2.1H493a2.1,2.1,0,0,1-2.1-2.1V121l1.49-5.12h4.3l1.49,5.12Z" transform="translate(10.52 19)"/><path class="cls-1" d="M519,88.38a1.74,1.74,0,0,0-2.33.77,1.78,1.78,0,0,0-.18.78V95.2l-3,2L510.29,95l0-5.09a1.73,1.73,0,0,0-1.73-1.74,1.63,1.63,0,0,0-.78.18,12.44,12.44,0,0,0-7,11.23,12.58,12.58,0,0,0,7,11.26v23.28a5.52,5.52,0,1,0,11,0h0V110.86A12.54,12.54,0,0,0,519,88.38Zm-2.42,19.72a1.73,1.73,0,0,0-1.13,1.62v24.42a2,2,0,0,1-4.09,0V109.72a1.73,1.73,0,0,0-1.13-1.62,9.08,9.08,0,0,1-5.31-11.69,8.94,8.94,0,0,1,1.94-3.08v2.59a1.72,1.72,0,0,0,.74,1.43l4.85,3.39a1.73,1.73,0,0,0,2,0l4.79-3.19a1.73,1.73,0,0,0,.77-1.44v-2.8a9.08,9.08,0,0,1-3.38,14.77Z" transform="translate(10.52 19)"/></g><g id="mechanicLogo"><path class="cls-1" d="M507,515.49c24.12,0,80.84-29,80.84-98.6,0-9.71-.23-19.08-1-27.94-1.32-17.43-4.89-32.88-13.78-44.72-11.4-16.11-31.35-25.94-66-25.94s-54.63,9.83-66,25.94c-8.89,11.84-12.46,27.29-13.77,44.73-.8,8.85-1,18.23-1,27.93C426.13,486.46,482.85,515.49,507,515.49Zm26.38-161.08c-2.35,5.95-3.53,8.93-5.89,14.88-15.2-4.3-25.79-4.3-41,0-2.35-6-3.53-8.93-5.89-14.88C499.6,348.65,514.35,348.65,533.36,354.41Zm-95.2,47.39c.93,2,4.89,9.87,11,10.61,7,.84,18.73-24.94,57.81-25s50.76,25.84,57.8,25c6.13-.74,10.08-8.57,11-10.61.19,5,.26,10.05.26,15.09,0,34-15,55.07-27.61,66.76C532.57,498.38,515,503.72,507,503.72s-25.6-5.34-41.47-20.07c-12.6-11.69-27.61-32.76-27.61-66.76C437.9,411.85,438,406.8,438.16,401.8Z" transform="translate(10.52 19)"/><path class="cls-1" d="M657.07,616.61c-4.13-25.66-12.63-58.72-29.67-70.47-11.64-8-52.25-29.72-69.59-39l-.29-.16a5.66,5.66,0,0,0-6.17.54,73.8,73.8,0,0,1-29.58,14.29,5.62,5.62,0,0,0-4.06,3.52L507,553.64l-10.74-28.29a5.62,5.62,0,0,0-4.06-3.52,73.8,73.8,0,0,1-29.58-14.29,5.66,5.66,0,0,0-6.17-.54c-17.13,9.16-58.24,31.29-69.83,39.11-19.62,13.21-28.2,61-29.72,70.5a5.68,5.68,0,0,0,.26,2.8c.41,1.17,6.9,18,39.35,31.49a16.23,16.23,0,0,1,7.17-5.15A16,16,0,0,1,394.94,623,47.41,47.41,0,0,1,476,619.31h61.93a47.53,47.53,0,0,1,39.37-21.06h0A47.53,47.53,0,0,1,619,622.85a16,16,0,0,1-8.67,22.79,16,16,0,0,1,7.27,5.23c32.37-13.51,38.85-30.29,39.27-31.46A5.79,5.79,0,0,0,657.07,616.61Z" transform="translate(10.52 19)"/><path class="cls-1" d="M605,658.72h0l-29.84,0c-.53-1.25-1.54-4.74-1.55-13.06s1-11.82,1.51-13.08l29.83,0a2,2,0,0,0,1.77-3,33.45,33.45,0,0,0-60.39,3.71H467.62a33.42,33.42,0,0,0-60.4-3.61,2,2,0,0,0,1.77,3h0l29.84,0c.53,1.26,1.54,4.75,1.55,13.07s-1,11.82-1.52,13.07l-29.82,0a2,2,0,0,0-1.74,1,2,2,0,0,0,0,2,33.45,33.45,0,0,0,29.31,17.35h.05a33.43,33.43,0,0,0,31-21.06h78.66a33.5,33.5,0,0,0,31,21.06h0a33.49,33.49,0,0,0,29.32-17.44,2,2,0,0,0-1.77-3Z" transform="translate(10.52 19)"/></g><path id="circlePath" class="cls-2" d="M879,498.71c0,205.45-166.55,372-372,372s-372-166.55-372-372,166.55-372,372-372c205,0,371.2,165.76,372,370.54C879,497.74,879,498.23,879,498.71Z" transform="translate(10.52 19)"/><line class="cls-2" x1="517.5" x2="517.5" y2="1035"/><line class="cls-2" x1="883.43" y1="151.57" x2="151.57" y2="883.43"/><line class="cls-2" x1="1035" y1="517.5" y2="517.5"/><line class="cls-2" x1="883.43" y1="883.43" x2="151.57" y2="151.57"/></svg>