<svg xmlns="http://www.w3.org/2000/svg" xmlns:xlink="http://www.w3.org/1999/xlink" viewBox="0 0 507.51 783.6"><defs><style>.cls-1,.cls-2,.cls-7,.cls-8{fill:#fff;}.cls-1,.cls-4,.cls-5,.cls-7{fill-rule:evenodd;}.cls-3{fill:url(#linear-gradient);}.cls-4{fill:#d1d3d4;}.cls-5{fill:#bcbec0;}.cls-6{fill:#231f20;opacity:0.2;}.cls-7{opacity:0.1;}.cls-8{font-size:36.12px;font-family:SegoeUI, Segoe UI;}</style><linearGradient id="linear-gradient" x1="253.05" y1="636.79" x2="253.05" y2="40.89" gradientTransform="translate(644.82 138.75) rotate(90)" gradientUnits="userSpaceOnUse"><stop offset="0" stop-color="#2880ba"/><stop offset="1" stop-color="#63b1e2"/></linearGradient></defs><title>phone app</title><g id="Layer_2" data-name="Layer 2"><g id="Layer_1-2" data-name="Layer 1"><g id="_Group_" data-name="&lt;Group&gt;"><g id="_Group_2" data-name="&lt;Group&gt;"><path id="_Path_" data-name="&lt;Path&gt;" class="cls-1" d="M462.26,314.19h0a6.66,6.66,0,0,1,5.15,7.84L461,352.89a6.66,6.66,0,0,1-7.84,5.15h0A6.66,6.66,0,0,1,448,350.2l6.39-30.86A6.66,6.66,0,0,1,462.26,314.19Z"/><path id="_Path_2" data-name="&lt;Path&gt;" class="cls-1" d="M95.42,218.84h0a6.65,6.65,0,0,1,5.15,7.84l-10.24,49.5a6.66,6.66,0,0,1-7.84,5.15h0a6.66,6.66,0,0,1-5.15-7.84L87.58,224A6.66,6.66,0,0,1,95.42,218.84Z"/><path id="_Path_3" data-name="&lt;Path&gt;" class="cls-1" d="M110.42,146.38h0a6.66,6.66,0,0,1,5.15,7.84l-10.25,49.5a6.65,6.65,0,0,1-7.84,5.15h0A6.66,6.66,0,0,1,92.33,201l10.24-49.5A6.66,6.66,0,0,1,110.42,146.38Z"/><rect id="_Path_4" data-name="&lt;Path&gt;" class="cls-2" x="-115.03" y="202.39" width="736.15" height="378.82" rx="38.59" ry="38.59" transform="translate(-181.9 560.2) rotate(-78.31)"/><rect id="_Path_5" data-name="&lt;Path&gt;" class="cls-3" x="-76.43" y="202.39" width="658.97" height="378.82" transform="translate(-181.9 560.2) rotate(-78.31)"/><path id="_Path_6" data-name="&lt;Path&gt;" class="cls-4" d="M297.45,39.57l54.64,11.31a4.39,4.39,0,0,1,3.4,5.18h0a4.4,4.4,0,0,1-5.18,3.41L295.67,48.16a4.39,4.39,0,0,1-3.4-5.18h0A4.4,4.4,0,0,1,297.45,39.57Z"/><path id="_Path_7" data-name="&lt;Path&gt;" class="cls-4" d="M437,76.56a8.31,8.31,0,1,0-6.45-9.82A8.32,8.32,0,0,0,437,76.56Z"/><path id="_Path_8" data-name="&lt;Path&gt;" class="cls-5" d="M438,71.74a3.39,3.39,0,1,0-2.63-4A3.4,3.4,0,0,0,438,71.74Z"/><path id="_Path_9" data-name="&lt;Path&gt;" class="cls-4" d="M459.8,76.26a3.39,3.39,0,1,0-2.63-4A3.41,3.41,0,0,0,459.8,76.26Z"/><g id="_Group_3" data-name="&lt;Group&gt;"><g id="_Group_4" data-name="&lt;Group&gt;"><rect id="_Path_10" data-name="&lt;Path&gt;" class="cls-2" x="479.2" y="120.5" width="16.31" height="1.57" transform="translate(269.82 573.95) rotate(-78.31)"/><rect id="_Path_11" data-name="&lt;Path&gt;" class="cls-2" x="477.01" y="120.84" width="14.38" height="1.57" transform="translate(266.98 571.13) rotate(-78.31)"/><rect id="_Path_12" data-name="&lt;Path&gt;" class="cls-2" x="474.82" y="121.17" width="12.44" height="1.57" transform="translate(264.14 568.31) rotate(-78.31)"/><rect id="_Path_13" data-name="&lt;Path&gt;" class="cls-2" x="472.47" y="121.17" width="11.23" height="1.57" transform="translate(261.77 565.41) rotate(-78.31)"/><rect id="_Path_14" data-name="&lt;Path&gt;" class="cls-2" x="470.38" y="121.63" width="9.06" height="1.57" transform="translate(258.8 562.66) rotate(-78.31)"/><rect id="_Path_15" data-name="&lt;Path&gt;" class="cls-2" x="468.09" y="121.84" width="7.37" height="1.57" transform="translate(256.09 559.76) rotate(-78.31)"/><rect id="_Path_16" data-name="&lt;Path&gt;" class="cls-2" x="465.62" y="122.06" width="5.56" height="1.58" transform="translate(253.18 556.64) rotate(-78.31)"/></g><g id="_Group_5" data-name="&lt;Group&gt;"><path id="_Compound_Path_" data-name="&lt;Compound Path&gt;" class="cls-1" d="M464.05,113.82h0l-1.86,9-17.27-3.58,1.86-9,17.27,3.57Zm-18.75-4.75-2.18,10.53a.81.81,0,0,0,.65,1l18.81,3.9a.83.83,0,0,0,1-.66l2.18-10.53a.82.82,0,0,0-.68-.88l-18.81-3.89a.79.79,0,0,0-1,.54Zm17.7,5.64-4-.83-1.42,6.86,4,.83,1.42-6.86Zm-10.76,4.93,4,.83,1.4-6.75-4-.83-1.4,6.75Zm-9.15-9.42c-.36-.07-.52.13-.72.47l-1.32,6.39c.05.37.14.52.49.59l1.18.25,1.55-7.46Z"/><rect id="_Path_17" data-name="&lt;Path&gt;" class="cls-2" x="446.06" y="113.5" width="6.89" height="4.1" transform="matrix(0.2, -0.98, 0.98, 0.2, 245.26, 532.31)"/></g></g><rect id="_Path_18" data-name="&lt;Path&gt;" class="cls-6" x="167.13" y="501.52" width="48.02" height="378.82" transform="translate(-524.19 738.09) rotate(-78.31)"/><path id="_Compound_Path_2" data-name="&lt;Compound Path&gt;" class="cls-1" d="M194,677A14.25,14.25,0,1,1,177.19,688,14.24,14.24,0,0,1,194,677Zm-.44,2.14A12.06,12.06,0,1,0,203,693.38,12.06,12.06,0,0,0,193.59,679.12Z"/><g id="_Group_6" data-name="&lt;Group&gt;"><path id="_Compound_Path_3" data-name="&lt;Compound Path&gt;" class="cls-1" d="M84.13,682.12,73,669.56l0,0a3.69,3.69,0,0,1,1.29-5.79l15.16-7.16A3.14,3.14,0,0,1,94,660.19l-4.24,20.47a3.12,3.12,0,0,1-5.6,1.46Zm1.64-1.46h0c.73.83,1.59.63,1.82-.45l4.23-20.47c.24-1.15-.47-1.67-1.47-1.2L75.19,665.7a1.51,1.51,0,0,0-.51,2.45Z"/><path id="_Compound_Path_4" data-name="&lt;Compound Path&gt;" class="cls-1" d="M285.46,696.1,313,701.79l-5.7,27.53-27.53-5.69,5.7-27.53Zm1.7,2.59-4.81,23.23,23.24,4.81,4.81-23.23Z"/></g></g><path class="cls-2" d="M258.57,365.1c12.45,2.57,44.82-6.35,52.25-42.25,1-5,1.92-9.87,2.45-14.53,1.18-9.13,1-17.48-2.33-24.54-4.16-9.53-13.41-16.74-31.31-20.44s-29.24-.76-36.84,6.33c-5.85,5.16-9.35,12.75-11.89,21.61-1.35,4.48-2.48,9.3-3.51,14.3C220,341.48,246.13,362.52,258.57,365.1Zm30.82-80.31c-1.85,2.82-2.77,4.23-4.63,7-7.38-3.84-12.84-5-21.15-4.38l-1.45-8.3C272.59,278.22,280.19,279.79,289.39,284.79ZM235.2,299.08c.27,1.15,1.47,5.62,4.55,6.65,3.55,1.19,12.33-10.87,32.5-6.73s23.44,18.76,27.16,19.08c3.24.27,6.12-3.35,6.82-4.3-.44,2.6-.94,5.21-1.48,7.81-3.63,17.55-13.63,26.82-21.38,31.5C273.61,359,264,359.87,259.83,359s-12.63-5.49-19.25-14.78c-5.25-7.38-10.75-19.85-7.12-37.4C234,304.24,234.57,301.64,235.2,299.08Z"/><path class="cls-2" d="M325.22,433.3c.62-13.68-.24-31.65-7.78-39.53-5.15-5.38-23.79-20.91-31.74-27.55l-.14-.11a3,3,0,0,0-3.24-.38,38.75,38.75,0,0,1-16.79,4.21,3,3,0,0,0-2.47,1.39l-8.56,13.45L252,369a3,3,0,0,0-1.72-2.25,38.75,38.75,0,0,1-13.73-10.52,3,3,0,0,0-3.13-.94c-9.82,2.89-33.39,9.93-40.21,12.72-11.53,4.72-21.07,28.49-22.86,33.21a3,3,0,0,0-.17,1.47c.09.65,1.64,10,17,20.45a8.43,8.43,0,0,1,4.24-1.89,8.44,8.44,0,0,1-2.07-12.68,25,25,0,0,1,42.22,6.76l32,6.61a24.29,24.29,0,0,1,3.77-3.05A24.83,24.83,0,0,1,286,415.31h0a25.05,25.05,0,0,1,18.86,17.14A8.43,8.43,0,0,1,298,443.29a8.44,8.44,0,0,1,3.2,3.47c18.14-3.52,23.28-11.48,23.62-12A3,3,0,0,0,325.22,433.3Z"/><path class="cls-2" d="M293.84,449.47h0l-15.4-3.17c-.14-.7-.29-2.61.59-6.91s1.77-6,2.18-6.58l15.4,3.16a1.07,1.07,0,0,0,1-.33,1.05,1.05,0,0,0,.23-1,17.62,17.62,0,0,0-31.56-4.53l-40.59-8.4a17.61,17.61,0,0,0-30.78-8.32,1.06,1.06,0,0,0,.59,1.73h0l15.4,3.16c.14.7.29,2.61-.59,6.91s-1.77,6-2.18,6.58l-15.4-3.16a1.06,1.06,0,0,0-1,.33,1,1,0,0,0-.22,1A17.62,17.62,0,0,0,204.78,442h0a17.62,17.62,0,0,0,18.25-7.56l40.59,8.4a17.65,17.65,0,0,0,13.77,14.18h0a17.65,17.65,0,0,0,17-5.87,1,1,0,0,0,.2-1A1,1,0,0,0,293.84,449.47Z"/><polygon id="_Path_19" data-name="&lt;Path&gt;" class="cls-7" points="136.56 29.93 507.51 106.7 2.64 677.06 136.56 29.93"/><text class="cls-8" transform="translate(155.88 485.67) rotate(11.69)">SERVISER</text></g></g></g></svg>