<?xml version="1.0"?>
<svg xmlns="http://www.w3.org/2000/svg" id="Layer_1" data-name="Layer 1" viewBox="0 0 512 512" width="512" height="512"><title>service location</title><path d="M385.394,83.045a184.829,184.829,0,0,0-258.788,0A190.152,190.152,0,0,0,70.392,205.534a177.834,177.834,0,0,0,11.085,74.313c8.768,23.638,23.044,45.924,42.43,66.237L251.66,479.945a6,6,0,0,0,8.68,0L388.093,346.084c19.386-20.313,33.662-42.6,42.43-66.237a177.834,177.834,0,0,0,11.085-74.313A190.152,190.152,0,0,0,385.394,83.045Zm33.878,192.628c-8.2,22.1-21.607,43-39.859,62.126L256,467.112,132.587,337.8c-18.252-19.124-31.662-40.027-39.859-62.126a165.892,165.892,0,0,1-10.363-69.324A178.161,178.161,0,0,1,135.037,91.584a172.83,172.83,0,0,1,241.926,0,178.161,178.161,0,0,1,52.672,114.765A165.892,165.892,0,0,1,419.272,275.673Z"/><path d="M256,77.777c-72.233,0-131,58.767-131,131s58.767,131,131,131,131-58.766,131-131S328.233,77.777,256,77.777Zm0,250a119,119,0,1,1,119-119A119.134,119.134,0,0,1,256,327.777Z"/><path d="M240.626,209.656a6,6,0,0,0-6-6H220.813V126.729a6,6,0,1,0-12,0v76.927H195a6,6,0,0,0-.113,12l-4.4,15.134a6.011,6.011,0,0,0-.238,1.675v45.908a19.283,19.283,0,0,0,19.261,19.261h10.609a19.284,19.284,0,0,0,19.261-19.261V232.46a6.007,6.007,0,0,0-.239-1.675l-4.4-15.134A6,6,0,0,0,240.626,209.656Zm-13.247,68.712a7.269,7.269,0,0,1-7.261,7.261H209.509a7.269,7.269,0,0,1-7.261-7.261V233.314l5.134-17.658h14.862l5.135,17.658Z"/><path d="M299.02,120.584a6,6,0,0,0-8.681,5.368v18.176l-10.449,6.958-10.822-7.571.06-17.565a6.005,6.005,0,0,0-8.676-5.4,43.075,43.075,0,0,0-24.041,38.788,43.52,43.52,0,0,0,24.241,38.884v80.35a19.053,19.053,0,1,0,38.106,0v-80.35a43.309,43.309,0,0,0,.262-77.642Zm-8.361,68.082a6,6,0,0,0-3.9,5.621v84.289a7.053,7.053,0,0,1-14.106,0V194.287a6,6,0,0,0-3.9-5.621,31.337,31.337,0,0,1-11.663-50.99l-.031,8.935a6,6,0,0,0,2.561,4.937l16.749,11.718a6,6,0,0,0,6.765.078l16.533-11.009a6,6,0,0,0,2.674-4.994V137.7a31.335,31.335,0,0,1-11.68,50.971Z"/></svg>
