<svg height="511pt" viewBox="1 -1 511.998 511" width="511pt" xmlns="http://www.w3.org/2000/svg"><path d="m57.539062 476.035156c-5.863281 5.859375-15.394531 5.859375-21.253906 0l-10.628906-10.628906c-5.867188-5.871094-15.382812-5.871094-21.253906 0-5.871094 5.867188-5.871094 15.382812 0 21.253906l10.625 10.628906c17.578125 17.578126 46.183594 17.578126 63.765625 0l33.710937-33.710937c16.761719 7.984375 37.445313 5.066406 51.304688-8.800781 10.902344-10.898438 38.667968-38.664063 54.949218-54.945313 16.402344 7.851563 37.175782 5.332031 51.328126-8.816406l31.878906-31.882813 10.628906 10.625c5.871094 5.871094 15.382812 5.871094 21.253906 0l42.511719-42.507812c5.867187-5.867188 5.867187-15.386719 0-21.253906l-31.882813-31.882813c23.605469-23.605469 89.9375-89.9375 95.644532-95.644531 13.847656-13.847656 16.78125-34.535156 8.8125-51.285156l37.40625-37.261719c14.148437-14.148437 16.675781-34.917969 8.820312-51.328125l12.4375-12.4375c5.867188-5.871094 5.867188-15.386719 0-21.253906-5.871094-5.871094-15.386718-5.871094-21.257812 0l-12.433594 12.433594c-16.496094-7.894532-37.253906-5.253907-51.308594 8.796874l-37.417968 37.273438c-16.761719-7.996094-37.472657-5.074219-51.332032 8.789062-32.84375 32.84375-62.363281 62.363282-95.644531 95.644532l-31.882813-31.878906c-5.867187-5.867188-15.386718-5.871094-21.253906 0l-42.507812 42.507812c-5.871094 5.871094-5.871094 15.386719 0 21.253906l10.625 10.628906-31.882813 31.882813c-14.144531 14.144531-16.671875 34.914063-8.816406 51.328125-13.53125 13.53125-45.726563 45.726562-54.945313 54.945312-13.855468 13.851563-16.78125 34.550782-8.800781 51.308594l-12.453125 12.453125c-5.871094 5.871094-5.871094 15.386719 0 21.253907 5.867188 5.871093 15.382813 5.871093 21.253906 0l10.628907-10.625 21.253906 21.253906zm63.761719-42.511718-42.507812-42.507813c-5.859375-5.859375-5.859375-15.394531 0-21.253906l10.628906-10.628907 63.761719 63.765626-10.625 10.625c-5.863282 5.859374-15.398438 5.859374-21.257813 0zm74.390625-53.136719-21.253906 21.257812-63.765625-63.765625 21.257813-21.257812zm127.53125-255.054688 63.761719 63.761719-21.253906 21.253906-63.765625-63.761718zm120.609375-77.921875c5.875-5.871094 15.378907-5.875 21.253907 0 5.894531 5.890625 5.847656 15.40625.023437 21.234375l-35.59375 35.453125-21.253906-21.253906zm-67.472656 46.039063 42.480469 42.484375c.003906 0 .003906 0 .003906.003906.003906 0 .003906.003906.007812.003906l.015626.015625c5.859374 5.863281 5.859374 15.394531 0 21.253907l-10.628907 10.628906-63.765625-63.765625 10.628906-10.625c5.859376-5.859375 15.394532-5.859375 21.257813 0zm-95.648437 74.390625 63.765624 63.765625-21.253906 21.253906-63.765625-63.761719zm-85.019532 0 148.785156 148.785156-21.253906 21.253906c-4.800781-4.800781-138.628906-138.628906-148.785156-148.78125zm-53.136718 95.644531 31.882812-31.878906 106.273438 106.273437-31.882813 31.878906c-5.871094 5.875-15.378906 5.875-21.253906 0l-85.019531-85.015624c-5.871094-5.875-5.871094-15.378907 0-21.257813zm0 0"/></svg>