<svg height="496pt" viewBox="0 0 496 496" width="496pt" xmlns="http://www.w3.org/2000/svg"><path d="m144 415.761719c-13.230469 0-24 10.769531-24 24s10.769531 24 24 24 24-10.769531 24-24-10.769531-24-24-24zm0 32c-4.40625 0-8-3.589844-8-8 0-4.40625 3.59375-8 8-8s8 3.59375 8 8c0 4.410156-3.59375 8-8 8zm0 0"/><path d="m360 415.761719c-13.230469 0-24 10.769531-24 24s10.769531 24 24 24 24-10.769531 24-24-10.769531-24-24-24zm0 32c-4.40625 0-8-3.589844-8-8 0-4.40625 3.59375-8 8-8s8 3.59375 8 8c0 4.410156-3.59375 8-8 8zm0 0"/><path d="m373.65625 242.105469c-1.496094-1.503907-3.535156-2.34375-5.65625-2.34375h-160c-2.121094 0-4.160156.839843-5.65625 2.34375l-93.65625 93.65625h-44.6875c-13.230469 0-24 10.769531-24 24v80c0 4.417969 3.585938 8 8 8h40.640625c3.902344 27.097656 27.207031 48 55.359375 48s51.457031-20.902344 55.359375-48h105.28125c3.902344 27.097656 27.207031 48 55.359375 48s51.457031-20.902344 55.359375-48h48.640625c4.414062 0 8-3.582031 8-8v-96c0-2.121094-.839844-4.160157-2.34375-5.65625zm-309.65625 109.65625h8v32h-16v-24c0-4.40625 3.59375-8 8-8zm80 128c-22.054688 0-40-17.945313-40-40 0-22.054688 17.945312-40 40-40s40 17.945312 40 40c0 22.054687-17.945312 40-40 40zm216 0c-22.054688 0-40-17.945313-40-40 0-22.054688 17.945312-40 40-40s40 17.945312 40 40c0 22.054687-17.945312 40-40 40zm96-48h-40.640625c-3.902344-27.097657-27.207031-48-55.359375-48s-51.457031 20.902343-55.359375 48h-105.28125c-3.902344-27.097657-27.207031-48-55.359375-48s-51.457031 20.902343-55.359375 48h-32.640625v-32h24c4.414062 0 8-3.582031 8-8v-40h24c2.121094 0 4.160156-.839844 5.65625-2.34375l93.65625-93.65625h153.375l91.3125 91.3125zm0 0"/><path d="m280 271.761719h-56c-2.121094 0-4.160156.839843-5.65625 2.34375l-40 40c-1.503906 1.496093-2.34375 3.535156-2.34375 5.65625v24c0 4.417969 3.585938 8 8 8h96c4.414062 0 8-3.582031 8-8v-64c0-4.414063-3.585938-8-8-8zm-8 64h-80v-12.6875l35.3125-35.3125h44.6875zm0 0"/><path d="m352 271.761719h-40c-4.414062 0-8 3.585937-8 8v64c0 4.417969 3.585938 8 8 8h80c4.414062 0 8-3.582031 8-8v-24c0-2.121094-.839844-4.160157-2.34375-5.65625l-40-40c-1.496094-1.503907-3.535156-2.34375-5.65625-2.34375zm32 64h-64v-48h28.6875l35.3125 35.3125zm0 0"/><path d="m256 367.761719h32v16h-32zm0 0"/><path d="m304 367.761719h32v16h-32zm0 0"/><path d="m88 319.761719c17.648438 0 32-14.351563 32-32 0-11.589844-6.414062-22.160157-16.265625-27.742188.175781-1.433593.265625-2.847656.265625-4.257812 0-10.917969-4.441406-21.207031-12.136719-28.679688 2.722657-6.105469 4.136719-12.664062 4.136719-19.320312 0-10.160157-3.167969-19.878907-9.039062-28 5.871093-8.121094 9.039062-17.839844 9.039062-28 0-26.472657-21.527344-48-48-48s-48 21.527343-48 48c0 10.160156 3.167969 19.878906 9.039062 28-5.871093 8.121093-9.039062 17.839843-9.039062 28 0 17.351562 9.617188 33.335937 24.535156 41.734375-.359375 2.097656-.535156 4.179687-.535156 6.265625 0 19.617187 14.191406 35.984375 32.855469 39.359375 3.328125 14.113281 16.03125 24.640625 31.144531 24.640625zm-48-64c0-2.535157.496094-5.152344 1.503906-7.992188 1.464844-4.113281-.640625-8.632812-4.71875-10.167969-12.625-4.742187-20.785156-16.464843-20.785156-29.839843 0-8.40625 3.265625-16.359375 9.191406-22.390625 3.046875-3.113282 3.046875-8.097656 0-11.210938-5.925781-6.039062-9.191406-13.988281-9.191406-22.398437 0-17.648438 14.351562-32 32-32s32 14.351562 32 32c0 8.410156-3.265625 16.359375-9.191406 22.390625-3.046875 3.113281-3.046875 8.097656 0 11.210937 5.925781 6.039063 9.191406 13.992188 9.191406 22.398438 0 5.984375-1.742188 11.886719-5.039062 17.082031-2.335938 3.671875-1.304688 8.535156 2.320312 10.941406 6.710938 4.472656 10.71875 11.945313 10.71875 19.976563 0 2.015625-.351562 4.167969-1.121094 6.753906-.605468 2.046875-.367187 4.253906.664063 6.125 1.03125 1.875 2.761719 3.25 4.816406 3.832031 6.847656 1.953125 11.640625 8.25 11.640625 15.289063 0 8.824219-7.175781 16-16 16s-16-7.175781-16-16c0-4.414063-3.585938-8-8-8-13.230469 0-24-10.769531-24-24zm0 0"/><path d="m496 71.761719c0-26.472657-21.527344-48-48-48s-48 21.527343-48 48c0 10.167969 3.167969 19.878906 9.039062 28-5.871093 8.121093-9.039062 17.839843-9.039062 28 0 6.65625 1.414062 13.214843 4.136719 19.320312-7.695313 7.472657-12.136719 17.761719-12.136719 28.679688 0 1.410156.089844 2.824219.265625 4.257812-9.851563 5.582031-16.265625 16.152344-16.265625 27.742188 0 17.648437 14.351562 32 32 32 15.113281 0 27.816406-10.527344 31.144531-24.640625 18.664063-3.375 32.855469-19.742188 32.855469-39.359375 0-2.085938-.175781-4.167969-.535156-6.265625 14.917968-8.398438 24.535156-24.382813 24.535156-41.734375 0-10.167969-3.167969-19.878907-9.039062-28 5.871093-8.121094 9.039062-17.839844 9.039062-28zm-25.183594 33.609375c5.917969 6.03125 9.183594 13.984375 9.183594 22.390625 0 13.167969-8.351562 25.167969-20.777344 29.839843-4.078125 1.535157-6.183594 6.054688-4.71875 10.167969 1 2.839844 1.496094 5.457031 1.496094 7.992188 0 13.230469-10.769531 24-24 24-4.414062 0-8 3.585937-8 8 0 8.824219-7.175781 16-16 16s-16-7.175781-16-16c0-7.039063 4.792969-13.335938 11.648438-15.289063 2.054687-.582031 3.785156-1.964844 4.816406-3.832031 1.023437-1.871094 1.261718-4.078125.664062-6.125-.777344-2.585937-1.128906-4.738281-1.128906-6.753906 0-8.03125 4.007812-15.503907 10.726562-19.976563 3.617188-2.40625 4.648438-7.269531 2.320313-10.941406-3.304687-5.195312-5.046875-11.097656-5.046875-17.082031 0-8.40625 3.265625-16.359375 9.191406-22.390625 3.054688-3.113282 3.046875-8.097656 0-11.210938-5.925781-6.039062-9.191406-13.988281-9.191406-22.398437 0-17.648438 14.351562-32 32-32s32 14.351562 32 32c0 8.410156-3.265625 16.359375-9.191406 22.390625-3.054688 3.113281-3.046875 8.105468.007812 11.21875zm0 0"/><path d="m144 175.761719h80v48h16v-48h16v48h16v-48h80c2.9375 0 5.632812-1.609375 7.03125-4.183594 1.402344-2.574219 1.273438-5.710937-.328125-8.175781l-104-160c-2.949219-4.535156-10.464844-4.535156-13.414063 0l-104 160c-1.601562 2.464844-1.722656 5.601562-.328124 8.175781 1.390624 2.574219 4.101562 4.183594 7.039062 4.183594zm104-153.320313 89.257812 137.320313h-178.515624zm0 0"/><path d="m240 127.761719h16v16h-16zm0 0"/><path d="m240 63.761719h16v48h-16zm0 0"/></svg>