<?xml version="1.0" encoding="utf-8"?>
<!-- Generator: Adobe Illustrator 22.1.0, SVG Export Plug-In . SVG Version: 6.00 Build 0)  -->
<svg version="1.1" id="Layer_1" xmlns="http://www.w3.org/2000/svg" xmlns:xlink="http://www.w3.org/1999/xlink" x="0px" y="0px"
	 viewBox="0 0 512 512" style="enable-background:new 0 0 512 512;" xml:space="preserve">
<style type="text/css">
	.st0{fill:#D63031;}
	.st1{fill:#FFFFFF;}
	.st2{fill:none;stroke:#FFFFFF;stroke-width:5.1243;stroke-linecap:round;stroke-miterlimit:10;}
</style>
<path class="st0" d="M441.6,204.7c-3.1-46.9-23-91.1-56.2-124.4C314.2,8.8,198.5,8.6,127,79.9c-0.1,0.1-0.3,0.3-0.4,0.4
	c-33.1,33.3-53.1,77.5-56.2,124.4c-1.6,25.7,2.1,51.4,11.1,75.5c8.8,24,23,46.7,42.4,67.3l127.8,136.1c2.3,2.4,6.1,2.5,8.5,0.3
	c0.1-0.1,0.2-0.2,0.3-0.3l127.8-136.1c19.4-20.6,33.6-43.3,42.4-67.3C439.5,256.1,443.3,230.4,441.6,204.7z M259.5,362.8
	c-0.4,0-0.9,0-1.3,0c-0.7,0-1.5,0-2.2,0s-1.5,0-2.2,0c-0.4,0-0.9,0-1.3,0c-0.7,0-1.4,0-2.1-0.1c-77.9-3-140.4-69-140.4-149.6
	S172.5,66.5,250.4,63.4c0.7,0,1.4,0,2.1-0.1c0.4,0,0.9,0,1.3,0c0.7,0,1.5,0,2.2,0s1.5,0,2.2,0c0.5,0,0.9,0,1.4,0
	c0.7,0,1.4,0,2.1,0.1c77.9,3,140.4,69,140.4,149.7s-62.5,146.6-140.4,149.6C260.9,362.8,260.2,362.8,259.5,362.8z"/>
<path class="st0" d="M256,371c-36.3,0-71.8-12.6-99.9-35.6c-27.7-22.6-47.1-54.3-54.5-89c-1.5-6.9-2.5-13.9-3-20.9
	c-0.3-4.1-0.5-8.2-0.5-12.4c0-46.6,20.4-90.6,56.1-120.7c10.8-9.1,22.7-16.7,35.5-22.6c20.8-9.7,43.2-14.6,66.4-14.6
	c87.1,0,157.9,70.8,157.9,157.9C413.9,300.2,343.1,371,256,371z"/>
<g>
	<g>
		<path class="st1" d="M400.3,171.3c-1.4-1.7-3.6-2.8-5.8-2.8h-28.4c-7-18.5-16.1-36.6-26.5-43.5c-35.9-23.6-131.2-23.6-167.1,0
			c-10.4,6.8-19.5,25-26.5,43.5h-28.4c-2.3,0-4.4,1-5.8,2.8c-1.4,1.7-2,4-1.5,6.2l4.2,20.4c0.7,3.5,3.8,6,7.3,6h8.4
			c-8.1,9.4-12.1,21.2-12.1,33c-0.1,14.6,5.5,27.8,15.6,37.1c0.1,0.1,0.2,0.2,0.3,0.3v28.5c0,6.2,5,11.2,11.2,11.2h26.2
			c6.2,0,11.2-5,11.2-11.2v-11.5h146.8v11.5c0,6.2,5,11.2,11.2,11.2h26.2c6.2,0,11.2-5,11.2-11.2v-28c10.8-9.8,15.9-23.4,16-36.9
			c0-12.2-4.1-24.5-12.7-34h9c3.6,0,6.6-2.5,7.3-6l4.2-20.4C402.3,175.4,401.7,173.1,400.3,171.3z M184.8,143.9
			c28.6-18.8,113.9-18.8,142.5,0c5.6,3.6,12.7,18.4,19.3,36.5h-181C172,162.3,179.2,147.5,184.8,143.9z M151.2,239.7
			c0-12.2,9.9-22.1,22.1-22.1c12.2,0,22.1,9.9,22.1,22.1c0,12.2-9.9,22.1-22.1,22.1C161.1,261.8,151.2,251.9,151.2,239.7z
			 M339,261.8c-12.2,0-22.1-9.9-22.1-22.1c0-12.2,9.9-22.1,22.1-22.1c12.2,0,22.1,9.9,22.1,22.1C361.1,251.9,351.2,261.8,339,261.8z
			"/>
	</g>
</g>
<title>Travel location share map</title>
<path class="st2" d="M194.1,164.8"/>
</svg>
