<?xml version="1.0" encoding="utf-8"?>
<!-- Generator: Adobe Illustrator 22.1.0, SVG Export Plug-In . SVG Version: 6.00 Build 0)  -->
<svg version="1.1" id="Layer_1" xmlns="http://www.w3.org/2000/svg" xmlns:xlink="http://www.w3.org/1999/xlink" x="0px" y="0px"
	 viewBox="0 0 512 512" style="enable-background:new 0 0 512 512;" xml:space="preserve">
<g>
	<path d="M483.2,123H28.8C12.9,123,0,110.1,0,94.2s12.9-28.8,28.8-28.8h454.5c15.9,0,28.8,12.9,28.8,28.8S499.1,123,483.2,123z"/>
</g>
<g>
	<path d="M483.2,284.8H28.8C12.9,284.8,0,271.9,0,256s12.9-28.8,28.8-28.8h454.5c15.9,0,28.8,12.9,28.8,28.8
		S499.1,284.8,483.2,284.8z"/>
</g>
<g>
	<path d="M483.2,446.6H28.8C12.9,446.6,0,433.7,0,417.8S12.9,389,28.8,389h454.5c15.9,0,28.8,12.9,28.8,28.8
		S499.1,446.6,483.2,446.6z"/>
</g>
</svg>
