<?xml version="1.0" encoding="utf-8"?>
<!-- Generator: Adobe Illustrator 22.1.0, SVG Export Plug-In . SVG Version: 6.00 Build 0)  -->
<svg version="1.1" id="Layer_1" xmlns="http://www.w3.org/2000/svg" xmlns:xlink="http://www.w3.org/1999/xlink" x="0px" y="0px"
	 viewBox="0 0 512 512" style="enable-background:new 0 0 512 512;" xml:space="preserve">
<style type="text/css">
	.st0{fill:#FFFFFF;}
</style>
<path class="st0" d="M256,77.8c-72.2,0-131,58.8-131,131c0,72.2,58.8,131,131,131s131-58.8,131-131C387,136.5,328.2,77.8,256,77.8z
	 M298.8,198.2v80.4c0,10.5-8.5,19.1-19.1,19s-19-8.5-19-19.1v-80.4c-14.8-7.3-24.2-22.4-24.2-38.9c0-16.5,9.3-31.5,24-38.8
	c0.8-0.4,1.8-0.6,2.7-0.6c3.3,0,6,2.7,6,6l-0.1,17.6l10.8,7.6l10.5-7V126c0-0.9,0.2-1.9,0.6-2.7c1.5-3,5.1-4.2,8.1-2.7
	c8.5,4.2,15.4,11.2,19.6,19.7C329.1,161.7,320.2,187.7,298.8,198.2z M195,203.7h13.8v-76.9c0-3.3,2.7-6,6-6c3.3,0,6,2.7,6,6v76.9
	h13.8c3.3,0,6,2.7,6,6c0,3.3-2.6,5.9-5.9,6l4.4,15.1c0.2,0.5,0.2,1.1,0.2,1.7v45.9c0,10.6-8.6,19.3-19.3,19.3h-10.6
	c-10.6,0-19.3-8.6-19.3-19.3v-45.9c0-0.6,0.1-1.1,0.2-1.7l4.4-15.1c-3.3,0-6-2.8-6-6.1C189,206.3,191.7,203.6,195,203.7z"/>
<path class="st0" d="M234.7,215.7l4.4,15.1c0.2,0.5,0.2,1.1,0.2,1.7v45.9c0,10.6-8.6,19.3-19.3,19.3h-10.6
	c-10.6,0-19.3-8.6-19.3-19.3v-45.9c0-0.6,0.1-1.1,0.2-1.7l4.4-15.1c-3.3,0-6-2.8-6-6.1c0-3.3,2.8-6,6.1-5.9h13.8v-76.9
	c0-3.3,2.7-6,6-6c3.3,0,6,2.7,6,6v76.9h13.8c3.3,0,6,2.7,6,6C240.6,212.9,238,215.6,234.7,215.7z"/>
<path class="st0" d="M298.8,198.2v80.4c0,10.5-8.5,19.1-19.1,19s-19-8.5-19-19.1v-80.4c-14.8-7.3-24.2-22.4-24.2-38.9
	c0-16.5,9.3-31.5,24-38.8c0.8-0.4,1.8-0.6,2.7-0.6c3.3,0,6,2.7,6,6l-0.1,17.6l10.8,7.6l10.5-7V126c0-0.9,0.2-1.9,0.6-2.7
	c1.5-3,5.1-4.2,8.1-2.7c8.5,4.2,15.4,11.2,19.6,19.7C329.1,161.7,320.2,187.7,298.8,198.2z"/>
<title>service location</title>
<path d="M234.7,215.7c3.3-0.1,5.9-2.7,5.9-6c0-3.3-2.7-6-6-6h-13.8v-76.9c0-3.3-2.7-6-6-6c-3.3,0-6,2.7-6,6v76.9H195
	c-3.3,0-6,2.6-6.1,5.9c0,3.3,2.6,6,6,6.1l-4.4,15.1c-0.2,0.5-0.2,1.1-0.2,1.7v45.9c0,10.6,8.6,19.3,19.3,19.3h10.6
	c10.6,0,19.3-8.6,19.3-19.3v-45.9c0-0.6-0.1-1.1-0.2-1.7L234.7,215.7z M227.4,278.4c0,4-3.3,7.3-7.3,7.3h-10.6c-4,0-7.3-3.3-7.3-7.3
	v-45.1l5.1-17.7h14.9l5.1,17.7V278.4z"/>
<path d="M318.6,140.3c-4.2-8.5-11.1-15.5-19.6-19.7c-3-1.5-6.6-0.3-8.1,2.7c-0.4,0.8-0.6,1.8-0.6,2.7v18.2l-10.5,7l-10.8-7.6
	l0.1-17.6c0-3.3-2.7-6-6-6c-0.9,0-1.9,0.2-2.7,0.6c-14.8,7.3-24.1,22.3-24,38.8c0.1,16.5,9.4,31.6,24.2,38.9v80.4
	c0,10.5,8.5,19.1,19,19.1s19.1-8.5,19.1-19v-80.4C320.2,187.7,329.1,161.7,318.6,140.3z M301.3,182c-3,2.9-6.7,5.2-10.6,6.7
	c-2.3,0.9-3.9,3.1-3.9,5.6v84.3c0,3.9-3.2,7-7.1,7c-3.9,0-7-3.2-7-7v-84.3c0-2.5-1.6-4.8-3.9-5.6c-16.2-6.1-24.4-24.1-18.3-40.3
	c1.5-4,3.8-7.6,6.7-10.7l0,8.9c0,2,1,3.8,2.6,4.9l16.8,11.7c2,1.4,4.7,1.4,6.8,0.1l16.5-11c1.7-1.1,2.7-3,2.7-5v-9.6
	C314.3,150.2,313.8,170.1,301.3,182z"/>
<path d="M441.6,205.5c-3.2-46.3-23.1-89.9-56.2-122.5c-71.9-70.5-186.9-70.5-258.8,0c-33.1,32.6-53.1,76.2-56.2,122.5
	c-1.6,25.3,2.1,50.6,11.1,74.3c8.8,23.6,23,45.9,42.4,66.2L251.7,480c2.3,2.4,6.1,2.5,8.5,0.2c0.1-0.1,0.1-0.1,0.2-0.2l127.8-133.9
	c19.4-20.3,33.7-42.6,42.4-66.2C439.5,256.2,443.3,230.8,441.6,205.5z M256,339.8c-72.2,0-131-58.8-131-131c0-72.2,58.8-131,131-131
	s131,58.8,131,131C387,281,328.2,339.8,256,339.8z"/>
</svg>
