<?xml version="1.0" encoding="utf-8"?>
<!-- Generator: Adobe Illustrator 22.1.0, SVG Export Plug-In . SVG Version: 6.00 Build 0)  -->
<svg version="1.1" id="Layer_1" xmlns="http://www.w3.org/2000/svg" xmlns:xlink="http://www.w3.org/1999/xlink" x="0px" y="0px"
	 viewBox="0 0 512 512" style="enable-background:new 0 0 512 512;" xml:space="preserve">
<style type="text/css">
	.st0{fill:#00B894;}
</style>
<g>
	<g>
		<path class="st0" d="M256,209c-25.9,0-47,21.1-47,47s21.1,47,47,47s47-21.1,47-47S281.9,209,256,209z"/>
	</g>
</g>
<g>
	<g>
		<path class="st0" d="M497,241h-18.5C471.1,130,382,40.9,271,33.5V15c0-8.3-6.7-15-15-15s-15,6.7-15,15v18.5
			C130,40.9,40.9,130,33.5,241H15c-8.3,0-15,6.7-15,15s6.7,15,15,15h18.5C40.9,382,130,471.1,241,478.5V497c0,8.3,6.7,15,15,15
			s15-6.7,15-15v-18.5C382,471.1,471.1,382,478.5,271H497c8.3,0,15-6.7,15-15S505.3,241,497,241z M241,63.6v34.1
			c-75.7,7.1-136.2,67.6-143.3,143.3H63.6C70.9,146.5,146.5,70.9,241,63.6z M241,448.4C146.5,441.1,70.9,365.5,63.6,271h34.1
			c7.1,75.7,67.6,136.2,143.3,143.3V448.4z M256,337c-8.3,0-15,6.7-15,15v32.1c-59.2-6.9-106.2-54-113.1-113.1H160
			c8.3,0,15-6.7,15-15s-6.7-15-15-15h-32.1c6.9-59.2,54-106.2,113.1-113.1V160c0,8.3,6.7,15,15,15s15-6.7,15-15v-32.1
			c59.2,6.9,106.2,54,113.1,113.1H352c-8.3,0-15,6.7-15,15s6.7,15,15,15h32.1c-6.9,59.2-54,106.2-113.1,113.1V352
			C271,343.7,264.3,337,256,337z M271,448.4v-34.1c75.7-7.1,136.2-67.6,143.3-143.3h34.1C441.1,365.5,365.5,441.1,271,448.4z
			 M414.3,241c-7.1-75.7-67.6-136.2-143.3-143.3V63.6c94.5,7.3,170.1,82.9,177.4,177.4H414.3z"/>
	</g>
</g>
</svg>
