<?xml version="1.0" encoding="utf-8"?>
<!-- Generator: Adobe Illustrator 22.1.0, SVG Export Plug-In . SVG Version: 6.00 Build 0)  -->
<svg version="1.1" id="Layer_1" xmlns="http://www.w3.org/2000/svg" xmlns:xlink="http://www.w3.org/1999/xlink" x="0px" y="0px"
	 viewBox="0 0 512 512" style="enable-background:new 0 0 512 512;" xml:space="preserve">
<style type="text/css">
	.st0{fill:#00B894;}
</style>
<g>
	<path class="st0" d="M256,481.5c-60.2,0-116.9-23.5-159.5-66c-42.6-42.6-66-99.2-66-159.5S54,139.1,96.5,96.5s99.2-66,159.5-66
		s116.9,23.5,159.5,66c42.6,42.6,66,99.2,66,159.5s-23.5,116.9-66,159.5C372.9,458,316.2,481.5,256,481.5z M256,63.5
		C149.9,63.5,63.5,149.9,63.5,256c0,106.1,86.4,192.5,192.5,192.5c106.1,0,192.5-86.4,192.5-192.5C448.5,149.9,362.1,63.5,256,63.5z
		"/>
</g>
<g>
	<path class="st0" d="M256,148.5c-9.1,0-16.5-7.4-16.5-16.5V47c0-9.1,7.4-16.5,16.5-16.5c9.1,0,16.5,7.4,16.5,16.5v85
		C272.5,141.1,265.1,148.5,256,148.5z"/>
</g>
<g>
	<path class="st0" d="M256,481.5c-9.1,0-16.5-7.4-16.5-16.5v-85c0-9.1,7.4-16.5,16.5-16.5c9.1,0,16.5,7.4,16.5,16.5v85
		C272.5,474.1,265.1,481.5,256,481.5z"/>
</g>
<g>
	<path class="st0" d="M465,272.5h-85c-9.1,0-16.5-7.4-16.5-16.5c0-9.1,7.4-16.5,16.5-16.5h85c9.1,0,16.5,7.4,16.5,16.5
		C481.5,265.1,474.1,272.5,465,272.5z"/>
</g>
<g>
	<path class="st0" d="M132,272.5H47c-9.1,0-16.5-7.4-16.5-16.5c0-9.1,7.4-16.5,16.5-16.5h85c9.1,0,16.5,7.4,16.5,16.5
		C148.5,265.1,141.1,272.5,132,272.5z"/>
</g>
<circle class="st0" cx="256" cy="256" r="59"/>
</svg>
