<?xml version="1.0" encoding="utf-8"?>
<!-- Generator: Adobe Illustrator 22.1.0, SVG Export Plug-In . SVG Version: 6.00 Build 0)  -->
<svg version="1.1" id="Layer_1" xmlns="http://www.w3.org/2000/svg" xmlns:xlink="http://www.w3.org/1999/xlink" x="0px" y="0px"
	 viewBox="0 0 1920 1080" style="enable-background:new 0 0 1920 1080;" xml:space="preserve">
<style type="text/css">
	.st0{fill:#129B94;}
	.st1{fill:#00CCA5;}
	.st2{fill:#00B894;}
	.st3{fill:#0BD8B0;}
	.st4{fill:#00A585;}
</style>
<polygon class="st0" points="1577.3,0 1572.6,-5.8 1567.4,-0.7 1567.2,0 "/>
<polygon class="st0" points="466.9,1085.6 472.6,1080 465.2,1080 "/>
<polygon class="st0" points="467.4,1087.5 466.9,1085.6 466.2,1086.3 "/>
<polygon class="st0" points="459.6,1080 466.2,1086.3 466.9,1085.6 465.2,1080 "/>
<polygon class="st0" points="1569.8,-9.4 1567.4,-0.7 1572.6,-5.8 "/>
<polygon class="st0" points="1567.4,-0.7 1566.7,0 1567.2,0 "/>
<g>
	<polygon class="st1" points="1304.8,961.6 1421.9,1079.2 1918.4,426.4 1577.3,0 1567.2,0 	"/>
</g>
<g>
	<polygon class="st1" points="0,1080 459.6,1080 0,638.8 	"/>
</g>
<g>
	<polygon class="st0" points="1920,428.4 1920,424.3 1918.4,426.4 	"/>
</g>
<g>
	<polygon class="st2" points="1920,424.3 1920,0 1577.3,0 1918.4,426.4 	"/>
</g>
<g>
	<polygon class="st0" points="951.7,607.1 952.5,607.8 952.6,606.2 	"/>
</g>
<g>
	<polygon class="st2" points="952.6,606.2 1002.8,0 347.1,0 951.7,607.1 	"/>
</g>
<g>
	<polygon class="st3" points="1304.8,961.6 1272.5,1080 1421.3,1080 1421.9,1079.2 	"/>
</g>
<g>
	<polygon class="st3" points="952.5,607.8 913.4,1080 1272.5,1080 1304.8,961.6 	"/>
</g>
<g>
	<polygon class="st0" points="1421.3,1080 1422.8,1080 1421.9,1079.2 	"/>
</g>
<g>
	<polygon class="st2" points="1920,428.4 1918.4,426.4 1421.9,1079.2 1422.8,1080 1920,1080 	"/>
</g>
<g>
	<polygon class="st1" points="347.1,0 150,0 465.2,1080 472.6,1080 951.7,607.1 	"/>
</g>
<g>
	<polygon class="st2" points="150,0 0,0 0,638.8 459.6,1080 465.2,1080 	"/>
</g>
<g>
	<polygon class="st4" points="951.7,607.1 472.6,1080 913.4,1080 952.5,607.8 	"/>
</g>
<g>
	<polygon class="st3" points="1566.7,0 1002.8,0 952.6,606.2 	"/>
</g>
<g>
	<polygon class="st2" points="952.5,607.8 1304.8,961.6 1567.2,0 1566.7,0 952.6,606.2 	"/>
</g>
</svg>
