<?xml version="1.0" encoding="utf-8"?>
<!-- Generator: Adobe Illustrator 22.1.0, SVG Export Plug-In . SVG Version: 6.00 Build 0)  -->
<svg version="1.1" id="Layer_1" xmlns="http://www.w3.org/2000/svg" xmlns:xlink="http://www.w3.org/1999/xlink" x="0px" y="0px"
	 viewBox="0 0 512 512" style="enable-background:new 0 0 512 512;" xml:space="preserve">
<style type="text/css">
	.st0{fill:#D63031;}
	.st1{fill:none;stroke:#FFFFFF;stroke-width:5.1243;stroke-linecap:round;stroke-miterlimit:10;}
	.st2{fill:none;stroke:#FCFCFC;stroke-width:34;stroke-miterlimit:10;}
</style>
<path class="st0" d="M423.1,280.2c-8.8,24-23,46.6-42.4,67.3L253,483.5c-0.1,0.1-0.2,0.2-0.3,0.3c-2.4,2.3-6.2,2.2-8.5-0.3
	L116.5,347.5c-19.4-20.6-33.6-43.3-42.4-67.3c-8.9-24.1-12.7-49.8-11.1-75.5c3.1-46.9,23-91.1,56.2-124.4c0.1-0.1,0.3-0.3,0.4-0.4
	C191,8.6,306.8,8.8,378,80.3c33.1,33.3,53.1,77.5,56.2,124.4C435.8,230.4,432.1,256.1,423.1,280.2z"/>
<title>Travel location share map</title>
<path class="st1" d="M193,160.7"/>
<path class="st1" d="M1154.2,303"/>
<circle class="st2" cx="248.6" cy="208.7" r="103.6"/>
</svg>
