<?xml version="1.0" encoding="utf-8"?>
<!-- Generator: Adobe Illustrator 22.1.0, SVG Export Plug-In . SVG Version: 6.00 Build 0)  -->
<svg version="1.1" id="Layer_1" xmlns="http://www.w3.org/2000/svg" xmlns:xlink="http://www.w3.org/1999/xlink" x="0px" y="0px"
	 viewBox="0 0 1000 1000" style="enable-background:new 0 0 1000 1000;" xml:space="preserve">
<style type="text/css">
	.st0{fill:#B80E0C;}
	.st1{fill:#3C3C3B;}
	.st2{fill:#003854;}
	.st3{fill:#FFFFFF;}
	.st4{fill:#F8B133;}
	.st5{fill:#D9D9D9;}
	.st6{fill:none;}
	.st7{fill:#0069B3;}
  
  .part, #group {
    transform-box:fill-box;
    -moz-transform-box:fill-box;
    -o-transform-box:fill-box;
    -webkit-transform-box:fill-box;
  }
  
 #group {
     -moz-transform-origin: 50% 50%;
    -ms-transform-origin: 50% 50%;
    -o-transform-origin: 50% 50%;
    -webkit-transform-origin: 50% 50%;
    transform-origin: 50% 50%;
    
    -moz-animation: rotateCounterClockwise 30s linear infinite;
    -o-animation: rotateCounterClockwise 30s linear infinite;
    -webkit-animation: rotateCounterClockwise 30s linear infinite;
    animation: rotateCounterClockwise 30s linear infinite;
}

.part {
    -moz-transform-origin: center center;
    -ms-transform-origin: center center;
    -o-transform-origin: center center;
    -webkit-transform-origin: center center;
    transform-origin: center center;
 
    -moz-animation: rotateClockwise 30s linear infinite;
    -o-animation: rotateClockwise 30s linear infinite;
    -webkit-animation: rotateClockwise 30s linear infinite;
    animation: rotateClockwise 30s linear infinite;
}

@keyframes rotateClockwise {
    from {
        
    }

    to {
        -moz-transform: rotate(360deg);
        -ms-transform: rotate(360deg);
        -o-transform: rotate(360deg);
        -webkit-transform: rotate(360deg);
        transform: rotate(360deg);
    }
}

@-moz-keyframes rotateClockwise {
    from {
    }

    to {
        -moz-transform: rotate(360deg);
        -ms-transform: rotate(360deg);
        -o-transform: rotate(360deg);
        -webkit-transform: rotate(360deg);
        transform: rotate(360deg);
    }
}

@-webkit-keyframes rotateClockwise {
    from {
    }

    to {
        -moz-transform: rotate(360deg);
        -ms-transform: rotate(360deg);
        -o-transform: rotate(360deg);
        -webkit-transform: rotate(360deg);
        transform: rotate(360deg);
    }
}


@keyframes rotateCounterClockwise {
    from {
    }

    to {
        -moz-transform: rotate(-360deg);
        -ms-transform: rotate(-360deg);
        -o-transform: rotate(-360deg);
        -webkit-transform: rotate(-360deg);
        transform: rotate(-360deg);
    }
}


@-moz-keyframes rotateCounterClockwise {
    from {
    }

    to {
        -moz-transform: rotate(-360deg);
        -ms-transform: rotate(-360deg);
        -o-transform: rotate(-360deg);
        -webkit-transform: rotate(-360deg);
        transform: rotate(-360deg);
    }
}

@-webkit-keyframes rotateCounterClockwise {
    from {
    }

    to {
        -moz-transform: rotate(-360deg);
        -ms-transform: rotate(-360deg);
        -o-transform: rotate(-360deg);
        -webkit-transform: rotate(-360deg);
        transform: rotate(-360deg);
    }
}
</style>
<g id="SERV_ID70_">
	<g id="SERV_ID3_">
		<path id="SERV_ID10_" class="st0" d="M376.1,450c0,0,1.9-24.2-5.5-24.9c-5.2-0.4-22.8-0.3-32.8,1.4c-4.1,0.7-6.6,3.7-5.5,6.6
			c1.4,3.8,4,11.1,8.6,12.3C349.2,447.6,376.1,450,376.1,450z"/>
		<polygon id="SERV_ID13_" class="st1" points="366.5,448.7 373.8,457.8 376.2,450 		"/>
		<path id="SERV_ID22_" class="st0" d="M632.8,450c0,0-1.8-24.2,5.4-24.9c5.1-0.4,22.3-0.3,32,1.4c4,0.7,6.4,3.7,5.4,6.6
			c-1.3,3.8-3.9,11.1-8.4,12.3C659.1,447.6,632.8,450,632.8,450z"/>
		<polygon id="SERV_ID21_" class="st1" points="642.5,448.7 635.2,457.8 632.7,450 		"/>
		<path id="SERV_ID12_" class="st2" d="M383,617.9h-33.3c-4.6,0-8.3-3.7-8.3-8.3v-32.2h49.9v32.2C391.3,614.1,387.5,617.9,383,617.9z
			"/>
		<path id="SERV_ID20_" class="st2" d="M626,617.9h33.3c4.6,0,8.3-3.7,8.3-8.3v-32.2h-49.9v32.2C617.7,614.1,621.4,617.9,626,617.9z"
			/>
		<path id="SERV_ID9_" class="st0" d="M667.2,490.4c-5.5-21.3-14.4-30.6-21.1-31.9c-6.8-1.3-11-3-16.1-13.5
			c-5.1-10.6-27.5-60.9-50.7-63.4c-23.2-2.5-74.8-2.5-74.8-2.5s-51.6,0-74.8,2.5c-23.2,2.5-45.6,52.8-50.7,63.4
			c-5.1,10.6-9.3,12.3-16.1,13.5c-6.8,1.3-15.6,10.6-21.1,31.9c-5.5,21.3-2.5,85.2,1.7,97.8c4.2,12.7,27.5,13.5,35.5,13.5
			s12.8-7.7,22-6.3c18.7,2.9,188.4,2.9,207.1,0c9.2-1.4,13.9,6.3,22,6.3s31.3-0.8,35.5-13.5C669.7,575.6,672.7,511.8,667.2,490.4z"
			/>
		<path id="SERV_ID7_" class="st3" d="M404.3,500.4l-47.9-19.2c-3.2-1.3-6.9,0.6-7.7,4c-1.6,7.2-2.6,18.3,5.2,22
			c11.8,5.5,38.5,8.9,44.8,8c2.4-0.3,5-2.1,7.4-4.1C409.7,507.9,408.7,502.1,404.3,500.4z"/>
		<path id="SERV_ID8_" class="st2" d="M388.1,557.1c3.3,1,4.5,5,2.4,7.7c-4.2,5.3-11,12.6-16.2,12.6c-5.1,0-13.6-1.5-19.2-2.6
			c-3-0.6-4.7-3.8-3.5-6.7l2.5-5.8c3-7,10.5-10.9,17.9-9.3C376.8,554,382.5,555.4,388.1,557.1z"/>
		
			<ellipse id="SERV_ID2_" transform="matrix(0.2181 -0.9759 0.9759 0.2181 -204.4769 736.1593)" class="st4" cx="357.2" cy="495.7" rx="7.3" ry="7.3"/>
		<path id="SERV_ID11_" class="st2" d="M581.6,499c-1.1-0.4-2.4-0.8-3.8-1.1c-10.6-2.5-73.3-2.2-73.3-2.2s-62.7-0.3-73.3,2.2
			c-1.4,0.3-2.7,0.7-3.8,1.1c-5.3,1.9-7.5,8.2-4.8,13.1l6.8,12.2c4.3,7.7,11.2,13.7,19.5,16.4c0.5,0.2,1,0.3,1.6,0.5
			c15.8,4.4,43.4,6,54,6c10.6,0,38.2-1.7,54-6c0.5-0.1,1.1-0.3,1.6-0.5c8.4-2.7,15.2-8.8,19.5-16.4l6.8-12.2
			C589.1,507.2,586.9,501,581.6,499z"/>
		<path id="SERV_ID17_" class="st3" d="M604.6,500.4l47.9-19.2c3.2-1.3,6.9,0.6,7.7,4c1.6,7.2,2.6,18.3-5.2,22
			c-11.8,5.5-38.5,8.9-44.8,8c-2.4-0.3-5-2.1-7.4-4.1C599.2,507.9,600.2,502.1,604.6,500.4z"/>
		<path id="SERV_ID23_" class="st2" d="M604.1,580.3c-5.9-5.9-11.1-10.5-15.1-13.8c-4.9-4-11.1-6-17.4-5.6c-17.5,1.2-117,1.2-134.5,0
			c-6.3-0.4-12.5,1.6-17.4,5.6c-4,3.3-9.1,7.8-15.1,13.8c-2.7,2.7-1.2,7.4,2.6,7.9c28,3.9,166,3.9,194,0
			C605.3,587.7,606.8,583.1,604.1,580.3z"/>
		<path id="SERV_ID15_" class="st2" d="M620.9,557.1c-3.3,1-4.5,5-2.4,7.7c4.2,5.3,11,12.6,16.2,12.6c5.1,0,13.6-1.5,19.2-2.6
			c3-0.6,4.7-3.8,3.5-6.7l-2.5-5.8c-3-7-10.5-10.9-17.9-9.3C632.2,554,626.4,555.4,620.9,557.1z"/>
		<path id="SERV_ID5_" class="st2" d="M620.6,438.6c-3.5-7.6-13.3-25.7-24.4-40.7c-2.8-3.8-7.1-6.3-11.8-6.9
			c-26.5-3.4-79.9-3.9-79.9-3.9s-53.4,0.5-79.9,3.9c-4.7,0.6-9,3.1-11.8,6.9c-11,15-20.9,33.1-24.4,40.7c-0.8,1.7,0.5,3.6,2.4,3.6
			c19.9-0.3,107.9-1.8,113.7-1.8c5.8,0,93.8,1.5,113.7,1.8C620.1,442.2,621.3,440.3,620.6,438.6z"/>
		
			<ellipse id="SERV_ID6_" transform="matrix(0.7071 -0.7071 0.7071 0.7071 -159.6155 606.0438)" class="st4" cx="651.8" cy="495.7" rx="7.3" ry="7.3"/>
	</g>
	<path id="SERV_ID26_" class="st5" d="M431,628.3H321.2v-10.4H431c2,0,3.5,1.6,3.5,3.5v3.3C434.6,626.7,433,628.3,431,628.3z"/>
	<path id="SERV_ID31_" class="st5" d="M576.5,628.3h109.8v-10.4H576.5c-2,0-3.5,1.6-3.5,3.5v3.3C572.9,626.7,574.5,628.3,576.5,628.3
		z"/>
</g>
<g>
	<g>
		<circle class="st6" cx="502.8" cy="503.7" r="375.4"/>
	</g>
	<g>
		<line class="st6" x1="502.8" y1="503.7" x2="502.8" y2="879.1"/>
		<line class="st6" x1="502.8" y1="503.7" x2="744.1" y2="791.3"/>
		<line class="st6" x1="502.8" y1="503.7" x2="872.5" y2="568.9"/>
		<line class="st6" x1="502.8" y1="503.7" x2="827.9" y2="316"/>
		<line class="st6" x1="502.8" y1="503.7" x2="631.2" y2="150.9"/>
		<line class="st6" x1="502.8" y1="503.7" x2="374.4" y2="150.9"/>
		<line class="st6" x1="502.8" y1="503.7" x2="177.7" y2="316"/>
		<line class="st6" x1="502.8" y1="503.7" x2="133.1" y2="568.9"/>
		<line class="st6" x1="502.8" y1="503.7" x2="261.5" y2="791.3"/>
	</g>
</g>
<circle id="circle-path" class="st6" cx="503" cy="504" r="376"/>
<g id="group">
	<g id="part9" class="part">
		<polygon id="SERV_ID43_" class="st2" points="172.9,269.7 100,269.7 162.4,330.3 172.9,330.3 183.3,330.3 245.8,269.7 		"/>
		<polygon id="SERV_ID39_" class="st0" points="172.9,330.3 162.4,330.3 166.7,385.5 172.9,385.5 179.1,385.5 183.3,330.3 		"/>
	</g>
	<g id="part8" class="part">
		<g id="SERV_ID48_">
			<path id="SERV_ID50_" class="st0" d="M195.3,636.3H70.5c-6.6,0-12.7-3.5-16-9.2c-3.3-5.7-3.3-12.8,0-18.5l0,0l62.4-108.1
				c3.3-5.7,9.4-9.2,16-9.2h0c6.6,0,12.7,3.5,16,9.2l62.4,108c3.3,5.7,3.3,12.8,0,18.5C208,632.8,201.8,636.3,195.3,636.3z
				 M78.7,613.1h108.4l-54.2-93.9L78.7,613.1z"/>
		</g>
		<g id="SERV_ID53_">
			<rect id="SERV_ID49_" x="66.8" y="639.8" class="st2" width="39.5" height="7.3"/>
			<rect id="SERV_ID54_" x="159.5" y="639.8" class="st2" width="39.5" height="7.3"/>
		</g>
	</g>
	<g id="part7" class="part">
		<polygon id="SERV_ID59_" class="st2" points="196.1,716 193.7,718.3 191.3,720.5 200.7,734.4 205.3,736.2 261.5,797.3 264.1,794.9 
			266.7,792.5 210.5,731.4 209.2,726.7 		"/>
		
			<rect id="SERV_ID34_" x="251.8" y="794.2" transform="matrix(0.7364 -0.6766 0.6766 0.7364 -469.005 389.9256)" class="st2" width="28.1" height="5.2"/>
		<path id="SERV_ID83_" class="st2" d="M282.6,794.3l45.7,49.8c2,2.1,2.5,5.3,1.2,7.9c-3.1,6.1-7.8,10.4-14.1,12.9
			c-2.7,1.1-5.8,0.3-7.8-1.8l-45.7-49.8c1.4-1.3,1.5-3.5,0.2-4.9c-1.3-1.4-3.5-1.5-4.9-0.2l20.7-19c-1.4,1.3-1.5,3.5-0.2,4.9
			C279,795.5,281.2,795.6,282.6,794.3z"/>
		<g id="SERV_ID58_">
			<path id="SERV_ID36_" class="st0" d="M316.5,850.3l-1.6,1.5c-1.4,1.3-3.6,1.2-4.8-0.2l-37.4-40.7c-1.3-1.4-1.2-3.6,0.2-4.8
				l1.6-1.5c1.4-1.3,3.6-1.2,4.8,0.2l37.4,40.7C318,846.9,317.9,849,316.5,850.3z"/>
			<path id="SERV_ID71_" class="st0" d="M284,795.7l42.1,45.8c-1.8,1.7-4.7,1.6-6.4-0.3l-36-39.1C282,800.3,282.1,797.4,284,795.7z"
				/>
			<path id="SERV_ID69_" class="st0" d="M269.6,815.1l36,39.1c1.7,1.8,1.6,4.6-0.2,6.3l-42.1-45.8c0.9-0.8,2-1.2,3.1-1.1
				C267.6,813.7,268.7,814.2,269.6,815.1z"/>
		</g>
	</g>
	<g id="part6" class="part">
		<path id="SERV_ID76_" class="st2" d="M543.7,843.2l-32.6-23.3c-2.6-1.8-5.7-2.8-8.9-2.8h-11.7c-3.9,0-7.7,1.5-10.5,4.2l-5.4,5.1
			H458c-1.1,0-1.9,0.9-1.9,1.9V940c0,3.8,3.1,7,7,7h80.1c3.9,0,7-3.1,7-7v-84.4C550.1,850.7,547.8,846.1,543.7,843.2z M499.7,827.5
			c1.1-1.5,2.7-2.3,4.4-2.3c1.1,0,2.2,0.3,3.2,1l31.3,22.6c2.4,1.8,3,5.2,1.2,7.6c-1.1,1.5-2.7,2.3-4.4,2.3c-1.1,0-2.2-0.3-3.2-1
			l-31.3-22.6C498.4,833.3,497.9,829.9,499.7,827.5z M536.2,921.7C536.2,921.7,536.2,921.7,536.2,921.7c-3,0-5.4-2.4-5.5-5.4
			l-0.1-42c0-3,2.4-5.4,5.4-5.4c0,0,0,0,0,0c3,0,5.4,2.4,5.4,5.4l0.1,42C541.7,919.3,539.2,921.7,536.2,921.7z"/>
		<rect id="SERV_ID30_" x="458.6" y="824.3" class="st2" width="14.2" height="2.1"/>
		<path id="SERV_ID33_" class="st0" d="M459.1,811.2h13.1c1.7,0,3,1.3,3,3v7.1c0,1.7-1.3,3-3,3h-13.1c-1.7,0-3-1.3-3-3v-7.1
			C456.1,812.5,457.4,811.2,459.1,811.2z"/>
		<path id="SERV_ID40_" class="st0" d="M503,889L503,889l-10.2-16.6L482.7,889l0,0c-1.5,2.1-2.4,4.6-2.4,7.4
			c0,6.9,5.6,12.5,12.5,12.5c6.9,0,12.5-5.6,12.5-12.5C505.4,893.6,504.5,891.1,503,889z"/>
		<circle id="SERV_ID38_" class="st3" cx="487.1" cy="900.8" r="2.5"/>
	</g>
	<g id="part5" class="part">
		<path id="SERV_ID106_" class="st0" d="M734.3,782.9c1.9-3.4,6.1-4.6,9.6-2.9c0.9-2.5,1.6-5,2-7.6c-3.8-0.3-6.8-3.5-6.8-7.3
			c0-3.9,3-7,6.8-7.3c-0.4-2.6-1.1-5.1-2-7.5c-3.4,1.6-7.6,0.4-9.5-3c-1.9-3.3-0.9-7.5,2.2-9.7c-1.6-2-3.5-3.8-5.5-5.5
			c-2.2,3.1-6.4,4.1-9.7,2.2c-3.3-1.9-4.6-6.1-3-9.5c-2.5-0.9-5-1.6-7.5-2c-0.3,3.8-3.5,6.7-7.3,6.7c-3.9,0-7-3-7.3-6.7
			c-2.6,0.4-5.1,1.1-7.6,2c1.6,3.4,0.4,7.6-3,9.5c-3.4,1.9-7.6,0.9-9.7-2.2c-2,1.6-3.9,3.5-5.6,5.5c3.2,2.1,4.2,6.4,2.2,9.7
			c-1.9,3.4-6.1,4.6-9.6,2.9c-0.9,2.5-1.6,5-2.1,7.6c3.8,0.2,6.9,3.4,6.9,7.3c0,3.9-3,7.1-6.9,7.3c0.4,2.6,1.1,5.1,2,7.6
			c3.4-1.7,7.7-0.5,9.6,2.9c2,3.4,0.9,7.7-2.3,9.8c1.7,2,3.5,3.9,5.6,5.6c2.1-3.2,6.4-4.3,9.8-2.3c3.4,2,4.6,6.2,2.9,9.7
			c2.5,0.9,5,1.6,7.6,2c0.2-3.9,3.4-6.9,7.3-6.9c3.9,0,7.1,3.1,7.3,6.9c2.6-0.5,5.1-1.1,7.6-2.1c-1.7-3.4-0.5-7.7,2.9-9.6
			c3.4-1.9,7.6-0.9,9.8,2.3c2-1.7,3.8-3.5,5.5-5.6C733.4,790.6,732.4,786.3,734.3,782.9z M690.8,786.9c-12-6.9-16.1-22.3-9.2-34.3
			c6.9-12,22.3-16.1,34.3-9.2c12,6.9,16.1,22.3,9.2,34.3S702.8,793.8,690.8,786.9z"/>
		<path id="SERV_ID61_" class="st2" d="M817.5,771.4c1.9-3.4,6.1-4.6,9.6-2.9c0.9-2.5,1.6-5,2-7.6c-3.8-0.3-6.8-3.5-6.8-7.3
			c0-3.9,3-7,6.8-7.3c-0.4-2.6-1.1-5.1-2-7.5c-3.4,1.6-7.6,0.4-9.5-3c-1.9-3.3-0.9-7.5,2.2-9.7c-1.6-2-3.5-3.8-5.5-5.5
			c-2.2,3.1-6.4,4.1-9.7,2.2c-3.3-1.9-4.6-6.1-3-9.5c-2.5-0.9-5-1.6-7.5-2c-0.3,3.8-3.5,6.7-7.3,6.7c-3.9,0-7-3-7.3-6.7
			c-2.6,0.4-5.1,1.1-7.6,2c1.6,3.4,0.4,7.6-3,9.5c-3.4,1.9-7.6,0.9-9.7-2.2c-2,1.6-3.9,3.5-5.6,5.5c3.2,2.1,4.2,6.4,2.2,9.7
			c-1.9,3.4-6.1,4.6-9.6,2.9c-0.9,2.5-1.6,5-2.1,7.6c3.8,0.2,6.9,3.4,6.9,7.3c0,3.9-3,7.1-6.9,7.3c0.4,2.6,1.1,5.1,2,7.6
			c3.4-1.7,7.7-0.5,9.6,2.9c2,3.4,0.9,7.7-2.3,9.8c1.7,2,3.5,3.9,5.6,5.6c2.1-3.2,6.4-4.3,9.8-2.3c3.4,2,4.6,6.2,2.9,9.7
			c2.5,0.9,5,1.6,7.6,2c0.2-3.9,3.4-6.9,7.3-6.9c3.9,0,7.1,3.1,7.3,6.9c2.6-0.5,5.1-1.1,7.6-2.1c-1.7-3.4-0.5-7.7,2.9-9.6
			c3.4-1.9,7.6-0.9,9.8,2.3c2-1.7,3.8-3.5,5.5-5.6C816.6,779.1,815.5,774.8,817.5,771.4z M774,775.4c-12-6.9-16.1-22.3-9.2-34.3
			s22.3-16.1,34.3-9.2s16.1,22.3,9.2,34.3C801.4,778.2,786,782.3,774,775.4z"/>
		<path id="SERV_ID66_" class="st2" d="M784.7,847.4c1.9-3.4,6.1-4.6,9.6-2.9c0.9-2.5,1.6-5,2-7.6c-3.8-0.3-6.8-3.5-6.8-7.3
			c0-3.9,3-7,6.8-7.3c-0.4-2.6-1.1-5.1-2-7.5c-3.4,1.6-7.6,0.4-9.5-3c-1.9-3.3-0.9-7.5,2.2-9.7c-1.6-2-3.5-3.8-5.5-5.5
			c-2.2,3.1-6.4,4.1-9.7,2.2c-3.3-1.9-4.6-6.1-3-9.5c-2.5-0.9-5-1.6-7.5-2c-0.3,3.8-3.5,6.7-7.3,6.7c-3.9,0-7-3-7.3-6.7
			c-2.6,0.4-5.1,1.1-7.6,2c1.6,3.4,0.4,7.6-3,9.5c-3.4,1.9-7.6,0.9-9.7-2.2c-2,1.6-3.9,3.5-5.6,5.5c3.2,2.1,4.2,6.4,2.2,9.7
			c-1.9,3.4-6.1,4.6-9.6,2.9c-0.9,2.5-1.6,5-2.1,7.6c3.8,0.2,6.9,3.4,6.9,7.3c0,3.9-3,7.1-6.9,7.3c0.4,2.6,1.1,5.1,2,7.6
			c3.4-1.7,7.7-0.5,9.6,2.9c2,3.4,0.9,7.7-2.3,9.8c1.7,2,3.5,3.9,5.6,5.6c2.1-3.2,6.4-4.3,9.8-2.3c3.4,2,4.6,6.2,2.9,9.7
			c2.5,0.9,5,1.6,7.6,2c0.2-3.9,3.4-6.9,7.3-6.9c3.9,0,7.1,3.1,7.3,6.9c2.6-0.5,5.1-1.1,7.6-2.1c-1.7-3.4-0.5-7.7,2.9-9.6
			c3.4-1.9,7.6-0.9,9.8,2.3c2-1.7,3.8-3.5,5.5-5.6C783.8,855,782.7,850.7,784.7,847.4z M741.2,851.3c-12-6.9-16.1-22.3-9.2-34.3
			c6.9-12,22.3-16.1,34.3-9.2s16.1,22.3,9.2,34.3C768.5,854.2,753.2,858.3,741.2,851.3z"/>
	</g>
	<g id="part4" class="part">
		<path id="SERV_ID72_" class="st2" d="M911.9,629.4h-78.1l10.7-43.6l10.7-43.6l8.9-36.2c1.2-5,5-7.4,8.8-7.4c3.8,0,7.5,2.5,8.8,7.4
			l8.9,36.2l10.7,43.6L911.9,629.4z"/>
		<rect id="SERV_ID57_" x="819.1" y="629.3" class="st2" width="107.4" height="9.7"/>
		<path id="SERV_ID63_" class="st0" d="M890.5,542.1h-35.3l8.9-36.2c1.2-5,5-7.4,8.8-7.4c3.8,0,7.5,2.5,8.8,7.4L890.5,542.1z"/>
		<polygon id="SERV_ID65_" class="st0" points="911.9,629.4 833.8,629.4 844.5,585.7 901.2,585.7 		"/>
	</g>
	<g id="part3" class="part">
		<path id="SERV_ID47_" class="st2" d="M952.5,299.3l-2.9-9c-0.8-2.5-2.6-4.5-4.9-5.7c-2.4-1.2-5-1.3-7.5-0.5l-29.4,10.2h-41.9v-8.1
			h21v-8.5h-50.5v8.5h21v8.1h-44.2c-1.4,0-2.7-0.2-4-0.5l-92.3-20.4l-3.3,7.8l87.6,37.3c6,2.5,9.9,8.4,9.9,14.9v16.4
			c0,4.9,4,8.9,8.9,8.9h81c4.9,0,8.9-4,8.9-8.9v-16.6l38.2-22.6C952.1,308.3,953.9,303.7,952.5,299.3z M909.9,317.3V307
			c0-1.7,1.1-3.3,2.7-3.8l24.5-8.5c1.6-0.6,3.4,0.3,4,2l1.1,3.3c0.4,1.4-0.1,2.9-1.4,3.6l-27.1,16
			C912,320.5,909.9,319.3,909.9,317.3z"/>
		<g id="SERV_ID35_" class="part">
			<path id="SERV_ID41_" class="st0" d="M722.7,297.1L722.7,297.1l-9.1-14.9l-9.1,14.9l0,0c-1.3,1.9-2.2,4.1-2.2,6.6
				c0,6.2,5.1,11.3,11.3,11.3c6.2,0,11.3-5.1,11.3-11.3C724.9,301.3,724.1,299,722.7,297.1z"/>
			<path id="SERV_ID45_" class="st3" d="M711.6,306.7c0,1.5-1.2,2.6-2.6,2.6c-1.5,0-2.6-1.2-2.6-2.6c0-1.5,1.2-2.6,2.6-2.6
				C710.4,304,711.6,305.2,711.6,306.7z"/>
		</g>
	</g>
	<path id="part2" class="st2 part" d="M606.5,202.1c0-0.5,0-0.9,0-1.4c0-6,2.2-11.8,6.5-16l51.4-51.4c4.2-4.2,10-6.4,16-6.4
		c0,0,0.1,0,0.1,0c9.4,0,17.7-5.2,22-12.9h-21l-7.1-12.2l7.1-12.2l21,0c-4.5-8.1-13.3-13.4-23.4-12.9c-12.7,0.7-23.1,11.1-23.7,23.8
		c0,0.5,0,0.9,0,1.4c0,6-2.2,11.8-6.5,16l-51.4,51.4c-4.2,4.2-10,6.4-16,6.4c0,0-0.1,0-0.1,0c-9.4,0-17.7,5.2-22,12.9h21l7.1,12.2
		l-7.1,12.2h-21c4.5,8.1,13.3,13.4,23.4,12.9C595.5,225.2,605.9,214.8,606.5,202.1z"/>
	<g id="part1" class="part">
		<path id="SERV_ID4_" class="st2" d="M454.2,209.4H293.9c-1.9,0-3.5-1.6-3.5-3.5V93.2h167.3v112.7
			C457.7,207.9,456.2,209.4,454.2,209.4z"/>
		<rect id="SERV_ID16_" x="283.4" y="78.1" class="st0" width="181.3" height="15.1"/>
		<rect id="SERV_ID14_" x="301.5" y="60.7" class="st0" width="24.4" height="17.4"/>
		<rect id="SERV_ID24_" x="422.2" y="60.7" class="st7" width="24.4" height="17.4"/>
		<rect id="SERV_ID27_" x="422.2" y="112.6" class="st3" width="24.3" height="6.3"/>
		<polygon id="SERV_ID28_" class="st3" points="325.9,112.6 316.9,112.6 316.9,103.5 310.6,103.5 310.6,112.6 301.6,112.6 
			301.6,118.8 310.6,118.8 310.6,127.9 316.9,127.9 316.9,118.8 325.9,118.8 		"/>
	</g>
</g>
</svg>
