<svg id="Layer_1" data-name="Layer 1" xmlns="http://www.w3.org/2000/svg" viewBox="0 0 900.88 886.3"><defs><style>.cls-1{fill:#b80e0c;}.cls-2{fill:#003854;}.cls-3{fill:#0069b3;}.cls-4{fill:#fff;}.cls-5{fill:#3c3c3b;}.cls-6{fill:#f8b133;}.cls-7{fill:#d9d9d9;}.cls-8{fill:none;stroke:#000;stroke-miterlimit:10;stroke-width:0.24px;}</style></defs><title>car slide</title><g id="_Group_" data-name="&lt;Group&gt;"><g id="_Group_2" data-name="&lt;Group&gt;"><path id="_Compound_Path_" data-name="&lt;Compound Path&gt;" class="cls-1" d="M195.27,636.31H70.51a18.47,18.47,0,0,1-16-27.69h0l62.39-108a18.5,18.5,0,0,1,16-9.23h0a18.52,18.52,0,0,1,16,9.23l62.38,108.05a18.46,18.46,0,0,1-16,27.69ZM78.67,613.14H187.12l-54.23-93.92Z" transform="translate(-52.06 -60.7)"/></g><g id="_Group_3" data-name="&lt;Group&gt;"><rect id="_Rectangle_" data-name="&lt;Rectangle&gt;" class="cls-2" x="14.76" y="579.09" width="39.47" height="7.29"/><rect id="_Rectangle_2" data-name="&lt;Rectangle&gt;" class="cls-2" x="107.43" y="579.09" width="39.47" height="7.29"/></g></g><g id="_Group_4" data-name="&lt;Group&gt;"><path id="_Path_" data-name="&lt;Path&gt;" class="cls-2" d="M911.87,629.35H833.81l10.69-43.64,10.69-43.64,8.88-36.19c1.21-5,5-7.44,8.78-7.44s7.54,2.48,8.76,7.44l8.87,36.19,10.7,43.64Z" transform="translate(-52.06 -60.7)"/><rect id="_Rectangle_3" data-name="&lt;Rectangle&gt;" class="cls-2" x="767.09" y="568.65" width="107.38" height="9.73"/><path id="_Path_2" data-name="&lt;Path&gt;" class="cls-1" d="M890.48,542.07H855.19l8.88-36.19c1.21-5,5-7.44,8.78-7.44s7.54,2.48,8.76,7.44Z" transform="translate(-52.06 -60.7)"/><polygon id="_Path_3" data-name="&lt;Path&gt;" class="cls-1" points="859.81 568.65 781.75 568.65 792.44 525.01 849.12 525.01 859.81 568.65"/></g><path id="_Path_4" data-name="&lt;Path&gt;" class="cls-2" d="M606.49,202.09q0-.71,0-1.38a22.47,22.47,0,0,1,6.49-16l51.4-51.4a22.37,22.37,0,0,1,16-6.43h.08a25.15,25.15,0,0,0,22-12.91h-21l-7.06-12.24,7.06-12.23h21a25.15,25.15,0,0,0-47.1,11q0,.69,0,1.38a22.42,22.42,0,0,1-6.48,16l-51.41,51.41a22.38,22.38,0,0,1-16,6.42h-.09a25.13,25.13,0,0,0-22,12.92h21l7,12.23-7,12.24h-21a25.15,25.15,0,0,0,47.09-11Z" transform="translate(-52.06 -60.7)"/><g id="_Group_5" data-name="&lt;Group&gt;"><path id="_Rectangle_4" data-name="&lt;Rectangle&gt;" class="cls-2" d="M238.32,32.54H405.66a0,0,0,0,1,0,0V145.25a3.5,3.5,0,0,1-3.5,3.5H241.82a3.5,3.5,0,0,1-3.5-3.5V32.54A0,0,0,0,1,238.32,32.54Z"/><rect id="_Rectangle_5" data-name="&lt;Rectangle&gt;" class="cls-1" x="231.35" y="17.43" width="181.28" height="15.11"/><rect id="_Rectangle_6" data-name="&lt;Rectangle&gt;" class="cls-1" x="249.45" width="24.4" height="17.43"/><rect id="_Rectangle_7" data-name="&lt;Rectangle&gt;" class="cls-3" x="370.13" width="24.4" height="17.43"/><rect id="_Rectangle_8" data-name="&lt;Rectangle&gt;" class="cls-4" x="370.15" y="51.86" width="24.35" height="6.26"/><polygon id="_Path_5" data-name="&lt;Path&gt;" class="cls-4" points="273.85 51.86 264.81 51.86 264.81 42.82 258.55 42.82 258.55 51.86 249.5 51.86 249.5 58.12 258.55 58.12 258.55 67.17 264.81 67.17 264.81 58.12 273.85 58.12 273.85 51.86"/></g><g id="_Group_6" data-name="&lt;Group&gt;"><g id="_Group_7" data-name="&lt;Group&gt;"><path id="_Path_6" data-name="&lt;Path&gt;" class="cls-1" d="M376.15,450s1.88-24.23-5.53-24.86c-5.24-.45-22.85-.28-32.76,1.36-4.09.67-6.59,3.66-5.54,6.61,1.37,3.85,4,11.06,8.64,12.31C349.25,447.63,376.15,450,376.15,450Z" transform="translate(-52.06 -60.7)"/><polygon id="_Path_7" data-name="&lt;Path&gt;" class="cls-5" points="314.41 387.95 321.71 397.08 324.14 389.29 314.41 387.95"/><path id="_Path_8" data-name="&lt;Path&gt;" class="cls-1" d="M632.8,450s-1.84-24.23,5.41-24.86c5.12-.45,22.34-.28,32,1.36,4,.67,6.44,3.66,5.41,6.61-1.34,3.85-3.87,11.06-8.44,12.31C659.11,447.63,632.8,450,632.8,450Z" transform="translate(-52.06 -60.7)"/><polygon id="_Path_9" data-name="&lt;Path&gt;" class="cls-5" points="590.42 387.95 583.12 397.08 580.69 389.29 590.42 387.95"/><path id="_Rectangle_9" data-name="&lt;Rectangle&gt;" class="cls-2" d="M289.32,516.66h49.9a0,0,0,0,1,0,0v32.18a8.32,8.32,0,0,1-8.32,8.32H297.63a8.32,8.32,0,0,1-8.32-8.32V516.66A0,0,0,0,1,289.32,516.66Z"/><path id="_Rectangle_10" data-name="&lt;Rectangle&gt;" class="cls-2" d="M626,577.36h33.26a8.32,8.32,0,0,1,8.32,8.32v32.18a0,0,0,0,1,0,0h-49.9a0,0,0,0,1,0,0V585.68A8.32,8.32,0,0,1,626,577.36Z" transform="translate(1233.2 1134.52) rotate(180)"/><path id="_Path_10" data-name="&lt;Path&gt;" class="cls-1" d="M667.2,490.43c-5.49-21.35-14.37-30.65-21.13-31.91s-11-3-16.06-13.53-27.48-60.86-50.72-63.4-74.81-2.53-74.81-2.53-51.57,0-74.81,2.53S384,434.42,379,445s-9.3,12.26-16.06,13.53-15.64,10.56-21.14,31.91-2.53,85.16,1.7,97.84S370.92,601.8,379,601.8s12.78-7.75,22-6.34c18.75,2.87,188.35,2.87,207.1,0,9.2-1.41,14,6.34,22,6.34s31.27-.85,35.5-13.53S672.69,511.77,667.2,490.43Z" transform="translate(-52.06 -60.7)"/><path id="_Path_11" data-name="&lt;Path&gt;" class="cls-4" d="M404.35,500.36l-47.85-19.2a5.68,5.68,0,0,0-7.68,4c-1.59,7.18-2.61,18.34,5.19,22,11.84,5.5,38.46,8.88,44.8,8,2.43-.32,5.05-2.08,7.35-4.11A6.36,6.36,0,0,0,404.35,500.36Z" transform="translate(-52.06 -60.7)"/><path id="_Path_12" data-name="&lt;Path&gt;" class="cls-2" d="M388.1,557.07a4.85,4.85,0,0,1,2.36,7.67c-4.24,5.34-11,12.62-16.21,12.62s-13.56-1.5-19.21-2.64a4.84,4.84,0,0,1-3.49-6.67l2.48-5.76a15.92,15.92,0,0,1,17.89-9.3C376.79,554,382.51,555.37,388.1,557.07Z" transform="translate(-52.06 -60.7)"/><circle id="_Path_13" data-name="&lt;Path&gt;" class="cls-6" cx="357.2" cy="495.69" r="7.29" transform="translate(-256.54 675.46) rotate(-77.4)"/><path id="_Path_14" data-name="&lt;Path&gt;" class="cls-2" d="M581.56,499a35.15,35.15,0,0,0-3.77-1.11c-10.57-2.54-73.31-2.21-73.31-2.21s-62.75-.33-73.31,2.21A33.84,33.84,0,0,0,427.4,499a9.19,9.19,0,0,0-4.8,13.12l6.8,12.17a35.15,35.15,0,0,0,19.53,16.45c.52.17,1.05.33,1.58.47,15.79,4.36,43.38,6,54,6s38.18-1.67,54-6c.53-.14,1.06-.3,1.58-.47a35.13,35.13,0,0,0,19.52-16.45l6.8-12.17A9.18,9.18,0,0,0,581.56,499Z" transform="translate(-52.06 -60.7)"/><path id="_Path_15" data-name="&lt;Path&gt;" class="cls-4" d="M604.61,500.36l47.85-19.2a5.68,5.68,0,0,1,7.67,4c1.6,7.18,2.62,18.34-5.19,22-11.83,5.5-38.46,8.88-44.8,8-2.43-.32-5-2.08-7.35-4.11A6.36,6.36,0,0,1,604.61,500.36Z" transform="translate(-52.06 -60.7)"/><path id="_Path_16" data-name="&lt;Path&gt;" class="cls-2" d="M604.13,580.33c-5.91-5.92-11.09-10.49-15-13.76A24.7,24.7,0,0,0,571.73,561c-17.5,1.18-117,1.18-134.5,0a24.73,24.73,0,0,0-17.36,5.56c-3.95,3.27-9.14,7.84-15.05,13.76a4.66,4.66,0,0,0,2.65,7.9c28,3.88,166,3.88,194,0A4.65,4.65,0,0,0,604.13,580.33Z" transform="translate(-52.06 -60.7)"/><path id="_Path_17" data-name="&lt;Path&gt;" class="cls-2" d="M620.86,557.07a4.85,4.85,0,0,0-2.37,7.67c4.25,5.34,11,12.62,16.21,12.62s13.57-1.5,19.22-2.64a4.84,4.84,0,0,0,3.49-6.67l-2.48-5.76A15.93,15.93,0,0,0,637,553C632.17,554,626.44,555.37,620.86,557.07Z" transform="translate(-52.06 -60.7)"/><path id="_Path_18" data-name="&lt;Path&gt;" class="cls-2" d="M620.57,438.58a267.7,267.7,0,0,0-24.36-40.68,17.41,17.41,0,0,0-11.8-6.91c-26.51-3.38-79.93-3.9-79.93-3.9s-53.43.52-79.94,3.9a17.43,17.43,0,0,0-11.8,6.91,268.31,268.31,0,0,0-24.35,40.68,2.54,2.54,0,0,0,2.37,3.59c19.92-.33,107.91-1.83,113.72-1.83s93.8,1.5,113.72,1.83A2.54,2.54,0,0,0,620.57,438.58Z" transform="translate(-52.06 -60.7)"/><circle id="_Path_19" data-name="&lt;Path&gt;" class="cls-6" cx="651.75" cy="495.69" r="7.29" transform="translate(-211.68 545.35) rotate(-45)"/></g><path id="_Rectangle_11" data-name="&lt;Rectangle&gt;" class="cls-7" d="M269.15,557.16H379a3.53,3.53,0,0,1,3.53,3.53V564a3.53,3.53,0,0,1-3.53,3.53H269.15a0,0,0,0,1,0,0v-10.4A0,0,0,0,1,269.15,557.16Z"/><path id="_Rectangle_12" data-name="&lt;Rectangle&gt;" class="cls-7" d="M572.93,617.86H682.74a3.53,3.53,0,0,1,3.53,3.53v3.34a3.53,3.53,0,0,1-3.53,3.53H572.93a0,0,0,0,1,0,0v-10.4A0,0,0,0,1,572.93,617.86Z" transform="translate(1207.14 1185.42) rotate(180)"/></g><g id="_Group_8" data-name="&lt;Group&gt;"><polygon id="_Path_20" data-name="&lt;Path&gt;" class="cls-2" points="120.82 208.96 47.91 208.96 110.38 269.65 120.82 269.65 131.27 269.65 193.73 208.96 120.82 208.96"/><polygon id="_Path_21" data-name="&lt;Path&gt;" class="cls-1" points="120.82 269.65 110.38 269.65 114.64 324.76 120.82 324.76 127.01 324.76 131.27 269.65 120.82 269.65"/></g><g id="_Group_9" data-name="&lt;Group&gt;"><path id="_Compound_Path_2" data-name="&lt;Compound Path&gt;" class="cls-2" d="M543.72,843.2,511.09,820a15.35,15.35,0,0,0-8.89-2.85H490.53A15.29,15.29,0,0,0,480,821.32l-5.37,5.09H458a1.91,1.91,0,0,0-1.92,1.92V940a7,7,0,0,0,7,7h80.15a7,7,0,0,0,7-7V855.65A15.29,15.29,0,0,0,543.72,843.2Zm-44.07-15.71a5.45,5.45,0,0,1,4.42-2.26,5.38,5.38,0,0,1,3.18,1l31.31,22.56a5.45,5.45,0,0,1-6.36,8.84l-31.31-22.57A5.44,5.44,0,0,1,499.65,827.49Zm36.58,94.25h0a5.44,5.44,0,0,1-5.44-5.43l-.07-42a5.43,5.43,0,0,1,5.42-5.44h0a5.44,5.44,0,0,1,5.43,5.43l.08,42A5.44,5.44,0,0,1,536.23,921.74Z" transform="translate(-52.06 -60.7)"/><rect id="_Rectangle_13" data-name="&lt;Rectangle&gt;" class="cls-2" x="406.58" y="763.62" width="14.18" height="2.09"/><rect id="_Rectangle_14" data-name="&lt;Rectangle&gt;" class="cls-1" x="404.01" y="750.48" width="19.07" height="13.14" rx="3" ry="3"/><path id="_Path_22" data-name="&lt;Path&gt;" class="cls-1" d="M503,889h0l-10.16-16.55L482.72,889h0A12.55,12.55,0,1,0,503,889Z" transform="translate(-52.06 -60.7)"/><circle id="_Path_23" data-name="&lt;Path&gt;" class="cls-4" cx="435.02" cy="840.11" r="2.54"/></g><g id="_Group_10" data-name="&lt;Group&gt;"><path id="_Compound_Path_3" data-name="&lt;Compound Path&gt;" class="cls-2" d="M952.46,299.32l-2.91-9a9.72,9.72,0,0,0-12.44-6.19L907.69,294.3H865.82v-8.06h21v-8.53H836.32v8.53h21v8.06H813.13a16.68,16.68,0,0,1-4-.5l-92.25-20.35-3.25,7.81,87.6,37.32a16.14,16.14,0,0,1,9.89,14.88v16.41a8.89,8.89,0,0,0,8.89,8.89h81a8.89,8.89,0,0,0,8.88-8.89V333.25l38.25-22.58A9.64,9.64,0,0,0,952.46,299.32Zm-42.56,18V307a4.07,4.07,0,0,1,2.74-3.85l24.52-8.51a3.11,3.11,0,0,1,4,2l1,3.26a3.07,3.07,0,0,1-1.37,3.61l-27.15,16A2.48,2.48,0,0,1,909.9,317.34Z" transform="translate(-52.06 -60.7)"/><g id="_Group_11" data-name="&lt;Group&gt;"><path id="_Path_24" data-name="&lt;Path&gt;" class="cls-1" d="M722.72,297.14h0l-9.14-14.88-9.14,14.88h0a11.28,11.28,0,1,0,18.26,0Z" transform="translate(-52.06 -60.7)"/><path id="_Path_25" data-name="&lt;Path&gt;" class="cls-4" d="M711.57,306.69a2.65,2.65,0,1,1-2.65-2.65A2.65,2.65,0,0,1,711.57,306.69Z" transform="translate(-52.06 -60.7)"/></g></g><g id="_Group_12" data-name="&lt;Group&gt;"><path id="_Compound_Path_4" data-name="&lt;Compound Path&gt;" class="cls-1" d="M734.29,782.94a7.34,7.34,0,0,1,9.56-2.93,41.72,41.72,0,0,0,2-7.57,7.34,7.34,0,0,1,0-14.63,42.1,42.1,0,0,0-2-7.55,7.34,7.34,0,0,1-7.32-12.66,41.14,41.14,0,0,0-5.53-5.51,7.33,7.33,0,0,1-12.65-7.32,42.55,42.55,0,0,0-7.54-2,7.35,7.35,0,0,1-14.64,0,43.12,43.12,0,0,0-7.55,2A7.33,7.33,0,0,1,675.88,732a42.1,42.1,0,0,0-5.55,5.54A7.34,7.34,0,0,1,663,750.19a42.15,42.15,0,0,0-2.05,7.58,7.34,7.34,0,0,1,0,14.65,43,43,0,0,0,2,7.62,7.34,7.34,0,0,1,7.3,12.7,41.88,41.88,0,0,0,5.57,5.57,7.35,7.35,0,0,1,12.7,7.34,42.42,42.42,0,0,0,7.61,2,7.34,7.34,0,0,1,14.65,0,43.33,43.33,0,0,0,7.6-2.06A7.34,7.34,0,0,1,731,798.27a42.81,42.81,0,0,0,5.54-5.56A7.36,7.36,0,0,1,734.29,782.94Zm-43.46,4a25.08,25.08,0,1,1,34.26-9.17A25.07,25.07,0,0,1,690.83,786.92Z" transform="translate(-52.06 -60.7)"/><path id="_Compound_Path_5" data-name="&lt;Compound Path&gt;" class="cls-2" d="M817.49,771.44a7.33,7.33,0,0,1,9.55-2.93,41.72,41.72,0,0,0,2-7.57,7.34,7.34,0,0,1,0-14.63,42.1,42.1,0,0,0-2-7.55,7.34,7.34,0,0,1-7.32-12.66,40.57,40.57,0,0,0-5.53-5.51,7.33,7.33,0,0,1-12.65-7.32,42.32,42.32,0,0,0-7.54-2,7.34,7.34,0,0,1-14.63,0,43.23,43.23,0,0,0-7.56,2,7.33,7.33,0,0,1-12.69,7.27,42.71,42.71,0,0,0-5.55,5.54,7.34,7.34,0,0,1-7.36,12.65,43,43,0,0,0-2,7.58,7.34,7.34,0,0,1,0,14.65,43.9,43.9,0,0,0,2,7.62,7.34,7.34,0,0,1,7.3,12.7,41.88,41.88,0,0,0,5.57,5.57,7.35,7.35,0,0,1,12.7,7.34,42.42,42.42,0,0,0,7.61,2,7.34,7.34,0,0,1,14.65,0,43.09,43.09,0,0,0,7.6-2.06,7.34,7.34,0,0,1,12.68-7.34,42.81,42.81,0,0,0,5.54-5.56A7.34,7.34,0,0,1,817.49,771.44Zm-43.47,4a25.08,25.08,0,1,1,34.26-9.17A25.07,25.07,0,0,1,774,775.42Z" transform="translate(-52.06 -60.7)"/><path id="_Compound_Path_6" data-name="&lt;Compound Path&gt;" class="cls-2" d="M784.67,847.35a7.34,7.34,0,0,1,9.56-2.93,42.56,42.56,0,0,0,2-7.57,7.34,7.34,0,0,1,0-14.64,42,42,0,0,0-2-7.54A7.34,7.34,0,0,1,786.86,802a41.21,41.21,0,0,0-5.53-5.52,7.33,7.33,0,0,1-12.65-7.32,43.38,43.38,0,0,0-7.54-2,7.35,7.35,0,0,1-14.64,0,43.12,43.12,0,0,0-7.55,2,7.33,7.33,0,0,1-12.69,7.27,42,42,0,0,0-5.55,5.53,7.34,7.34,0,0,1-7.36,12.66,41.93,41.93,0,0,0-2.05,7.58,7.34,7.34,0,0,1,0,14.65,42.69,42.69,0,0,0,2,7.61,7.34,7.34,0,0,1,7.3,12.71,42.48,42.48,0,0,0,5.57,5.57,7.34,7.34,0,0,1,12.7,7.33,42.45,42.45,0,0,0,7.61,2.05,7.34,7.34,0,0,1,14.65,0,43.3,43.3,0,0,0,7.6-2.05,7.34,7.34,0,0,1,12.68-7.34,43.44,43.44,0,0,0,5.54-5.56A7.35,7.35,0,0,1,784.67,847.35Zm-43.46,4a25.08,25.08,0,1,1,34.26-9.17A25.08,25.08,0,0,1,741.21,851.33Z" transform="translate(-52.06 -60.7)"/></g><g id="_Group_13" data-name="&lt;Group&gt;"><polygon id="_Path_26" data-name="&lt;Path&gt;" class="cls-2" points="144.04 655.34 141.63 657.55 139.22 659.77 148.69 673.71 153.27 675.46 209.42 736.58 212.03 734.18 214.64 731.78 158.49 670.66 157.13 665.95 144.04 655.34"/><rect id="_Rectangle_15" data-name="&lt;Rectangle&gt;" class="cls-2" x="251.81" y="794.19" width="28.08" height="5.19" transform="translate(-521.06 329.23) rotate(-42.58)"/><path id="_Path_27" data-name="&lt;Path&gt;" class="cls-2" d="M282.62,794.29l45.74,49.78a7.06,7.06,0,0,1,1.18,7.91,26.47,26.47,0,0,1-14.08,12.93,7.05,7.05,0,0,1-7.78-1.84l-45.74-49.78a3.46,3.46,0,1,0-4.68-5.09l20.69-19a3.45,3.45,0,1,0,4.67,5.09Z" transform="translate(-52.06 -60.7)"/><g id="_Group_14" data-name="&lt;Group&gt;"><rect id="_Rectangle_16" data-name="&lt;Rectangle&gt;" class="cls-1" x="290.14" y="797.04" width="9.04" height="62.19" rx="3.43" ry="3.43" transform="translate(-534.69 356.99) rotate(-42.58)"/><path id="_Path_28" data-name="&lt;Path&gt;" class="cls-1" d="M284,795.74,326,841.54a4.53,4.53,0,0,1-6.39-.26l-36-39.15A4.53,4.53,0,0,1,284,795.74Z" transform="translate(-52.06 -60.7)"/><path id="_Path_29" data-name="&lt;Path&gt;" class="cls-1" d="M269.57,815.09l36,39.15a4.52,4.52,0,0,1-.2,6.29l-42.06-45.78a4.54,4.54,0,0,1,6.29.34Z" transform="translate(-52.06 -60.7)"/></g></g><circle class="cls-8" cx="450.74" cy="442.99" r="375.45"/><line class="cls-8" x1="450.74" y1="442.99" x2="450.74" y2="818.44"/><line class="cls-8" x1="450.74" y1="442.99" x2="692.07" y2="730.6"/><line class="cls-8" x1="450.74" y1="442.99" x2="820.48" y2="508.19"/><line class="cls-8" x1="450.74" y1="442.99" x2="775.89" y2="255.27"/><line class="cls-8" x1="450.74" y1="442.99" x2="579.15" y2="90.19"/><line class="cls-8" x1="450.74" y1="442.99" x2="322.33" y2="90.19"/><line class="cls-8" x1="450.74" y1="442.99" x2="125.6" y2="255.27"/><line class="cls-8" x1="450.74" y1="442.99" x2="81" y2="508.19"/><line class="cls-8" x1="450.74" y1="442.99" x2="209.41" y2="730.6"/></svg>