<?xml version="1.0"?>
<svg xmlns="http://www.w3.org/2000/svg" id="Layer_1" data-name="Layer 1" viewBox="0 0 512 512" width="512" height="512"><title>Nearby restaurants </title><path d="M383.5,82.929a180.036,180.036,0,0,0-255,0A191.666,191.666,0,0,0,73.157,205.5a180.6,180.6,0,0,0,10.908,74.34c8.633,23.657,22.688,45.96,41.775,66.289L251.626,480.106a6,6,0,0,0,8.748,0L386.16,346.125c19.087-20.329,33.142-42.632,41.775-66.289a180.6,180.6,0,0,0,10.908-74.34A191.666,191.666,0,0,0,383.5,82.929Zm33.159,192.794c-8.073,22.125-21.279,43.048-39.249,62.189L256,467.234,134.588,337.912c-17.97-19.141-31.176-40.064-39.249-62.189A168.685,168.685,0,0,1,85.13,206.3,179.671,179.671,0,0,1,137,91.4a168.037,168.037,0,0,1,238,0A179.671,179.671,0,0,1,426.87,206.3,168.685,168.685,0,0,1,416.661,275.723Z"/><path d="M256,71.247c-76.6,0-138.922,63.922-138.922,142.492S179.4,356.23,256,356.23s138.922-63.92,138.922-142.491S332.6,71.247,256,71.247Zm0,272.983c-69.985,0-126.922-58.538-126.922-130.491S186.015,83.247,256,83.247s126.922,58.538,126.922,130.492S325.985,344.23,256,344.23Z"/><path d="M239.565,124.914a6,6,0,0,0-6,6v35.149a10.78,10.78,0,0,1-4.783,8.955v-44.1a6,6,0,0,0-12,0v44.1A10.778,10.778,0,0,1,212,166.063V130.914a6,6,0,0,0-12,0v35.149a22.821,22.821,0,0,0,16.782,21.976v20.982h-5.6a6,6,0,0,0-6,6v70.913a17.6,17.6,0,0,0,35.193,0V215.021a6,6,0,0,0-6-6h-5.6V188.039a22.821,22.821,0,0,0,16.783-21.976V130.914A6,6,0,0,0,239.565,124.914Zm-11.186,161.02a5.6,5.6,0,0,1-11.193,0V221.021h11.193Z"/><path d="M305.938,122.632l-17.2.176a24.445,24.445,0,0,0-23.774,24.3V288.165a16.682,16.682,0,1,0,33.363,0V242.011H306a6,6,0,0,0,6-6V128.632a6,6,0,0,0-1.779-4.265A6.114,6.114,0,0,0,305.938,122.632ZM286.323,288.165a4.682,4.682,0,1,1-9.363,0V242.011h9.363ZM300,230.011H276.96v-82.9a12.361,12.361,0,0,1,11.967-12.3L300,134.693Z"/></svg>
