<svg height="512pt" viewBox="0 0 512 512" width="512pt" xmlns="http://www.w3.org/2000/svg"><path d="m256 0c-140.960938 0-256 115.050781-256 256 0 140.960938 115.050781 256 256 256 140.960938 0 256-115.050781 256-256 0-140.960938-115.050781-256-256-256zm125.703125 443.726562-7.714844-13.359374c-4.140625-7.175782-13.3125-9.632813-20.488281-5.492188s-9.632812 13.316406-5.488281 20.492188l7.730469 13.394531c-25.859376 12.773437-54.496094 20.738281-84.742188 22.730469v-15.492188c0-8.285156-6.714844-15-15-15s-15 6.714844-15 15v15.488281c-30.246094-1.992187-58.882812-9.957031-84.742188-22.730469l7.730469-13.394531c4.144531-7.171875 1.6875-16.347656-5.488281-20.488281-7.175781-4.144531-16.347656-1.683594-20.488281 5.488281l-7.714844 13.359375c-24.476563-16.441406-45.578125-37.542968-62.019531-62.019531l13.359375-7.714844c7.171875-4.140625 9.628906-13.3125 5.488281-20.488281s-13.316406-9.632812-20.488281-5.488281l-13.394531 7.730469c-12.773438-25.859376-20.738282-54.496094-22.730469-84.742188h15.488281c8.285156 0 15-6.714844 15-15s-6.714844-15-15-15h-15.488281c1.992187-30.246094 9.957031-58.882812 22.726562-84.742188l13.394531 7.730469c7.144532 4.125 16.332032 1.714844 20.492188-5.488281 4.140625-7.175781 1.683594-16.347656-5.492188-20.488281l-13.359374-7.714844c16.445312-24.476563 37.542968-45.578125 62.023437-62.019531l7.710937 13.359375c4.164063 7.207031 13.351563 9.609375 20.492188 5.488281 7.171875-4.140625 9.632812-13.316406 5.488281-20.488281l-7.730469-13.394531c25.859376-12.773438 54.496094-20.738282 84.742188-22.730469v15.488281c0 8.285156 6.714844 15 15 15s15-6.714844 15-15v-15.488281c30.246094 1.992187 58.882812 9.957031 84.742188 22.726562l-7.730469 13.398438c-4.144531 7.171875-1.6875 16.347656 5.488281 20.488281 7.148438 4.128906 16.335938 1.710938 20.488281-5.488281l7.714844-13.359375c24.476563 16.441406 45.578125 37.542968 62.019531 62.019531l-13.359375 7.714844c-7.171875 4.140625-9.632812 13.3125-5.488281 20.488281 4.15625 7.195312 13.335938 9.621094 20.488281 5.488281l13.394531-7.730469c12.773438 25.859376 20.738282 54.496094 22.730469 84.742188h-15.488281c-8.285156 0-15 6.714844-15 15s6.714844 14.988281 15 14.988281h15.488281c-1.992187 30.246094-9.957031 58.894531-22.726562 84.753907l-13.394531-7.730469c-7.175782-4.144531-16.347657-1.6875-20.492188 5.488281-4.140625 7.175781-1.683594 16.347656 5.492188 20.488281l13.359374 7.714844c-16.445312 24.476563-37.546874 45.578125-62.023437 62.023437zm0 0"/><path d="m256 91c-90.980469 0-165 74.019531-165 165s74.019531 165 165 165 165-74.019531 165-165-74.019531-165-165-165zm0 300c-74.4375 0-135-60.5625-135-135s60.5625-135 135-135 135 60.5625 135 135-60.5625 135-135 135zm0 0"/><path d="m256 151c-57.707031 0-105 46.910156-105 105 0 57.707031 46.910156 105 105 105 57.757812 0 105-46.964844 105-105 0-57.828125-47.027344-105-105-105zm62.542969 146.328125-21.941407-21.949219c.683594-1.421875 1.285157-2.886718 1.820313-4.386718h31.070313c-1.949219 9.558593-5.730469 18.46875-10.949219 26.335937zm-125.085938-82.65625 21.941407 21.9375c-.683594 1.421875-1.285157 2.890625-1.816407 4.390625h-31.070312c1.945312-9.5625 5.726562-18.460938 10.945312-26.328125zm73.140625 51.921875c-.023437.023438-.042968.046875-.0625.070312-2.710937 2.679688-6.433594 4.335938-10.535156 4.335938s-7.824219-1.65625-10.53125-4.335938c-.023438-.023437-.042969-.046874-.0625-.070312-.023438-.019531-.046875-.039062-.070312-.0625-2.679688-2.710938-4.335938-6.429688-4.335938-10.53125s1.65625-7.820312 4.335938-10.53125c.023437-.023438.046874-.042969.070312-.0625.019531-.023438.039062-.046875.0625-.070312 2.707031-2.679688 6.429688-4.335938 10.53125-4.335938 4.105469 0 7.824219 1.660156 10.535156 4.339844.023438.019531.039063.042968.0625.066406.019532.019531.042969.039062.0625.058594 2.679688 2.710937 4.339844 6.429687 4.339844 10.535156 0 4.101562-1.65625 7.820312-4.335938 10.53125-.023437.023438-.046874.042969-.066406.0625zm8.792969-51.195312c-1.421875-.683594-2.890625-1.285157-4.390625-1.820313v-31.070313c9.5625 1.949219 18.460938 5.730469 26.328125 10.949219zm-34.390625-1.820313c-1.5.535156-2.96875 1.136719-4.390625 1.820313l-21.9375-21.941407c7.867187-5.214843 16.765625-9 26.328125-10.945312zm-58.492188 57.421875h31.070313c.535156 1.5 1.136719 2.96875 1.820313 4.390625l-21.941407 21.9375c-5.21875-7.867187-9-16.765625-10.949219-26.328125zm54.101563 25.601562c1.425781.683594 2.890625 1.285157 4.390625 1.820313v31.070313c-9.5625-1.949219-18.460938-5.730469-26.328125-10.949219zm34.390625 1.820313c1.5-.535156 2.96875-1.136719 4.390625-1.820313l21.9375 21.941407c-7.867187 5.21875-16.765625 9-26.328125 10.949219zm27.421875-57.421875c-.535156-1.5-1.136719-2.964844-1.820313-4.390625l21.941407-21.9375c5.21875 7.867187 9 16.765625 10.949219 26.328125zm0 0"/></svg>